<svg width="30" height="30" viewBox="0 0 30 30" fill="none" xmlns="http://www.w3.org/2000/svg">
<path d="M7.95454 13.7728V18.4698M22.0454 11.4243V16.1213M20.8712 5.5531C23.7466 5.5531 25.3018 5.99316 26.0756 6.33449C26.1786 6.37995 26.2302 6.40268 26.3789 6.5446C26.468 6.62967 26.6307 6.87928 26.6726 6.99517C26.7424 7.18851 26.7424 7.2942 26.7424 7.50556V20.1268C26.7424 21.1939 26.7424 21.7275 26.5824 22.0017C26.4196 22.2807 26.2626 22.4104 25.958 22.5176C25.6584 22.623 25.0538 22.5068 23.8446 22.2745C22.9982 22.1119 21.9944 21.9925 20.8712 21.9925C17.3485 21.9925 13.8258 24.341 9.12878 24.341C6.2534 24.341 4.69821 23.9009 3.9244 23.5596C3.82135 23.5141 3.76982 23.4914 3.62111 23.3495C3.53197 23.2644 3.36926 23.0148 3.3274 22.8989C3.25757 22.7056 3.25757 22.5999 3.25757 22.3885L3.25757 9.76728C3.25757 8.70017 3.25757 8.16661 3.41759 7.89236C3.58037 7.61338 3.73735 7.48369 4.04203 7.37648C4.34155 7.27108 4.94617 7.38725 6.1554 7.61959C7.00178 7.78221 8.00559 7.90158 9.12878 7.90158C12.6515 7.90158 16.1742 5.5531 20.8712 5.5531ZM17.9356 14.947C17.9356 16.5683 16.6213 17.8826 15 17.8826C13.3787 17.8826 12.0644 16.5683 12.0644 14.947C12.0644 13.3257 13.3787 12.0114 15 12.0114C16.6213 12.0114 17.9356 13.3257 17.9356 14.947Z" stroke="#0F6326" stroke-width="2" stroke-linecap="round" stroke-linejoin="round"/>
</svg>
