<svg width="50" height="51" viewBox="0 0 50 51" fill="none" xmlns="http://www.w3.org/2000/svg">
<g id="calendar-plus-01">
<path id="Icon" d="M43.75 16.9183H6.25M33.3333 4.41832V10.6683M16.6667 4.41832V10.6683M25 37.7517V25.2517M18.75 31.5017H31.25M16.25 46.085H33.75C37.2503 46.085 39.0005 46.085 40.3374 45.4038C41.5135 44.8046 42.4696 43.8484 43.0688 42.6724C43.75 41.3355 43.75 39.5853 43.75 36.085V18.585C43.75 15.0847 43.75 13.3345 43.0688 11.9975C42.4696 10.8215 41.5135 9.8654 40.3374 9.2662C39.0005 8.58499 37.2503 8.58499 33.75 8.58499H16.25C12.7497 8.58499 10.9995 8.58499 9.66256 9.2662C8.48655 9.8654 7.53042 10.8215 6.93121 11.9975C6.25 13.3345 6.25 15.0847 6.25 18.585V36.085C6.25 39.5853 6.25 41.3355 6.93121 42.6724C7.53042 43.8484 8.48655 44.8046 9.66256 45.4038C10.9995 46.085 12.7497 46.085 16.25 46.085Z" stroke="black" stroke-width="2" stroke-linecap="round" stroke-linejoin="round"/>
</g>
</svg>
