<svg width="30" height="30" viewBox="0 0 30 30" fill="none" xmlns="http://www.w3.org/2000/svg">
<g id="calendar">
<path id="Icon" d="M25.5682 12.6515H4.43182M19.697 3.25757V7.95454M10.303 3.25757V7.95454M10.0682 26.7424H19.9318C21.9047 26.7424 22.8912 26.7424 23.6447 26.3585C24.3076 26.0207 24.8465 25.4818 25.1842 24.819C25.5682 24.0654 25.5682 23.079 25.5682 21.1061V11.2424C25.5682 9.2695 25.5682 8.28305 25.1842 7.5295C24.8465 6.86665 24.3076 6.32774 23.6447 5.99001C22.8912 5.60605 21.9047 5.60605 19.9318 5.60605H10.0682C8.09527 5.60605 7.10881 5.60605 6.35526 5.99001C5.69242 6.32774 5.15351 6.86665 4.81577 7.5295C4.43182 8.28305 4.43182 9.2695 4.43182 11.2424V21.1061C4.43182 23.079 4.43182 24.0654 4.81577 24.819C5.15351 25.4818 5.69242 26.0207 6.35526 26.3585C7.10881 26.7424 8.09527 26.7424 10.0682 26.7424Z" stroke="#0F6326" stroke-width="1.87879" stroke-linecap="round" stroke-linejoin="round"/>
</g>
</svg>
