<svg width="48" height="44" viewBox="0 0 48 44" fill="none" xmlns="http://www.w3.org/2000/svg">
<g id="hourglass-02">
<path id="Icon" d="M36.3251 4.33498H11.6749C10.7499 4.33498 10 5.00674 10 5.83539C10 10.6106 12.1175 15.1903 15.8867 18.5668L18.3251 20.7512C18.5673 20.9681 18.6883 21.0766 18.775 21.1808C19.3038 21.8161 19.3038 22.6872 18.775 23.3225C18.6883 23.4267 18.5673 23.5351 18.3251 23.7521L15.8867 25.9364C12.1175 29.313 10 33.8927 10 38.6679C10 39.4966 10.7499 40.1683 11.6749 40.1683H36.3251C37.2501 40.1683 38 39.4966 38 38.6679C38 33.8927 35.8825 29.313 32.1133 25.9364L29.6749 23.7521C29.4327 23.5351 29.3117 23.4267 29.225 23.3225C28.6962 22.6872 28.6962 21.8161 29.225 21.1808C29.3117 21.0766 29.4327 20.9681 29.6749 20.7512L32.1133 18.5668C35.8825 15.1903 38 10.6106 38 5.83539C38 5.00674 37.2501 4.33498 36.3251 4.33498Z" stroke="black" stroke-width="2" stroke-linecap="round" stroke-linejoin="round"/>
</g>
</svg>
