<svg width="104" height="130" viewBox="0 0 104 130" fill="none" xmlns="http://www.w3.org/2000/svg">
<g id="Object" opacity="0.5">
<g id="Group">
<path id="Vector" d="M71.0452 128.246L-34.4517 88.6223C-36.6371 87.8015 -38.0724 85.8718 -37.8926 83.9886L-31.7576 19.2835C-31.5161 16.7312 -28.4878 15.3744 -25.526 16.4869L73.1014 53.5305C75.1352 54.2944 76.5344 56.0283 76.5572 57.8089L77.291 125.097C77.3214 127.836 74.177 129.422 71.0452 128.246Z" fill="#D8C9BF"/>
<path id="Vector_2" d="M75.4933 124.422L74.7596 57.1334C74.7367 55.3528 73.3372 53.6187 71.3038 52.855L69.9822 52.3586C72.016 53.1225 73.4152 54.8565 73.4381 56.637L74.1718 123.925C74.2021 126.664 71.0581 128.251 67.9262 127.075L69.2478 127.571C72.3792 128.747 75.5237 127.16 75.4933 124.422Z" fill="#B6A191"/>
<path id="Vector_3" d="M72.2208 123.193L71.4871 55.9044C71.4642 54.1238 70.0647 52.3897 68.0313 51.626L66.7098 51.1296C68.7436 51.8935 70.1427 53.6275 70.1656 55.408L70.8993 122.696C70.9297 125.435 67.7856 127.022 64.6538 125.846L65.9753 126.342C69.1068 127.518 72.2512 125.931 72.2208 123.193Z" fill="#B6A191"/>
<path id="Vector_4" d="M62.1492 124.905L-34.4517 88.6223C-36.6371 87.8015 -38.0724 85.8718 -37.8926 83.9886L-36.7292 71.7245L-31.7576 19.2835C-31.5161 16.7312 -28.4878 15.3744 -25.526 16.4869L64.2016 50.1878C66.2389 50.953 67.638 52.6869 67.6574 54.4662L68.28 111.165L68.3946 121.756C68.4251 124.494 65.2772 126.08 62.1492 124.905Z" fill="#46435B"/>
<path id="Vector_5" d="M62.1497 124.905L-34.4512 88.6225C-36.6366 87.8017 -38.0719 85.872 -37.8921 83.9889L-36.7287 71.7247L68.2801 111.165L68.3947 121.756C68.4256 124.495 65.2777 126.08 62.1497 124.905Z" fill="#645D7F"/>
<path id="Vector_6" d="M-76.978 67.1531L-32.1281 16.9883C-30.9407 15.6602 -28.7447 15.2759 -26.7097 16.0402L71.9169 53.0835C74.8791 54.1961 76.263 57.2128 74.7651 59.2929L36.7866 112.039C35.6812 113.574 33.3329 114.083 31.1467 113.262L-74.3513 73.6378C-77.4818 72.4624 -78.8045 69.1965 -76.978 67.1531Z" fill="#EEEAE7"/>
<path id="Vector_7" d="M61.6041 60.8666C61.3431 60.269 60.7968 59.7805 60.1091 59.5222L52.8031 56.7781L51.2724 56.2032L40.8452 52.2869L39.3145 51.7119L28.8874 47.7956L27.3566 47.2207L16.9261 43.303L15.3953 42.7281L4.96821 38.8118L3.43747 38.2368L-6.98926 34.3206L-8.52 33.7457L-18.9471 29.8294L-20.4817 29.253L-28.6385 26.1894C-29.6146 25.8227 -30.6874 26.0174 -31.2458 26.6615L-35.0334 31.0274L-35.9177 32.0452L-41.5695 38.5666L-42.4539 39.5844L-48.1102 46.1074L-48.9945 47.1252L-54.6508 53.6481L-55.5351 54.6659L-61.1904 61.186L-62.0713 62.2051L-66.3422 67.1289C-66.7463 67.5982 -66.836 68.2193 -66.581 68.8315C-66.3272 69.4468 -65.7775 69.9499 -65.0676 70.2166L-56.5816 73.4038L-55.047 73.9802L-44.6237 77.8951L-43.093 78.47L-32.6662 82.3862L-31.1316 82.9626L-20.7049 86.8788L-19.1742 87.4537L-8.74744 91.3699L-7.21285 91.9463L3.21042 95.8612L4.74117 96.4361L15.1717 100.354L16.7025 100.929L26.1938 104.494C27.2107 104.875 28.3058 104.656 28.854 103.96L33.4721 98.09L34.2899 97.0472L39.5386 90.3744L40.3603 89.333L45.61 82.6574L46.4317 81.6161L51.6814 74.9405L52.4992 73.8977L57.748 67.2248L58.5696 66.1835L61.4294 62.5456C61.8004 62.0744 61.8661 61.4611 61.6041 60.8666ZM50.4284 57.2361L46.7409 61.7411L36.3176 57.8262L40.0017 53.32L50.4284 57.2361ZM5.29977 57.5206L15.7303 61.4382L10.3217 68.0542L-0.108845 64.1366L5.29977 57.5206ZM-1.63958 63.5616L-12.0667 59.6453L-6.65809 53.0293L3.76864 56.9455L-1.63958 63.5616ZM-13.5974 59.0704L-24.0242 55.1542L-18.6156 48.5382L-8.18845 52.4546L-13.5974 59.0704ZM-14.4449 60.102L-19.8535 66.718L-30.2802 62.8018L-24.8677 56.1873L-14.4449 60.102ZM-12.9107 60.6783L-2.48354 64.5946L-7.89215 71.2106L-18.3227 67.2929L-12.9107 60.6783ZM-0.952798 65.1695L9.47432 69.0859L4.06571 75.7018L-6.36141 71.7855L-0.952798 65.1695ZM11.0085 69.6621L21.4318 73.577L16.0232 80.193L5.59607 76.2766L11.0085 69.6621ZM11.8525 68.6291L17.2611 62.0132L27.6882 65.9295L22.2796 72.5455L11.8525 68.6291ZM18.1048 60.9798L23.5123 54.3666L33.9395 58.2829L28.5319 64.8961L18.1048 60.9798ZM16.574 60.4048L6.14692 56.4885L11.5545 49.8753L21.9816 53.7916L16.574 60.4048ZM4.61271 55.9123L-5.8144 51.9959L-0.406834 45.3827L10.0203 49.2991L4.61271 55.9123ZM-7.34515 51.421L-17.7723 47.5047L-12.3647 40.8915L-1.93795 44.8077L-7.34515 51.421ZM-19.3026 46.9299L-29.7297 43.0135L-24.3222 36.4004L-13.895 40.3167L-19.3026 46.9299ZM-20.1463 47.9633L-25.5549 54.5793L-35.9816 50.6631L-30.573 44.0471L-20.1463 47.9633ZM-26.4027 55.6108L-31.8113 62.2267L-42.2384 58.3104L-36.826 51.6959L-26.4027 55.6108ZM-32.655 63.2602L-38.0626 69.8733L-48.4897 65.957L-43.0821 59.3438L-32.655 63.2602ZM-31.1243 63.8351L-20.6975 67.7513L-26.1051 74.3645L-36.5322 70.4481L-31.1243 63.8351ZM-19.1668 68.3262L-8.73622 72.2438L-14.1438 78.857L-24.5744 74.9394L-19.1668 68.3262ZM-7.20509 72.8189L3.22203 76.7352L-2.18555 83.3484L-12.6123 79.4322L-7.20509 72.8189ZM4.75238 77.31L15.1795 81.2264L9.77193 87.8396L-0.654807 83.9234L4.75238 77.31ZM16.7102 81.8013L27.137 85.7175L21.7294 92.3307L11.3023 88.4143L16.7102 81.8013ZM17.5538 80.7682L22.9663 74.1537L33.393 78.0699L27.9844 84.6858L17.5538 80.7682ZM23.8103 73.1204L29.2189 66.5044L39.6461 70.4208L34.2375 77.0367L23.8103 73.1204ZM30.0626 65.471L35.4702 58.8578L45.8969 62.774L40.4894 69.3872L30.0626 65.471ZM38.4709 52.745L34.7834 57.2499L24.3601 53.3351L28.0438 48.8287L38.4709 52.745ZM26.5092 48.2523L22.8256 52.7587L12.3984 48.8423L16.0821 44.336L26.5092 48.2523ZM14.5518 43.7612L10.8677 48.2674L0.44097 44.3512L4.12465 39.8449L14.5518 43.7612ZM2.59044 39.2686L-1.09362 43.7748L-11.5169 39.86L-7.83283 35.3537L2.59044 39.2686ZM-9.36396 34.7787L-13.0515 39.2836L-23.4747 35.3687L-19.7907 30.8625L-9.36396 34.7787ZM-29.9563 27.5306C-29.7696 27.3139 -29.4079 27.2507 -29.0826 27.3729L-21.3254 30.2864L-25.0091 34.7928L-33.4912 31.6069L-29.9563 27.5306ZM-34.3754 32.6244L-25.8567 35.824L-31.2609 42.4385L-40.0276 39.1457L-34.3754 32.6244ZM-40.9117 40.164L-32.108 43.4706L-37.5166 50.0865L-46.568 46.6869L-40.9117 40.164ZM-47.4523 47.7047L-38.3602 51.1197L-43.7688 57.7356L-53.109 54.2275L-47.4523 47.7047ZM-53.9896 55.2471L-44.6129 58.7689L-50.0204 65.3821L-59.6453 61.7671L-53.9896 55.2471ZM-64.6234 69.0341C-64.86 68.9453 -65.0448 68.7748 -65.1288 68.5708C-65.2152 68.3628 -65.1849 68.1583 -65.0495 67.9999L-60.5261 62.7862L-50.8682 66.4136L-55.7386 72.3712L-64.6234 69.0341ZM-54.2036 72.9477L-49.3333 66.9901L-38.9061 70.9065L-43.7765 76.864L-54.2036 72.9477ZM-42.2462 77.4388L-37.3758 71.4812L-26.9487 75.3976L-31.8229 81.3537L-42.2462 77.4388ZM-30.2883 81.9301L-25.4179 75.9725L-14.9912 79.8887L-19.8616 85.8463L-30.2883 81.9301ZM-18.3304 86.4214L-13.4562 80.4652L-3.0295 84.3814L-7.90371 90.3376L-18.3304 86.4214ZM-6.36912 90.9139L-1.49876 84.9563L8.92836 88.8727L4.05414 94.8288L-6.36912 90.9139ZM5.58872 95.4052L10.4591 89.4476L20.8862 93.3639L16.0158 99.3215L5.58872 95.4052ZM27.5283 103.133C27.3444 103.364 26.9787 103.439 26.6383 103.311L17.5462 99.8963L22.4204 93.9402L31.9452 97.5176L27.5283 103.133ZM32.7665 96.4761L23.264 92.9071L28.6716 86.2939L38.0148 89.8031L32.7665 96.4761ZM38.833 88.7605L29.5151 85.2608L34.9237 78.6448L44.0863 82.0862L38.833 88.7605ZM44.9042 81.0431L35.7678 77.6115L41.1803 70.997L50.1578 74.3689L44.9042 81.0431ZM50.9757 73.3258L42.024 69.9636L47.4315 63.3504L56.224 66.6528L50.9757 73.3258ZM48.2755 62.3174L51.9595 57.8112L59.6651 60.7054C59.8944 60.7915 60.0779 60.9549 60.1627 61.1556C60.2525 61.3547 60.2305 61.5592 60.1074 61.7187L57.0461 65.6116L48.2755 62.3174Z" fill="#B6A191"/>
<g id="Group_2">
<path id="Vector_8" d="M5.39076 18.8636C4.40043 17.8267 2.93527 17.111 1.50718 16.7231C-1.39273 15.9411 -4.47533 16.1164 -6.59937 17.6376C-8.31408 18.867 -9.35475 20.6937 -9.7344 22.6369C-10.1726 24.8822 -9.56587 27.3107 -7.19703 29.0241C-6.45729 29.5586 -5.2443 29.464 -4.80253 28.8604C-4.3151 28.2029 -4.55655 27.363 -5.34932 26.7886C-5.38289 26.7658 -5.41542 26.7402 -5.44899 26.7174C-5.47768 26.6933 -5.49421 26.6801 -5.51163 26.6704C-5.54466 26.6345 -5.57384 26.6 -5.58999 26.5869C-5.65439 26.5223 -5.7211 26.4534 -5.78088 26.387C-5.83248 26.334 -5.85924 26.3036 -5.87677 26.2836C-5.95683 26.1591 -6.06948 25.9648 -6.0769 25.9518C-6.11218 25.888 -6.14131 25.8195 -6.17736 25.7589C-6.18808 25.7313 -6.19879 25.7038 -6.20593 25.6772C-6.26386 25.5172 -6.30948 25.3582 -6.34328 25.2005C-6.36197 25.1159 -6.3794 25.0384 -6.39579 24.9582C-6.39287 24.9726 -6.39353 24.986 -6.39226 24.9932C-6.45886 24.9345 -6.4161 24.5285 -6.41364 24.4554C-6.41466 24.2559 -6.3999 24.0589 -6.38025 23.8605C-6.37098 23.7797 -6.36159 23.6987 -6.3477 23.6161C-6.34495 23.5866 -6.3377 23.5556 -6.33392 23.5233C-6.3382 23.5452 -6.34325 23.5704 -6.3505 23.6014C-6.39765 23.5025 -6.25478 23.2121 -6.22985 23.1235C-6.13154 22.7823 -6.00603 22.4482 -5.85926 22.1252C-5.79637 21.9799 -5.72694 21.8407 -5.653 21.6999L-5.64965 21.691C-5.6423 21.6843 -5.6366 21.6738 -5.6301 21.6646C-5.6366 21.6738 -5.64261 21.6827 -5.64784 21.692C-5.46128 21.4921 -5.54341 21.5483 -5.61251 21.64C-5.59033 21.602 -5.56938 21.5579 -5.54732 21.5202C-5.30189 21.1366 -5.01776 20.7739 -4.69045 20.4411C-4.66475 20.4171 -4.63865 20.3932 -4.61294 20.3691C-4.58827 20.3479 -4.46 20.2307 -4.43006 20.2082C-4.26931 20.0829 -4.09818 19.9649 -3.92233 19.8554C-3.8175 19.7902 -3.70653 19.7307 -3.59824 19.6668C-3.58758 19.6606 -3.57204 19.6531 -3.55638 19.6453C-3.33937 19.5513 -3.11763 19.4657 -2.88925 19.3963C-2.76036 19.3569 -2.63021 19.3247 -2.50017 19.2928C-2.4822 19.2893 -2.47731 19.288 -2.46731 19.2847C-2.45396 19.2831 -2.45396 19.2831 -2.43715 19.2827C-2.16409 19.2638 -1.90098 19.2141 -1.62512 19.1994C-1.52567 19.1929 -1.42354 19.1909 -1.32129 19.1885C-1.29602 19.1879 -1.08163 19.1908 -1.02581 19.1882C-0.752696 19.203 -0.479468 19.2281 -0.206786 19.2662C0.0574329 19.3047 0.315718 19.3579 0.579006 19.4093C0.610816 19.4146 0.634285 19.4199 0.653786 19.4241C0.676093 19.4325 0.703014 19.4391 0.737514 19.4489C0.838668 19.4833 0.941521 19.5121 1.04267 19.5466C1.32052 19.6376 1.59332 19.7433 1.86123 19.8607C1.897 19.8777 1.97145 19.9155 2.02452 19.9424C2.14743 20.009 2.27392 20.0765 2.39194 20.1549C2.44294 20.1874 2.49316 20.2231 2.54299 20.2586C2.55426 20.2731 2.71438 20.3971 2.75113 20.4348C2.81553 20.4993 2.87981 20.5642 2.93921 20.6304C2.97455 20.6707 3.08879 20.8386 3.09264 20.8401L3.09648 20.8415C3.18281 20.9821 3.27145 21.1165 3.34377 21.2616C3.36575 21.3036 3.43851 21.4931 3.44197 21.4944C3.4689 21.5688 3.49594 21.6428 3.51787 21.7188C3.58085 21.9215 3.62252 22.1261 3.65996 22.329C3.65777 22.3349 3.69175 22.6043 3.69235 22.6249C3.70489 22.7714 3.70754 22.9209 3.70443 23.0647C3.70282 23.3612 3.67043 23.6495 3.63816 23.9376C3.63268 23.9861 3.63273 24.0198 3.63114 24.0463C3.62224 24.0699 3.61719 24.0951 3.60659 24.135C3.57502 24.2751 3.53971 24.4136 3.49632 24.5524C3.41971 24.8242 3.31974 25.0903 3.20862 25.3523C3.15743 25.4781 3.09739 25.604 3.03736 25.73C3.01676 25.7626 2.93436 25.9143 2.91619 25.951C2.76908 26.1861 2.60428 26.411 2.42206 26.6263C2.34234 26.7146 2.25928 26.8014 2.18073 26.8867C2.17957 26.8898 2.17572 26.8883 2.17468 26.8911L5.62462 28.1869C6.89694 26.5182 7.38118 24.3642 7.06954 22.2389C6.89761 21.0632 6.3268 19.8429 5.39076 18.8636ZM-5.37844 26.7773C-5.39909 26.7762 -5.44942 26.7303 -5.49591 26.6858C-5.46591 26.7076 -5.42723 26.739 -5.37844 26.7773Z" fill="#F1664E"/>
<g id="Group_3">
<path id="Vector_9" d="M10.8929 27.904C10.9581 27.7888 11.1138 27.6675 10.8929 27.904V27.904Z" fill="white"/>
<path id="Vector_10" d="M11.058 28.0208L10.7101 27.8125C10.8399 27.5849 10.9554 27.5953 10.9995 27.5992L11.1239 27.6105L11.1845 27.7098C11.2484 27.8166 11.1924 27.8767 11.058 28.0208Z" fill="black"/>
</g>
<path id="Vector_11" d="M21.9293 25.0754C20.9394 24.0386 19.4777 23.3243 18.0457 22.935C15.1458 22.153 12.0632 22.3283 9.93918 23.8495C8.22794 25.0802 7.18765 26.9069 6.808 28.8502C6.36976 31.0955 6.97615 33.5239 9.34153 35.236C10.0816 35.7706 11.2946 35.676 11.7399 35.0736C12.2273 34.4162 11.9824 33.575 11.1935 33.002C11.1599 32.9792 11.1274 32.9537 11.0934 32.9307C11.0647 32.9066 11.0486 32.8935 11.0308 32.8837C10.9977 32.8478 10.9686 32.8133 10.9524 32.8002C10.8842 32.7342 10.8209 32.6665 10.7581 32.599C10.7099 32.5473 10.6836 32.517 10.6656 32.4969C10.5821 32.3711 10.4733 32.1782 10.4655 32.1651C10.4302 32.1013 10.4011 32.0328 10.365 31.9722L10.3326 31.8891C10.2782 31.7303 10.2325 31.5713 10.1953 31.4123C10.1738 31.313 10.1581 31.2193 10.1399 31.1215C10.0858 30.8379 10.1501 31.2065 10.1491 31.2093C10.083 31.1609 10.1263 30.7418 10.125 30.6669C10.1279 30.4689 10.1392 30.2706 10.1623 30.0735C10.1715 29.9927 10.1809 29.9116 10.1952 29.8292C10.199 29.797 10.2028 29.7647 10.2112 29.7306C10.2144 29.7115 10.2172 29.6925 10.2178 29.679C10.2102 29.7099 10.2023 29.7543 10.1924 29.8145C10.1453 29.7157 10.2881 29.4253 10.3127 29.3365C10.4114 28.9955 10.533 28.6599 10.6798 28.3369C10.7465 28.1931 10.8121 28.0523 10.8895 27.9129L10.8973 27.8923C10.909 27.8833 10.9185 27.8697 10.924 27.8549C10.9469 27.8161 10.9684 27.7705 10.9914 27.7317C11.2364 27.348 11.5205 26.9853 11.8517 26.654C11.8739 26.6286 11.8996 26.6046 11.9257 26.5807C11.9542 26.5609 12.0825 26.4437 12.1121 26.4211C12.2732 26.2959 12.4401 26.1763 12.6164 26.067C12.7212 26.0017 12.8356 25.9436 12.9404 25.8783C12.9511 25.8722 12.9705 25.8661 12.9858 25.8581C13.2028 25.7641 13.421 25.6772 13.6533 25.6092C13.7822 25.5699 13.9123 25.5377 14.0424 25.5058C14.0569 25.501 14.0614 25.4996 14.0748 25.4976C14.0843 25.4945 14.0882 25.4959 14.105 25.4956C14.3742 25.4752 14.6412 25.427 14.917 25.4123C15.0165 25.4057 15.1186 25.4037 15.2208 25.4014C15.2465 25.4008 15.4567 25.4022 15.5163 25.4011C15.7856 25.4144 16.0627 25.4409 16.335 25.4789C16.5953 25.516 16.8575 25.5706 17.1173 25.6207C17.1491 25.626 17.1764 25.6328 17.1955 25.6368C17.2178 25.6452 17.2448 25.6518 17.2789 25.6614C17.38 25.6959 17.4829 25.7247 17.584 25.7592C17.8623 25.8503 18.1347 25.9558 18.3991 26.072C18.4388 26.0904 18.5128 26.128 18.5624 26.1537C18.6888 26.2215 18.8153 26.289 18.9298 26.3661C18.9847 26.4001 19.0345 26.4356 19.0844 26.4712C19.0922 26.4843 19.2523 26.6084 19.2925 26.6473C19.3569 26.7119 19.4173 26.7753 19.4767 26.8415C19.5121 26.8818 19.6172 27.0295 19.6313 27.0481C19.7215 27.1901 19.8093 27.3277 19.8847 27.474C19.9044 27.5116 19.9621 27.6618 19.978 27.6979C20.0077 27.7765 20.0346 27.8508 20.0593 27.9311C20.1185 28.1323 20.1636 28.3382 20.2014 28.5413C20.1981 28.5502 20.2328 28.8164 20.2338 28.8371C20.2429 28.9824 20.2456 29.1319 20.2459 29.277C20.2443 29.5734 20.2119 29.8618 20.1796 30.1498C20.1742 30.1983 20.1704 30.2306 20.1692 30.2572C20.1637 30.2822 20.1548 30.3059 20.1481 30.3472C20.1127 30.4859 20.0777 30.6245 20.0378 30.7647C19.9573 31.035 19.8612 31.3026 19.7501 31.5646C19.6951 31.6889 19.6389 31.8163 19.575 31.9408C19.5582 31.9749 19.472 32.1251 19.4542 32.1619C19.3067 32.3969 19.1458 32.6233 18.9601 32.8372C18.8842 32.927 18.7973 33.0124 18.7187 33.0977C18.7176 33.1007 18.7141 33.0994 18.7131 33.1022L22.1665 34.3993C23.4388 32.7306 23.9227 30.5765 23.6114 28.4513C23.44 27.2765 22.8688 26.0561 21.9293 25.0754ZM11.1636 32.9904C11.1391 32.9879 11.0926 32.9434 11.0461 32.8989C11.0761 32.9207 11.1113 32.9508 11.1636 32.9904Z" fill="#F1664E"/>
<path id="Vector_12" d="M38.4717 31.2886C37.4814 30.2517 36.0201 29.5375 34.5882 29.1482C31.6879 28.366 28.6053 28.5413 26.4816 30.0627C24.7669 31.2921 23.7262 33.1187 23.3466 35.0619C22.9084 37.3072 23.519 39.7372 25.884 41.4492C26.6241 41.9838 27.8367 41.8891 28.2823 41.2868C28.7659 40.628 28.5248 39.7882 27.7321 39.2138C27.6985 39.191 27.6659 39.1654 27.6358 39.1439C27.6068 39.1197 27.5906 39.1066 27.5732 39.0969C27.5367 39.0597 27.5072 39.025 27.4949 39.0134C27.427 38.9475 27.3637 38.8799 27.3005 38.8122C27.2524 38.7605 27.226 38.7302 27.2046 38.7088C27.1249 38.5844 27.0123 38.3901 27.0045 38.377C26.9696 38.3133 26.9439 38.2461 26.904 38.1841C26.8972 38.158 26.8826 38.129 26.8758 38.1026C26.8214 37.9438 26.7757 37.7848 26.7385 37.6258C26.7166 37.5263 26.7013 37.4328 26.6831 37.335C26.6294 37.0515 26.6899 37.4187 26.6923 37.4227C26.6224 37.373 26.6695 36.9553 26.6682 36.8804C26.6711 36.6824 26.6824 36.4841 26.7055 36.287C26.7109 36.2048 26.7241 36.1251 26.7346 36.0413C26.7357 36.0382 26.7379 36.0324 26.7351 36.0281C26.688 35.9293 26.827 35.6375 26.8519 35.5489C26.9506 35.2078 27.0761 34.8737 27.2229 34.5507C27.2858 34.4054 27.3548 34.266 27.4291 34.1254C27.4231 34.1298 27.4219 34.1329 27.4163 34.1374C27.4291 34.1254 27.4397 34.109 27.4497 34.0927C27.454 34.0884 27.4569 34.0831 27.46 34.0783C27.4508 34.091 27.4419 34.1042 27.4347 34.1176C27.6248 33.9141 27.5362 33.976 27.4661 34.0701C27.4664 34.0695 27.4665 34.0692 27.4671 34.0687C27.49 34.0299 27.5115 33.9843 27.5344 33.9455C27.7799 33.562 28.064 33.1993 28.3948 32.8678C28.417 32.8424 28.4427 32.8184 28.4688 32.7945C28.4973 32.7746 28.6221 32.6562 28.6517 32.6336C28.8128 32.5083 28.9836 32.3903 29.1598 32.2809C29.2647 32.2157 29.3752 32.1561 29.4839 32.0923C29.4946 32.0861 29.5101 32.0786 29.5258 32.0708C29.5509 32.0599 29.576 32.0493 29.6011 32.0383C29.7964 31.9565 29.9924 31.8848 30.1929 31.8217C30.3218 31.7824 30.4554 31.7515 30.5854 31.7195C30.5999 31.7148 30.6045 31.7133 30.6145 31.7101C30.6278 31.7084 30.6313 31.7097 30.6446 31.7081C30.9177 31.6891 31.1812 31.6396 31.4567 31.6248C31.5599 31.6197 31.6582 31.6162 31.7605 31.6139C31.7861 31.6133 32.0001 31.6161 32.0559 31.6136C32.3291 31.6284 32.6023 31.6534 32.8746 31.6914C33.1388 31.7299 33.3971 31.783 33.6604 31.8345C33.6922 31.8398 33.7153 31.845 33.7386 31.8506C33.7571 31.8575 33.7878 31.8656 33.822 31.8752C33.9231 31.9097 34.0225 31.9372 34.1233 31.9715C34.4015 32.0627 34.6739 32.1682 34.9418 32.2856C34.9776 32.3026 35.0521 32.3404 35.1051 32.3673C35.2315 32.4352 35.3545 32.5014 35.4726 32.5798C35.5235 32.6123 35.5734 32.6478 35.6236 32.6836C35.6349 32.698 35.795 32.822 35.8352 32.861C35.8958 32.9241 35.96 32.989 36.0194 33.0552C36.0586 33.0969 36.169 33.2634 36.1729 33.2648L36.1763 33.2661C36.2665 33.4081 36.3517 33.5412 36.4274 33.6877C36.446 33.7283 36.5183 33.9177 36.5218 33.919C36.5487 33.9934 36.5758 34.0674 36.5981 34.1436C36.6611 34.3463 36.7062 34.5521 36.744 34.7552C36.7396 34.7669 36.7754 35.0303 36.7764 35.0511C36.7851 35.1962 36.7882 35.3458 36.7885 35.4909C36.783 35.7859 36.751 36.0744 36.7222 36.3638C36.7167 36.4123 36.713 36.4446 36.7114 36.471C36.7025 36.4947 36.6974 36.5198 36.6864 36.5596C36.6549 36.6998 36.6195 36.8382 36.5796 36.9784C36.4992 37.2487 36.403 37.5163 36.2881 37.7768C36.2365 37.9024 36.1769 38.0285 36.1168 38.1545C36.0997 38.1884 36.0138 38.3387 35.9956 38.3754C35.8481 38.6104 35.6837 38.8355 35.5015 39.0507C35.4256 39.1406 35.3387 39.2259 35.2602 39.3112C35.259 39.3143 35.2552 39.3128 35.2541 39.3156L38.7075 40.6126C39.9799 38.9439 40.4641 36.79 40.149 34.6634C39.979 33.4884 39.4078 32.2679 38.4717 31.2886ZM27.7064 39.2038C27.6819 39.2013 27.6316 39.1553 27.5889 39.1123C27.6151 39.1326 27.6538 39.164 27.7064 39.2038Z" fill="#F1664E"/>
<path id="Vector_13" d="M55.011 37.5006C54.0245 36.4651 52.5594 35.7495 51.1313 35.3616C48.2275 34.5782 45.1449 34.7535 43.0209 36.2746C41.3097 37.5053 40.2694 39.3321 39.8897 41.2754C39.4515 43.5207 40.0583 45.9492 42.4271 47.6626C43.1672 48.1972 44.376 48.101 44.8216 47.4988C45.309 46.8414 45.0676 46.0015 44.2748 45.427C44.2412 45.4043 44.2087 45.3787 44.1751 45.3559C44.1464 45.3318 44.1299 45.3186 44.1125 45.3089C44.0795 45.2729 44.0503 45.2384 44.0341 45.2254C43.9697 45.1608 43.903 45.0919 43.8432 45.0255C43.7916 44.9724 43.7649 44.942 43.7474 44.9221C43.6673 44.7976 43.5546 44.6032 43.5472 44.5903C43.5119 44.5265 43.4828 44.4579 43.4468 44.3974C43.436 44.3698 43.4253 44.3423 43.4147 44.3144C43.3603 44.1556 43.3146 43.9966 43.2774 43.8376C43.2651 43.7688 43.252 43.7031 43.235 43.636C43.1651 43.5862 43.2084 43.1671 43.211 43.0937C43.21 42.8942 43.2247 42.6972 43.2444 42.4988C43.2536 42.418 43.263 42.337 43.2769 42.2544C43.2779 42.2414 43.2785 42.228 43.2802 42.2118C43.2769 42.2207 43.277 42.2309 43.2736 42.2398C43.2265 42.141 43.3693 41.8506 43.3943 41.762C43.4926 41.4208 43.6181 41.0867 43.761 40.7622C43.8278 40.6184 43.8972 40.4791 43.9707 40.3382L43.9741 40.3293C43.9782 40.3231 43.9829 40.3175 43.9874 40.3115C43.9833 40.3177 43.9788 40.3237 43.9751 40.33C44.16 40.1323 44.0812 40.1856 44.0124 40.2752C44.0338 40.238 44.0547 40.1953 44.0764 40.1585C44.318 39.7735 44.6017 39.4107 44.9333 39.0795C44.959 39.0554 44.9851 39.0315 45.0073 39.0062C45.0359 38.9863 45.1641 38.8691 45.1941 38.8467C45.3552 38.7215 45.5221 38.6019 45.6983 38.4926C45.8066 38.4286 45.9176 38.3692 46.0259 38.3052C46.0365 38.2991 46.0521 38.2916 46.0677 38.2838C46.0929 38.2728 46.118 38.2622 46.1431 38.2513C46.3346 38.1681 46.5305 38.0963 46.7349 38.0347C46.8638 37.9954 46.9939 37.9631 47.124 37.9312C47.1385 37.9265 47.143 37.925 47.1568 37.9232C47.1663 37.9201 47.1702 37.9216 47.187 37.9212C47.46 37.9023 47.7231 37.8526 47.999 37.8379C48.0985 37.8313 48.2006 37.8293 48.3028 37.827C48.3285 37.8265 48.5425 37.8293 48.5983 37.8267C48.8714 37.8415 49.1447 37.8665 49.4173 37.9047C49.6816 37.9432 49.9398 37.9963 50.2031 38.0478C50.2315 38.0518 50.2584 38.0584 50.2779 38.0626C50.3002 38.0709 50.3271 38.0775 50.3616 38.0873C50.4628 38.1218 50.5656 38.1506 50.6668 38.1851C50.945 38.2763 51.2174 38.3817 51.4854 38.4992C51.5211 38.5162 51.5956 38.5539 51.6486 38.5809C51.7716 38.6474 51.8981 38.715 52.0165 38.7935C52.0674 38.826 52.1173 38.8615 52.1671 38.8971C52.1784 38.9115 52.3385 39.0356 52.3753 39.0732C52.4397 39.1378 52.5039 39.2027 52.5633 39.2689C52.5987 39.3092 52.7129 39.4771 52.7168 39.4785L52.7206 39.48C52.8069 39.6205 52.8921 39.7536 52.9679 39.9001C52.9899 39.942 53.0626 40.1316 53.0661 40.1329C53.093 40.2072 53.1162 40.2798 53.142 40.3573C53.205 40.56 53.2466 40.7645 53.2841 40.9675C53.2819 40.9733 53.3159 41.2427 53.3165 41.2633C53.3252 41.4084 53.3282 41.5581 53.3286 41.7032C53.3269 41.9996 53.2946 42.288 53.2623 42.5761C53.2568 42.6246 53.2569 42.6583 53.2514 42.6833C53.2464 42.7084 53.2409 42.7334 53.2303 42.7733C53.1949 42.912 53.1634 43.0519 53.1201 43.1908C53.0396 43.4611 52.9435 43.7287 52.8324 43.9906C52.7812 44.1164 52.7211 44.2424 52.6572 44.3669C52.6405 44.401 52.5581 44.5526 52.5365 44.588C52.3894 44.8231 52.2284 45.0495 52.0423 45.2633C51.9665 45.3531 51.883 45.4397 51.8049 45.5252C51.8037 45.5283 51.7998 45.5268 51.7988 45.5296L55.2487 46.8253C56.5211 45.1566 57.0053 43.0027 56.6937 40.8774C56.5217 39.7016 55.9509 38.4814 55.011 37.5006ZM44.2457 45.4158C44.225 45.4147 44.1747 45.3687 44.1282 45.3242C44.1582 45.346 44.1969 45.3774 44.2457 45.4158Z" fill="#F1664E"/>
<g id="Group_4">
<path id="Vector_14" d="M43.2251 43.5813C43.225 43.5711 43.2256 43.5579 43.2216 43.5463C43.2143 43.5098 43.2074 43.4837 43.2018 43.4647C43.2075 43.4939 43.2154 43.5407 43.2251 43.5813Z" fill="white"/>
<path id="Vector_15" d="M43.4139 45.165L43.0284 43.5916C43.0204 43.5591 43.0134 43.5227 43.0078 43.4933L43.0101 43.4931C43.0088 43.4894 43.0079 43.4859 43.0068 43.4831L43.3955 43.4461C43.4021 43.4683 43.4101 43.4994 43.4191 43.5421L43.4254 43.6037L43.4139 45.165Z" fill="black"/>
</g>
<path id="Vector_16" d="M73.2343 47.0894C73.0599 45.9133 72.4891 44.6931 71.553 43.7137C70.5631 42.677 69.1014 41.9626 67.6695 41.5733C64.7695 40.7913 61.6869 40.9666 59.5629 42.4878C57.8517 43.7185 56.8114 45.5453 56.4317 47.4885C55.9935 49.7338 56.5999 52.1622 58.9652 53.8743C59.7054 54.4089 60.918 54.3142 61.3636 53.712C61.851 53.0545 61.6061 52.2133 60.8133 51.6389C60.7836 51.6175 60.7507 51.5918 60.7175 51.5692C60.6884 51.5449 60.6723 51.5318 60.6549 51.5221C60.6218 51.4862 60.5892 51.4504 60.5765 51.4386C60.5083 51.3726 60.445 51.305 60.3822 51.2375C60.334 51.1857 60.3076 51.1554 60.2897 51.1354C60.2062 51.0096 60.0936 50.8152 60.0858 50.8021C60.0543 50.7397 60.0252 50.6712 59.9891 50.6106C59.9784 50.5831 59.9677 50.5555 59.9567 50.5275C59.9026 50.3689 59.857 50.2099 59.8194 50.0508C59.7979 49.9514 59.7822 49.8577 59.764 49.76C59.7103 49.4765 59.7704 49.8435 59.7732 49.8477C59.7032 49.7979 59.7504 49.3803 59.7491 49.3054C59.752 49.1074 59.7633 48.909 59.7867 48.7121C59.796 48.6313 59.8054 48.5502 59.8193 48.4677C59.8222 48.4484 59.8253 48.4296 59.8247 48.409C59.8237 48.422 59.8182 48.4367 59.8164 48.4532C59.7692 48.3544 59.9083 48.0626 59.9367 47.9753C60.0353 47.6342 60.157 47.2986 60.3038 46.9756C60.3705 46.8318 60.4361 46.6911 60.51 46.5503C60.5044 46.5549 60.5032 46.558 60.4972 46.5624C60.51 46.5503 60.5206 46.5339 60.5306 46.5177C60.5378 46.5102 60.5446 46.5026 60.5479 46.494C60.5708 46.4552 60.5923 46.4096 60.6152 46.3708C60.8603 45.9871 61.1444 45.6244 61.4755 45.293C61.4978 45.2677 61.5235 45.2437 61.5496 45.2197C61.5781 45.1999 61.7064 45.0827 61.7359 45.0601C61.8971 44.9349 62.064 44.8154 62.2402 44.706C62.3447 44.6406 62.4595 44.5826 62.5639 44.5172C62.5746 44.5111 62.5901 44.5036 62.6092 44.4971C62.8262 44.403 63.0441 44.316 63.2768 44.2482C63.4056 44.2088 63.5358 44.1766 63.6658 44.1447C63.6803 44.1399 63.6848 44.1385 63.6983 44.1365C63.7078 44.1334 63.7117 44.1349 63.725 44.1332C63.9981 44.1143 64.2612 44.0646 64.537 44.0499C64.6399 44.0446 64.7421 44.0426 64.8443 44.0403C64.87 44.0398 65.0801 44.0411 65.1398 44.04C65.4091 44.0533 65.6861 44.0798 65.955 44.1165C66.2188 44.1549 66.4813 44.2096 66.7408 44.2597C66.7726 44.2649 66.7961 44.2702 66.819 44.2757C66.8413 44.2841 66.8683 44.2907 66.9024 44.3003C67.0035 44.3348 67.1064 44.3636 67.2075 44.3981C67.4815 44.4877 67.7543 44.5933 68.0226 44.7109C68.0584 44.7279 68.1363 44.767 68.1859 44.7926C68.3123 44.8604 68.4353 44.9267 68.5533 45.005C68.6082 45.039 68.658 45.0745 68.7078 45.1101C68.7156 45.1232 68.8758 45.2473 68.916 45.2862C68.9804 45.3508 69.0408 45.4142 69.1002 45.4804C69.1394 45.5222 69.2498 45.6886 69.2536 45.6901L69.2571 45.6914C69.3473 45.8334 69.4324 45.9665 69.5078 46.1128C69.5264 46.1534 69.6026 46.3443 69.6026 46.3443C69.6295 46.4186 69.6566 46.4927 69.6785 46.5687C69.7415 46.7714 69.7866 46.9772 69.8244 47.1803C69.8211 47.1893 69.8562 47.4556 69.8568 47.4762C69.8659 47.6214 69.8686 47.7709 69.8689 47.9161C69.8673 48.2125 69.8349 48.5009 69.8026 48.7889C69.7971 48.8374 69.7934 48.8697 69.7922 48.8963C69.7867 48.9213 69.7778 48.945 69.7711 48.9863C69.7356 49.125 69.7007 49.2636 69.6608 49.4038C69.5803 49.6741 69.4842 49.9417 69.3731 50.2036C69.318 50.328 69.2619 50.4554 69.198 50.5799C69.1812 50.614 69.095 50.7642 69.0772 50.801C68.9297 51.036 68.7687 51.2624 68.5831 51.4763C68.5072 51.5661 68.4203 51.6514 68.3417 51.7367C68.3406 51.7398 68.3371 51.7385 68.3361 51.7413L71.7895 53.0384C73.0617 51.3686 73.5456 49.2145 73.2343 47.0894ZM60.7877 51.6289C60.7632 51.6264 60.7167 51.5819 60.6702 51.5374C60.696 51.5576 60.735 51.5891 60.7877 51.6289Z" fill="#F1664E"/>
<g id="Group_5">
<path id="Vector_17" d="M60.5161 46.5422C60.5817 46.4271 60.737 46.3057 60.5161 46.5422V46.5422Z" fill="white"/>
<path id="Vector_18" d="M60.6803 46.6587L60.3324 46.4504C60.4622 46.2229 60.578 46.2334 60.6218 46.2372L60.7465 46.2486L60.8066 46.348C60.8713 46.4552 60.8155 46.515 60.6803 46.6587Z" fill="black"/>
</g>
</g>
<g id="Group_6">
<path id="Vector_19" d="M-20.2183 90.5382C-13.1192 93.2046 -6.02013 95.8709 1.07936 98.5374C3.08509 99.2908 5.09044 100.044 7.09617 100.797C7.83846 101.076 8.18669 100.154 7.44286 99.8742C0.343761 97.2079 -6.75534 94.5415 -13.8548 91.875C-15.8606 91.1217 -17.8659 90.3685 -19.8716 89.6151C-20.6143 89.3362 -20.9622 90.2588 -20.2183 90.5382Z" fill="#D8C9BF"/>
<path id="Vector_20" d="M-27.6736 21.6689C-15.88 26.0985 -4.08599 30.5283 7.70763 34.9578C19.4374 39.3634 31.1672 43.769 42.8966 48.1745C49.4984 50.6541 56.1006 53.1338 62.7024 55.6134C63.4447 55.8922 63.7929 54.9697 63.0491 54.6903C51.2555 50.2607 39.4614 45.831 27.6678 41.4014C15.938 36.9958 4.20824 32.5902 -7.52116 28.1848C-14.123 25.7052 -20.7251 23.2255 -27.3269 20.7459C-28.0692 20.4671 -28.4171 21.3897 -27.6736 21.6689Z" fill="#D8C9BF"/>
<path id="Vector_21" d="M10.4898 37.8409C15.4828 39.7162 20.4758 41.5916 25.4687 43.4669C26.211 43.7457 26.5593 42.8232 25.8154 42.5438C20.8225 40.6685 15.8295 38.7932 10.8365 36.9179C10.0938 36.6389 9.74597 37.5615 10.4898 37.8409Z" fill="#D8C9BF"/>
</g>
</g>
</g>
</svg>
