<svg width="103" height="73" viewBox="0 0 103 73" fill="none" xmlns="http://www.w3.org/2000/svg">
<g id="Object" opacity="0.5">
<g id="Group">
<path id="Vector" d="M28.3781 32.3301C28.3781 32.3301 27.7409 17.5279 31.271 14.9652C34.8009 12.4022 49.1596 7.59653 52.8328 10.7448C56.5061 13.893 60.7323 23.6608 60.7323 23.6608L56.3321 24.8398C56.3321 24.8398 50.9481 14.0647 48.6092 14.0325C46.2703 14.0003 35.7547 16.9976 34.9085 18.602C34.0623 20.2061 34.5847 31.8882 34.5847 31.8882L28.3781 32.3301Z" fill="#603D24"/>
<path id="Vector_2" d="M30.8125 31.6778C30.8125 31.6778 30.1753 16.8756 33.7053 14.3128C37.2353 11.7498 51.594 6.94419 55.2672 10.0924C58.9404 13.2407 63.1667 23.0085 63.1667 23.0085L58.7665 24.1875C58.7665 24.1875 53.3825 13.4123 51.0436 13.3801C48.7047 13.3479 38.1891 16.3452 37.3429 17.9496C36.4967 19.5538 37.0191 31.2359 37.0191 31.2359L30.8125 31.6778Z" fill="#875838"/>
<path id="Vector_3" d="M95.1872 49.9038C95.2015 50.2025 95.1929 50.4769 95.1598 50.7297C94.8501 53.2945 92.407 53.6841 92.407 53.6841C92.407 53.6841 93.416 55.9964 94.5193 59.2123C95.4158 61.8316 96.3752 65.0532 96.9016 68.1118C96.918 68.2082 96.9339 68.3025 96.9498 68.3968C98.0747 75.2827 87.3163 78.0458 65.1681 86.1361C43.0199 94.2264 29.5724 97.2315 24.3196 93.727C19.0695 90.2241 11.4235 60.0518 7.92038 50.8474C6.57718 47.3228 6.13042 44.6487 6.40815 42.4373C6.85664 38.876 9.18587 36.5207 12.685 33.7605C16.937 30.4044 35.3534 25.2305 44.2904 22.8569C47.2659 22.0643 49.1897 21.584 49.1897 21.584C57.4687 19.3985 74.4961 15.0026 80.1788 17.4325C82.8914 18.5916 86.3958 25.288 89.3382 32.3297C92.5572 40.0456 95.0993 48.175 95.1872 49.9038Z" fill="#875838"/>
<path id="Vector_4" d="M96.9016 68.1118C96.918 68.2082 96.9339 68.3025 96.9498 68.3968C98.0747 75.2827 87.3163 78.0458 65.1681 86.1361C43.0199 94.2264 29.5724 97.2315 24.3196 93.727C19.0695 90.2241 11.4235 60.0518 7.92038 50.8474C6.57718 47.3228 6.13042 44.6487 6.40815 42.4373C6.85664 38.876 9.18587 36.5207 12.685 33.7605C16.937 30.4044 35.3534 25.2305 44.2904 22.8569C40.3652 43.0242 33.5946 68.4529 33.5946 68.4529C33.5946 68.4529 38.0635 88.2475 42.1348 88.2357C45.986 88.2241 83.1162 78.7583 96.9016 68.1118Z" fill="#603D24"/>
<path id="Vector_5" d="M95.1874 49.9039C95.2018 50.2026 95.1932 50.477 95.1601 50.7299C94.8504 53.2946 92.4073 53.6842 92.4073 53.6842C92.4073 53.6842 93.4162 55.9965 94.5196 59.2124L35.9028 76.9877L33.5948 68.453C33.5948 68.453 49.72 43.6798 68.0512 35.8944C78.8149 31.3213 84.4082 31.2113 89.3384 32.3298C92.5574 40.0457 95.0995 48.1751 95.1874 49.9039Z" fill="#603D24"/>
<g id="Group_2">
<path id="Vector_6" d="M95.1879 49.9039C95.2023 50.2027 95.1937 50.4771 95.1606 50.7299C93.8925 52.4584 92.9199 53.547 92.4078 53.6843C89.243 54.5322 49.5992 69.3067 38.5802 70.5023C27.5613 71.6979 25.9441 40.0297 19.8449 37.831C13.7456 35.6324 6.41123 42.4463 6.41123 42.4463C6.41123 42.4463 6.41064 42.4441 6.40888 42.4375C6.52629 41.51 6.76873 40.6639 7.12916 39.873C8.14931 37.6222 10.0968 35.8031 12.6858 33.7606C18.3529 29.2865 49.1905 21.5842 49.1905 21.5842C57.053 19.508 72.8053 15.4396 79.236 17.1155C79.5788 17.2043 79.8933 17.31 80.1795 17.4327C85.8623 19.8626 95.021 46.5942 95.1879 49.9039Z" fill="#A3643A"/>
<path id="Vector_7" d="M95.1873 49.9046C95.2017 50.2034 95.0806 51.6006 95.0475 51.8534C93.7795 53.5818 92.9193 53.5477 92.4069 53.685C89.2422 54.533 49.5984 69.3075 38.5794 70.5031C33.316 71.0736 30.1986 64.1492 27.7129 56.5183C24.9931 48.1714 23.0303 38.9813 19.844 37.8318C13.7448 35.6331 6.41041 42.447 6.41041 42.447C6.41041 42.447 6.40983 42.4448 6.40807 42.4383C6.52547 41.5107 6.76791 40.6647 7.12835 39.8737C8.81803 38.0206 11.4567 35.9272 15.2498 34.9906C22.8141 33.1233 26.6948 36.8734 29.3521 44.707C30.0369 46.7285 30.7036 49.0504 31.4086 51.3925C33.4407 58.1363 35.8056 65.0535 39.9362 65.4292C45.5019 65.9341 90.3512 51.5195 91.4063 48.6025C91.8979 47.2416 90.1388 40.8517 87.3799 33.742C85.1093 27.8856 82.161 21.5398 79.2352 17.1163C79.578 17.205 79.8925 17.3108 80.1787 17.4334C82.9816 18.6317 86.6286 25.7379 89.6269 33.0321C92.7086 40.5314 95.1035 48.2264 95.1873 49.9046Z" fill="#E5B798"/>
</g>
<path id="Vector_8" d="M13.0699 40.5643C13.0699 40.5643 7.84724 42.0836 8.64189 45.9431C9.4366 49.8028 21.1687 88.2237 24.9728 90.7978C28.777 93.3719 37.7635 92.0421 35.7871 84.666C33.8107 77.29 20.7036 42.2319 19.1669 40.9667C17.6302 39.7017 14.944 39.7321 13.0699 40.5643Z" fill="#875838"/>
<path id="Vector_9" d="M12.5238 41.3919C12.7463 41.9595 12.9419 42.5388 13.1464 43.1132C13.5934 44.3673 14.0373 45.6227 14.4806 46.8783C15.1091 48.6573 15.7361 50.437 16.3629 52.2167C17.1107 54.3407 17.8582 56.4649 18.6052 58.5893C19.4174 60.899 20.2293 63.2085 21.0412 65.5183C21.8602 67.8482 22.6792 70.1781 23.4984 72.5077C24.2694 74.7006 25.0406 76.8934 25.8125 79.086C26.4718 80.9591 27.1314 82.8318 27.7922 84.7042C28.2866 86.1054 28.7814 87.5064 29.2787 88.9064C29.5461 89.659 29.8107 90.4129 30.0874 91.1621C30.1123 91.2295 30.1372 91.297 30.1633 91.3639C30.3212 91.7666 30.9795 91.5953 30.8199 91.188C30.5974 90.6203 30.4019 90.041 30.1973 89.4667C29.7503 88.2126 29.3065 86.9571 28.8631 85.7016C28.2346 83.9225 27.6076 82.1428 26.9809 80.3631C26.233 78.2391 25.4856 76.115 24.7385 73.9905C23.9264 71.6809 23.1145 69.3713 22.3025 67.0616C21.4835 64.7317 20.6645 62.4018 19.8454 60.0722C19.0744 57.8793 18.3031 55.6865 17.5312 53.4938C16.872 51.6208 16.2123 49.7481 15.5515 47.8756C15.0572 46.4745 14.5624 45.0734 14.065 43.6735C13.7977 42.9208 13.5331 42.167 13.2563 41.4178C13.2314 41.3503 13.2065 41.2829 13.1804 41.216C13.0225 40.8133 12.3642 40.9845 12.5238 41.3919Z" fill="#603D24"/>
<g id="Group_3">
<path id="Vector_10" d="M39.7794 61.2695C43.5755 60.2523 47.3717 59.2351 51.1676 58.218C52.2391 57.9309 53.3109 57.6437 54.3824 57.3566C54.8048 57.2434 54.6298 56.5866 54.2065 56.7C50.4104 57.7172 46.6142 58.7344 42.8183 59.7515C41.7468 60.0386 40.675 60.3258 39.6034 60.6129C39.181 60.7261 39.3561 61.3829 39.7794 61.2695Z" fill="black"/>
</g>
<g id="Group_4">
<path id="Vector_11" d="M55.7235 56.9971C57.1641 56.6112 58.6044 56.2252 60.0449 55.8392C60.4673 55.726 60.2923 55.0692 59.869 55.1826C58.4285 55.5686 56.9881 55.9546 55.5476 56.3406C55.1252 56.4537 55.3003 57.1106 55.7235 56.9971Z" fill="black"/>
</g>
<g id="Group_5">
<path id="Vector_12" d="M73.1192 50.6889C77.8082 49.6124 82.3664 47.9672 86.6621 45.8011L73.1192 50.6889Z" fill="white"/>
<path id="Vector_13" d="M73.2075 51.0173C76.8711 50.1727 80.4498 48.9855 83.894 47.4779C84.8867 47.0435 85.8667 46.5812 86.8346 46.0944C87.2251 45.898 86.8805 45.3117 86.4902 45.508C83.1697 47.1786 79.6982 48.5381 76.1248 49.5627C75.101 49.8563 74.0693 50.1214 73.0314 50.3608C72.6052 50.4591 72.7816 51.1155 73.2075 51.0173Z" fill="black"/>
</g>
<g id="Group_6">
<path id="Vector_14" d="M21.7937 32.2943C26.5416 30.8211 31.3131 29.4241 36.1063 28.1055C37.4628 27.7324 38.8213 27.3656 40.1811 27.0048C40.604 26.8926 40.4285 26.2359 40.0051 26.3482C35.2002 27.623 30.4155 28.9747 25.6545 30.4048C24.307 30.8095 22.9616 31.2206 21.6178 31.6375C21.2011 31.7669 21.3749 32.4243 21.7937 32.2943Z" fill="#E5B798"/>
<path id="Vector_15" d="M31.6556 30.6549C33.3861 30.2602 35.1043 29.8143 36.8082 29.3179C37.2277 29.1956 37.0531 28.5387 36.6323 28.6613C34.9282 29.1578 33.2099 29.6034 31.4797 29.9983C31.0529 30.0958 31.2294 30.7522 31.6556 30.6549Z" fill="#E5B798"/>
<path id="Vector_16" d="M33.1432 32.6263C33.697 32.5077 34.2507 32.3891 34.8042 32.2706C34.9783 32.2333 35.098 32.0234 35.0445 31.8543C34.9865 31.6712 34.8148 31.5741 34.6283 31.614C34.0745 31.7326 33.5208 31.8512 32.9673 31.9697C32.7932 32.007 32.6735 32.2168 32.727 32.3859C32.785 32.5691 32.9567 32.6664 33.1432 32.6263Z" fill="#E5B798"/>
<path id="Vector_17" d="M59.2909 21.2852C61.4471 20.8475 63.5909 20.3523 65.7208 19.8004C66.1443 19.6907 65.9688 19.034 65.5448 19.1438C63.415 19.6958 61.2711 20.1909 59.1149 20.6286C58.686 20.7157 58.8634 21.3718 59.2909 21.2852Z" fill="#E5B798"/>
</g>
<g id="Group_7">
<path id="Vector_18" d="M74.3568 77.719C78.3527 76.1993 82.2868 74.5184 86.1463 72.6794C86.5407 72.4914 86.1954 71.9058 85.802 72.093C81.9969 73.9059 78.1202 75.5644 74.1806 77.0625C73.7759 77.2164 73.9476 77.8746 74.3568 77.719Z" fill="#603D24"/>
</g>
<path id="Vector_19" d="M91.4071 48.6025C90.352 51.5195 45.5027 65.9342 39.937 65.4292C35.8064 65.0535 33.4415 58.1363 31.4094 51.3926L87.3807 33.742C90.1396 40.8517 91.8986 47.2416 91.4071 48.6025Z" fill="#875838"/>
<g id="Group_8">
<path id="Vector_20" d="M45.9775 22.4104C45.9775 22.4104 52.5332 25.718 57.1216 35.9876C61.71 46.2572 64.2055 55.5703 64.2055 55.5703L71.3581 53.6538C71.3581 53.6538 65.7127 36.1611 61.9788 29.9744C58.2449 23.788 53.9318 20.3571 53.9318 20.3571C53.9318 20.3571 50.3291 20.173 45.9775 22.4104Z" fill="#E5B798"/>
<path id="Vector_21" d="M49.4865 23.6104C53.0594 26.5664 55.5191 30.5784 57.4042 34.765C57.9417 35.9583 58.4332 37.1712 58.8983 38.3942C59.0523 38.7991 59.7105 38.6274 59.5549 38.2182C57.8879 33.835 55.8602 29.5006 52.7883 25.9116C51.9271 24.9055 50.9852 23.9714 49.9645 23.1271C49.6303 22.8505 49.1484 23.3308 49.4865 23.6104Z" fill="#A36439"/>
<path id="Vector_22" d="M60.1965 41.3126C61.1738 44.4697 62.3003 47.5788 63.5723 50.6292C63.6434 50.7999 63.7937 50.9196 63.9885 50.8695C64.1481 50.8286 64.2996 50.6227 64.2289 50.4532C62.957 47.403 61.8304 44.2937 60.8531 41.1367C60.724 40.7197 60.0667 40.8937 60.1965 41.3126Z" fill="#A36439"/>
</g>
<g id="Group_9">
<path id="Vector_23" d="M72.32 55.605L73.6709 59.6997C73.8882 60.3581 73.5291 61.0708 72.8707 61.288L67.3751 63.1012C66.7167 63.3184 66.0043 62.9595 65.787 62.301L64.436 58.2064C64.2188 57.5479 64.5777 56.8353 65.2361 56.6181L70.7317 54.8049C71.3901 54.5875 72.1027 54.9466 72.32 55.605Z" fill="#E5B798"/>
<path id="Vector_24" d="M69.8384 53.303L62.5312 55.7139C61.3111 56.1164 60.6458 57.4335 61.049 58.6557L62.7977 63.9553C63.2009 65.1776 64.5194 65.84 65.7395 65.4375L73.0467 63.0266C74.2668 62.6241 74.9322 61.307 74.5289 60.0848L72.7803 54.7852C72.377 53.5629 71.0585 52.9005 69.8384 53.303ZM72.4065 60.117C72.6237 60.7754 72.2646 61.4881 71.6062 61.7054L66.1106 63.5185C65.4522 63.7357 64.7398 63.3768 64.5225 62.7184L63.1715 58.6237C62.9543 57.9653 63.3132 57.2527 63.9716 57.0354L69.4672 55.2223C70.1256 55.005 70.8382 55.3639 71.0555 56.0223L72.4065 60.117Z" fill="#FFE2CF"/>
<path id="Vector_25" d="M71.1031 52.8855L63.7959 55.2964C62.5758 55.6989 61.9104 57.016 62.3137 58.2382L64.0623 63.5379C64.4656 64.7601 65.7841 65.4225 67.0041 65.0201L74.3114 62.6091C75.5315 62.2067 76.1968 60.8895 75.7936 59.6673L74.0449 54.3677C73.6419 53.1454 72.3232 52.483 71.1031 52.8855ZM73.6711 59.6995C73.8883 60.358 73.5292 61.0707 72.8708 61.2879L67.3752 63.101C66.7168 63.3183 66.0044 62.9593 65.7872 62.3009L64.4362 58.2062C64.219 57.5478 64.5778 56.8352 65.2363 56.6179L70.7318 54.8048C71.3903 54.5876 72.1029 54.9465 72.3201 55.6049L73.6711 59.6995Z" fill="white"/>
</g>
<g id="Group_10">
<path id="Vector_26" d="M89.2769 57.1501C89.4559 57.7308 89.1277 58.3442 88.5464 58.521L87.1083 58.958C86.527 59.1348 85.912 58.8094 85.7349 58.2282L83.4735 50.7952C83.2966 50.214 83.6227 49.6012 84.204 49.4243L85.6443 48.9867C86.2234 48.8105 86.8384 49.1359 87.0152 49.7172L89.2769 57.1501Z" fill="#FFE2CF"/>
<path id="Vector_27" d="M48.6479 61.7947L50.9093 69.2276C51.0862 69.8089 50.7601 70.4217 50.1789 70.5986L48.7391 71.0383C48.16 71.2146 47.5445 70.8869 47.3676 70.3057L45.1068 62.8749C44.9299 62.2937 45.2554 61.6787 45.8367 61.5018L47.2748 61.0648C47.8561 60.888 48.4717 61.2157 48.6479 61.7947Z" fill="#FFE2CF"/>
</g>
</g>
</g>
</svg>
