<svg width="90" height="133" viewBox="0 0 90 133" fill="none" xmlns="http://www.w3.org/2000/svg">
<g id="Group">
<g id="Group_2" opacity="0.5">
<path id="Vector" d="M95.682 111.112L40.64 128.566C36.0413 130.024 31.1291 127.476 29.6714 122.877L4.62924 43.8994C3.17162 39.3007 5.71637 34.3889 10.3181 32.9308L65.3574 15.4773C69.9561 14.0197 74.8682 16.5672 76.3287 21.1658L101.368 100.144C102.829 104.743 100.281 109.655 95.682 111.112Z" fill="#F1664E"/>
<path id="Vector_2" d="M32.6065 31.2312L13.1359 36.9318C11.4786 37.417 10.4875 39.1109 10.8769 40.7935L29.2575 120.247C29.6675 122.02 31.4507 123.114 33.217 122.675L98.1089 106.568C99.9495 106.111 101.013 104.185 100.418 102.384L74.2822 23.2023C73.7404 21.5606 72.0108 20.6278 70.3412 21.0771L32.6065 31.2312Z" fill="#D8C9BF"/>
<path id="Vector_3" d="M31.0361 30.975L12.1138 38.2926C10.5031 38.9154 9.65821 40.6866 10.1873 42.3304L35.183 119.958C35.7408 121.69 37.6096 122.629 39.3326 122.044L102.64 100.537C104.436 99.9274 105.333 97.9188 104.59 96.1742L71.8891 19.4705C71.211 17.8801 69.4093 17.0961 67.7834 17.6844L31.0361 30.975Z" fill="#EEEAE7"/>
<path id="Vector_4" d="M30.6535 35.0887L12.5357 41.9057C10.9935 42.486 10.1759 44.1139 10.6719 45.6172L34.0926 116.609C34.6152 118.193 36.3946 119.043 38.0442 118.497L98.6433 98.416C100.362 97.8464 101.231 96.0004 100.531 94.4062L69.7448 24.306C69.1066 22.8526 67.39 22.1447 65.8336 22.6929L30.6535 35.0887Z" fill="#D8C9BF"/>
<path id="Vector_5" d="M27.3512 31.1462L10.0451 39.3345C8.5722 40.0314 7.89844 41.7705 8.50973 43.2992L37.3691 115.489C38.0132 117.1 39.8366 117.872 41.418 117.204L99.5229 92.6381C101.171 91.9413 101.877 89.973 101.058 88.3626L65.0099 17.5508C64.2625 16.0828 62.5126 15.4544 61.0232 16.1191L27.3512 31.1462Z" fill="white"/>
<path id="Vector_6" d="M63.0514 26.0251L78.3022 69.1435L25.8488 86.6723L20.6608 73.6947L63.0514 26.0251Z" fill="#EEEAE7"/>
<path id="Vector_7" d="M19.3618 32.4427C18.5552 32.6245 18.0197 33.3902 18.129 34.2097C18.6513 38.1352 19.9025 49.3384 18.6363 58.6728C17.7131 65.4768 16.5239 69.783 15.7041 72.1696C15.3243 73.2758 16.2251 74.3988 17.3877 74.2733L65.2213 69.1166C65.9887 69.0338 66.5878 68.4159 66.6438 67.646C66.8577 64.6907 67.2701 57.054 66.7384 47.244C66.1934 37.1898 63.586 27.7212 62.529 24.2298C62.2864 23.4281 61.4659 22.9524 60.6489 23.1367L19.3618 32.4427Z" fill="#BFC663"/>
<g id="Group_3">
<path id="Vector_8" d="M30.8016 87.1431C36.5651 85.2433 42.3181 83.3129 48.0606 81.3504C53.8032 79.3879 59.5344 77.3937 65.2549 75.3682C68.4816 74.2255 71.705 73.0728 74.925 71.9105C75.4939 71.7053 75.1131 70.8448 74.5448 71.0499C68.837 73.1106 63.1181 75.1403 57.3878 77.1384C51.6578 79.1365 45.9168 81.1032 40.1652 83.0382C36.9207 84.1297 33.6726 85.2112 30.4213 86.2828C29.8478 86.4716 30.2298 87.3313 30.8016 87.1431Z" fill="#D8C9BF"/>
<path id="Vector_9" d="M33.9431 95.3811C42.7207 92.4006 51.4645 89.3202 60.1715 86.139C62.6529 85.2324 65.1315 84.3174 67.6071 83.3948C68.1739 83.1835 67.7936 82.3229 67.2268 82.5342C58.5396 85.772 49.8156 88.9113 41.0563 91.9491C38.5615 92.8142 36.0635 93.6713 33.5628 94.5202C32.9907 94.7149 33.3725 95.5749 33.9431 95.3811Z" fill="#D8C9BF"/>
<path id="Vector_10" d="M40.2664 101.45C46.0201 99.5269 51.7524 97.5399 57.4614 95.4882C59.072 94.9095 60.6804 94.3254 62.2872 93.7365C62.8551 93.5285 62.4746 92.668 61.907 92.8759C56.2105 94.9634 50.4908 96.9879 44.7491 98.9474C43.1299 99.4998 41.5087 100.047 39.8858 100.59C39.3133 100.781 39.6953 101.641 40.2664 101.45Z" fill="#D8C9BF"/>
<path id="Vector_11" d="M68.4206 91.7437C73.6831 90.0066 78.9211 88.1961 84.1331 86.3127C84.702 86.1071 84.3211 85.2469 83.7528 85.4521C78.5408 87.3355 73.3028 89.146 68.0404 90.8831C67.4669 91.0726 67.8493 91.9325 68.4206 91.7437Z" fill="#D8C9BF"/>
<path id="Vector_12" d="M40.408 108.601C45.6705 106.864 50.9085 105.054 56.1205 103.17C56.6893 102.965 56.3085 102.104 55.7402 102.31C50.5282 104.193 45.2902 106.003 40.0278 107.741C39.4543 107.93 39.8363 108.79 40.408 108.601Z" fill="#D8C9BF"/>
</g>
<g id="Group_4">
<g id="Group_5">
<path id="Vector_13" d="M20.2159 70.6865C26.7165 69.7499 33.2168 68.8133 39.7175 67.8767C40.3167 67.7902 40.1796 66.8598 39.5798 66.9463C33.0792 67.8829 26.5789 68.8195 20.0782 69.7561C19.479 69.8426 19.6161 70.7731 20.2159 70.6865Z" fill="#8AAA4C"/>
<path id="Vector_14" d="M41.9406 67.4953C47.6686 66.6787 53.3725 65.6993 59.045 64.5591C59.6362 64.4402 59.5022 63.509 58.9073 63.6287C53.2349 64.7692 47.5309 65.7483 41.8029 66.5649C41.2036 66.6504 41.3407 67.5809 41.9406 67.4953Z" fill="#8AAA4C"/>
<path id="Vector_15" d="M27.8181 65.1663C32.5828 64.8175 37.3361 64.3296 42.0724 63.7035C42.6726 63.6242 42.5352 62.6937 41.9347 62.7731C37.1987 63.3991 32.4451 63.8868 27.6804 64.2359C27.0766 64.28 27.2171 65.2103 27.8181 65.1663Z" fill="#8AAA4C"/>
</g>
</g>
<path id="Vector_16" d="M23.4092 35.3713C23.4092 35.3713 39.0107 62.9126 41.2786 63.0261C43.5462 63.1396 66.9937 55.5878 66.9937 55.5878C66.9937 55.5878 67.1951 47.0955 65.6812 40.6601C64.1673 34.2246 61.1585 32.6983 61.1585 32.6983L23.4092 35.3713Z" fill="#8AAA4D"/>
<path id="Vector_17" d="M27.7352 31.157L22.7696 33.915C21.9236 34.3851 21.6081 35.4446 22.0597 36.3007L34.1612 59.2448C34.6277 60.1291 35.7307 60.4555 36.6033 59.9679L68.2058 42.3009C69.1814 41.7556 69.4186 40.456 68.6982 39.6014L53.8762 22.0118C53.3822 21.4254 52.5676 21.2214 51.8555 21.5062L27.939 31.0606C27.8692 31.088 27.8011 31.1203 27.7352 31.157Z" fill="#4692C6"/>
<g id="Group_6">
<path id="Vector_18" d="M31.0546 26.6138L28.7333 16.7505C28.6781 16.5169 28.4712 16.3564 28.2294 16.3608C26.1071 16.4001 24.8542 15.4487 24.7928 13.7505C24.7308 12.0512 26.875 10.6864 28.1588 10.0242C30.6018 8.7636 33.8946 7.95813 35.1862 8.94879C35.8086 9.4262 36.1625 10.0508 36.2103 10.7549C36.3039 12.1409 35.2073 13.4666 34.5456 14.1331C34.3929 14.2872 34.3572 14.5213 34.4567 14.7161L39.2028 23.9759L38.1777 24.5012L33.4318 15.2414C33.1043 14.6021 33.2228 13.8309 33.728 13.3217C34.6213 12.4216 35.107 11.5143 35.0612 10.8321C35.0358 10.4574 34.8472 10.1402 34.4854 9.86256C33.8347 9.36304 31.1598 9.77186 28.6874 11.0476C26.9938 11.9216 25.9171 12.9661 25.944 13.7088C25.9809 14.7315 26.743 15.2364 28.2086 15.2093C28.9975 15.1946 29.6745 15.7201 29.8552 16.4866L32.1765 26.3499L31.0546 26.6138Z" fill="#908BAF"/>
<path id="Vector_19" d="M25.9069 34.2951L23.3796 27.8435C23.04 26.9769 23.4902 26.0017 24.3704 25.6981L44.3724 18.7978C45.274 18.4869 46.2497 19.009 46.4909 19.932L48.0734 25.9891C48.2845 26.7967 47.8541 27.634 47.0746 27.9322L28.0174 35.227C27.1773 35.5488 26.235 35.1327 25.9069 34.2951Z" fill="#46435B"/>
</g>
<path id="Vector_20" d="M26.9307 39.7408L33.0639 49.4517C33.4195 50.0145 34.1504 50.2059 34.736 49.8888L49.1352 42.098C49.7948 41.7412 50.001 40.8921 49.5788 40.2725L44.0812 32.2059C43.7448 31.7124 43.1093 31.5213 42.5568 31.7472L27.522 37.894C26.7933 38.1914 26.5105 39.0753 26.9307 39.7408Z" fill="white"/>
</g>
</g>
</svg>
