<svg width="127" height="58" viewBox="0 0 127 58" fill="none" xmlns="http://www.w3.org/2000/svg">
<g id="Object" opacity="0.5">
<g id="Group">
<path id="Vector" d="M46.6436 14.5867C20.883 21.4893 5.79381 48.7077 12.9409 75.381C20.088 102.054 46.7649 118.082 72.5255 111.179C98.2864 104.277 113.375 77.058 106.228 50.3847C99.0813 23.7113 72.4042 7.68419 46.6436 14.5867ZM70.3635 103.111C48.9071 108.86 26.6879 95.5077 20.7355 73.2927C14.783 51.0778 27.3493 28.4049 48.8057 22.6557C70.2623 16.9064 92.4812 30.2586 98.4337 52.4736C104.386 74.6885 91.8199 97.3614 70.3635 103.111Z" fill="#645D7F"/>
<path id="Vector_2" d="M54.4385 12.4979C28.6779 19.4004 13.5887 46.6188 20.7358 73.2921C27.8829 99.9655 54.5598 115.993 80.3204 109.09C106.081 102.188 121.17 74.9692 114.023 48.2958C106.876 21.6225 80.1994 5.59526 54.4385 12.4979ZM78.1584 101.022C56.702 106.771 34.4829 93.4188 28.5304 71.2039C22.5779 48.9889 35.1442 26.316 56.6006 20.5668C78.0573 14.8175 100.276 28.1698 106.229 50.3847C112.181 72.5996 99.6151 95.2725 78.1584 101.022Z" fill="#908BAF"/>
<path id="Vector_3" d="M56.0546 18.5324C33.5128 24.5725 20.3084 48.3911 26.5624 71.7314C32.8164 95.0717 56.1611 109.097 78.7029 103.057C101.245 97.0169 114.449 73.1983 108.195 49.858C101.941 26.5177 78.5964 12.4924 56.0546 18.5324ZM78.1577 101.022C56.7013 106.771 34.4821 93.4192 28.5296 71.2043C22.5772 48.9894 35.1435 26.3165 56.5998 20.5672C78.0565 14.8179 100.275 28.1702 106.228 50.3851C112.18 72.6001 99.6144 95.2729 78.1577 101.022Z" fill="#645D7F"/>
<path id="Vector_4" d="M106.228 50.385C106.593 51.7446 106.888 53.1063 107.116 54.4629C110.536 74.8615 98.8259 94.7471 79.4494 100.65C79.0227 100.784 78.5927 100.906 78.1581 101.022C78.075 101.044 77.9887 101.067 77.9044 101.087C76.6726 101.41 75.4396 101.668 74.2071 101.866C73.672 101.953 73.1366 102.027 72.601 102.088C54.3037 104.248 36.5182 93.1608 29.8 75.1794C29.3191 73.8906 28.8943 72.5635 28.5299 71.2039C28.425 70.8124 28.3272 70.4222 28.2323 70.0313C23.4799 50.1122 33.4641 30.0743 51.2549 22.4222C51.749 22.2071 52.25 22.0036 52.7569 21.8116C53.9231 21.3671 55.1198 20.9737 56.3485 20.6377C56.4311 20.6124 56.5174 20.5893 56.6005 20.567C57.0354 20.4505 57.4685 20.3411 57.9051 20.2439C78.5733 15.4494 99.6262 28.1491 105.9 49.2206C106.013 49.6066 106.123 49.9935 106.228 50.385Z" fill="white"/>
<path id="Vector_5" d="M106.228 50.385C106.593 51.7452 106.888 53.1065 107.117 54.4622C107.948 59.4075 107.888 64.3207 107.041 69.0141C97.4291 57.6284 82.2789 51.9429 67.3299 55.413C66.8931 55.5097 66.4593 55.6172 66.0222 55.7343C65.9407 55.7562 65.8539 55.7795 65.7711 55.8074C64.5427 56.1424 63.3474 56.5354 62.1801 56.9792C61.6734 57.1731 61.1716 57.3745 60.6796 57.5907C48.1741 62.9697 39.5255 74.4676 37.1402 87.7411C34.0607 84.0997 31.5523 79.8746 29.7995 75.1793C29.3204 73.8907 28.8951 72.5642 28.5307 71.2041C28.4259 70.8131 28.3273 70.4234 28.2341 70.0323C23.481 50.1108 33.4649 30.0756 51.2561 22.4219C51.7489 22.2084 52.25 22.0043 52.7574 21.8131C53.9239 21.3666 55.1193 20.9736 56.3477 20.6386C56.4311 20.6134 56.518 20.5901 56.5994 20.5683C57.0365 20.4511 57.4697 20.3409 57.9064 20.2442C78.5731 15.4486 99.6269 28.1479 105.899 49.222C106.014 49.6073 106.124 49.9941 106.228 50.385Z" fill="#EEEAE7"/>
<path id="Vector_6" d="M82.3596 56.2647C79.7852 47.619 71.1485 42.4084 62.6677 44.3767C62.4863 44.4154 62.3099 44.4595 62.131 44.5074C62.097 44.5165 62.0601 44.5264 62.027 44.5385C61.5252 44.6761 61.0332 44.838 60.5531 45.0193C60.346 45.098 60.1409 45.1827 59.9392 45.2696C52.6379 48.4091 48.5392 56.6321 50.491 64.8036C50.5307 64.9649 50.5707 65.1259 50.6136 65.2864C50.7632 65.8445 50.9358 66.3899 51.1336 66.9183C53.8902 74.2957 61.1902 78.8466 68.6981 77.9583C68.916 77.9331 69.1363 77.9038 69.3549 77.8682C69.8614 77.7854 70.3684 77.6793 70.8717 77.5476C70.9065 77.5415 70.9434 77.5316 70.9773 77.5225C71.1562 77.4746 71.3311 77.4245 71.5075 77.3673C79.4574 74.9465 84.264 66.7882 82.8603 58.4168C82.7673 57.86 82.6441 57.3015 82.4946 56.7436C82.4515 56.5837 82.4056 56.4244 82.3596 56.2647ZM81.7822 58.5872C83.0936 66.4049 78.6064 74.0283 71.1788 76.2894C71.0171 76.3395 70.8512 76.3871 70.6848 76.4317L70.5892 76.4573C70.1165 76.5808 69.6435 76.6779 69.1717 76.7545C68.9664 76.7897 68.7594 76.8187 68.5538 76.8407C61.5418 77.6688 54.7263 73.421 52.1518 66.5267C51.967 66.0344 51.8043 65.526 51.6647 65.005C51.6242 64.8541 51.5877 64.705 51.5511 64.5562C49.73 56.9214 53.5584 49.2435 60.3729 46.3103C60.5621 46.2268 60.7558 46.1484 60.9511 46.076C61.3981 45.9067 61.8562 45.754 62.3273 45.6246L62.4229 45.599C62.5893 45.5544 62.7568 45.5127 62.9219 45.4751C70.8428 43.637 78.9117 48.504 81.3169 56.5802C81.3595 56.7274 81.4022 56.8745 81.4427 57.0257C81.5829 57.5469 81.6962 58.0685 81.7822 58.5872Z" fill="#D8C9BF"/>
<path id="Vector_7" d="M106.229 50.3851C112.182 72.6001 99.6153 95.273 78.1589 101.022C77.2 101.279 76.2374 101.497 75.2779 101.678C94.9946 94.7759 106.209 73.1364 100.522 51.9143C94.8356 30.6922 74.3043 17.5588 53.778 21.4395C54.6994 21.1166 55.6421 20.8242 56.601 20.5672C78.0577 14.8179 100.277 28.1702 106.229 50.3851Z" fill="#D8C9BF"/>
<path id="Vector_8" d="M88.9218 73.7977L70.5527 63.1923C70.8287 62.1677 70.8522 61.053 70.5549 59.9437C69.9144 57.5533 67.9905 55.8672 65.7691 55.4649L61.5599 39.756C61.3269 38.8864 60.433 38.3706 59.5636 38.6035L57.9893 39.0253C57.1197 39.2583 56.6038 40.152 56.8368 41.0216L61.046 56.7305C59.3232 58.1896 58.5002 60.6117 59.1407 63.0022C60.0152 66.266 63.2794 68.227 66.4314 67.3824C66.7721 67.2911 67.094 67.1656 67.4023 67.0196L86.4771 78.0324C87.2568 78.4825 88.2537 78.2154 88.7039 77.4357L89.5187 76.0241C89.9686 75.2445 89.7015 74.2478 88.9218 73.7977Z" fill="#46435B"/>
<g id="Group_2">
<path id="Vector_9" d="M67.9449 59.7569C68.8142 59.5239 69.3305 58.6302 69.0974 57.7606L64.0912 39.0772C63.8582 38.2077 62.9643 37.6918 62.095 37.9247L60.5207 38.3466C59.6511 38.5796 59.1351 39.4732 59.3681 40.3428L64.3743 59.0262C64.6073 59.8958 65.501 60.4117 66.3706 60.1787L67.9449 59.7569Z" fill="#645D7F"/>
<path id="Vector_10" d="M91.4534 73.1193L70.6533 61.1104C69.8736 60.6602 68.8767 60.9273 68.4265 61.707L67.6115 63.1187C67.1613 63.8984 67.4285 64.8953 68.2081 65.3452L89.0082 77.3541C89.7878 77.8043 90.7848 77.5372 91.2349 76.7575L92.0497 75.3459C92.5001 74.5661 92.2331 73.5694 91.4534 73.1193Z" fill="#645D7F"/>
</g>
<path id="Vector_11" d="M68.963 66.7042C72.1151 65.8596 73.9614 62.5292 73.0868 59.2654C72.2123 56.0017 68.9482 54.0406 65.7961 54.8852C62.6441 55.7298 60.7978 59.0602 61.6723 62.3239C62.5468 65.5877 65.811 67.5488 68.963 66.7042Z" fill="#908BAF"/>
<path id="Vector_12" d="M68.1086 63.514C69.5593 63.1253 70.409 61.5925 70.0065 60.0904C69.604 58.5883 68.1017 57.6857 66.6511 58.0744C65.2004 58.4631 64.3507 59.9959 64.7532 61.498C65.1557 63.0001 66.6579 63.9027 68.1086 63.514Z" fill="#645D7F"/>
<g id="Group_3">
<g id="Group_4">
<g id="Group_5">
<path id="Vector_13" d="M56.3476 20.638L58.0916 27.1467C58.4031 28.309 57.8997 29.5016 56.9344 30.117C56.7075 30.2572 56.4601 30.3698 56.1889 30.4424C54.7551 30.8266 53.2776 29.9733 52.8934 28.5396L51.2543 22.4224C51.7484 22.2073 52.2494 22.0039 52.7563 21.8119C53.9224 21.367 55.1191 20.9736 56.3476 20.638Z" fill="#46435B"/>
<path id="Vector_14" d="M57.9048 20.2438L59.643 26.7311C60.0272 28.1648 59.1772 29.6417 57.7435 30.0259C57.4723 30.0986 57.2025 30.1278 56.9353 30.1167C55.7892 30.0703 54.7595 29.2853 54.4481 28.123L52.7569 21.8114C53.923 21.3669 55.1197 20.9735 56.3485 20.6375C56.431 20.6122 56.5173 20.5891 56.6004 20.5668C57.0348 20.4504 57.4681 20.341 57.9048 20.2438Z" fill="#645D7F"/>
</g>
</g>
<g id="Group_6">
<g id="Group_7">
<path id="Vector_15" d="M106.228 50.3851C106.593 51.7448 106.888 53.1065 107.116 54.4631L98.4676 56.7805C97.0339 57.1646 95.5571 56.3144 95.1722 54.8776C94.788 53.4439 95.642 51.9691 97.0755 51.585L105.9 49.2205C106.013 49.6068 106.123 49.9937 106.228 50.3851Z" fill="#46435B"/>
</g>
<g id="Group_8">
<g id="Group_9">
<path id="Vector_16" d="M106.228 50.3849C106.593 51.7445 106.888 53.1063 107.116 54.4629L100.752 56.1681C99.3153 56.5531 97.8413 55.702 97.4563 54.2653C97.0722 52.8316 97.9232 51.3576 99.3599 50.9726L105.9 49.2203C106.013 49.6065 106.123 49.9934 106.228 50.3849Z" fill="#645D7F"/>
</g>
</g>
</g>
</g>
<g id="Group_10">
<path id="Vector_17" d="M52.8479 44.0355C49.0039 47.4006 46.6795 52.3568 46.3848 57.4427C46.3013 58.8856 46.3938 60.3323 46.6448 61.7555C46.7391 62.2898 47.553 62.0685 47.4593 61.5372C46.612 56.7375 47.8519 51.6693 50.6593 47.7058C51.4615 46.5731 52.4032 45.5427 53.4471 44.6289C53.8556 44.2715 53.2552 43.6791 52.8479 44.0355Z" fill="#B7A192"/>
<path id="Vector_18" d="M65.5165 23.2426C69.8581 23.6276 74.0798 25.2721 77.5305 27.937C77.9543 28.2643 78.5535 27.6693 78.1235 27.3376C74.4846 24.5272 70.1037 22.8055 65.5224 22.3992C64.9812 22.3513 64.9794 23.1951 65.5165 23.2426Z" fill="#B7A192"/>
<path id="Vector_19" d="M80.7343 29.8364C83.7617 32.1169 86.395 34.9118 88.5022 38.061C88.8022 38.5096 89.5325 38.0867 89.2296 37.6339C87.0358 34.3552 84.3062 31.4789 81.156 29.1059C80.7227 28.78 80.3056 29.5136 80.7343 29.8364Z" fill="#B7A192"/>
</g>
</g>
</g>
</svg>
