<svg width="19" height="18" viewBox="0 0 19 18" fill="none" xmlns="http://www.w3.org/2000/svg">
<g id="Frame" clip-path="url(#clip0_98_46)">
<path id="Vector" d="M6.55042 5.41125L7.15792 7.03125H5.94291L6.55042 5.41125ZM8.22385 6.71063C8.92417 5.79094 9.93104 5.12437 11.177 4.77844C10.4429 3.18094 8.80885 2.25 6.55042 2.25C3.42573 2.25 1.48792 4.0275 1.48792 6.89062C1.48792 8.35031 1.99417 9.52594 2.9026 10.3275L1.48792 11.7422L1.90979 12.375C3.05167 12.375 4.10354 11.9925 4.9501 11.3541C5.43948 11.4694 5.97385 11.5312 6.55042 11.5312C6.78104 11.5312 7.00323 11.5172 7.2226 11.5003C7.15229 11.1094 7.11292 10.6987 7.11292 10.2656C7.11292 9.49781 7.23385 8.79469 7.45604 8.15625H5.52104L5.20604 9H4.01917L5.70667 4.5H7.39417L8.22385 6.71063ZM13.3004 10.4963C13.5789 10.2431 13.8179 9.93656 13.9754 9.5625H12.6282C12.7857 9.93656 13.0248 10.2431 13.3032 10.4963H13.3004ZM16.9482 13.7025L18.3629 15.1172L17.941 15.75C16.7992 15.75 15.7473 15.3675 14.9007 14.7291C14.4114 14.8444 13.877 14.9062 13.3004 14.9062C10.1757 14.9062 8.23792 13.1287 8.23792 10.2656C8.23792 7.4025 10.1757 5.625 13.3004 5.625C16.4251 5.625 18.3629 7.4025 18.3629 10.2656C18.3629 11.7253 17.8567 12.9009 16.9482 13.7025ZM15.8317 8.4375H13.8629V7.59375H12.7379V8.4375H10.7692V9.5625H11.4695C11.6326 10.1166 11.942 10.6481 12.3751 11.115C11.5989 11.4975 10.862 11.6044 10.862 11.6044L11.2557 12.6591C12.0376 12.5184 12.721 12.2428 13.2976 11.8772C13.8742 12.2428 14.5604 12.5212 15.3395 12.6591L15.7332 11.6044C15.7332 11.6044 14.9964 11.4975 14.2201 11.115C14.656 10.6481 14.9626 10.1166 15.1257 9.5625H15.826V8.4375H15.8317Z" fill="#0A4020"/>
</g>
<defs>
<clipPath id="clip0_98_46">
<rect width="18" height="18" fill="white" transform="translate(0.925415)"/>
</clipPath>
</defs>
</svg>
