<svg width="44" height="36" viewBox="0 0 44 36" fill="none" xmlns="http://www.w3.org/2000/svg">
<path id="Icon" d="M3.08333 26.585V8.25166C3.08333 5.91811 3.08333 4.75133 3.53747 3.86003C3.93695 3.07602 4.57436 2.4386 5.35837 2.03913C6.24967 1.58499 7.41645 1.58499 9.75 1.58499H33.9167C36.2502 1.58499 37.417 1.58499 38.3083 2.03913C39.0923 2.4386 39.7297 3.07602 40.1292 3.86003C40.5833 4.75133 40.5833 5.91811 40.5833 8.25166V26.585H29.464C28.9545 26.585 28.6997 26.585 28.4599 26.6426C28.2474 26.6936 28.0441 26.7778 27.8577 26.892C27.6475 27.0208 27.4673 27.201 27.107 27.5613L26.9763 27.692C26.616 28.0523 26.4358 28.2325 26.2256 28.3613C26.0392 28.4756 25.836 28.5597 25.6234 28.6108C25.3836 28.6683 25.1289 28.6683 24.6193 28.6683H19.0474C18.5378 28.6683 18.283 28.6683 18.0433 28.6108C17.8307 28.5597 17.6275 28.4756 17.4411 28.3613C17.2308 28.2325 17.0507 28.0523 16.6904 27.692L16.5596 27.5613C16.1993 27.201 16.0192 27.0208 15.8089 26.892C15.6225 26.7778 15.4193 26.6936 15.2067 26.6426C14.967 26.585 14.7122 26.585 14.2026 26.585H3.08333ZM3.08333 26.585C1.93274 26.585 1 27.5177 1 28.6683V29.3628C1 30.6544 1 31.3002 1.14198 31.8301C1.52726 33.268 2.65037 34.3911 4.08825 34.7763C4.61811 34.9183 5.26393 34.9183 6.55555 34.9183H37.1111C38.4027 34.9183 39.0486 34.9183 39.5784 34.7763C41.0163 34.3911 42.1394 33.268 42.5247 31.8301C42.6667 31.3002 42.6667 30.6544 42.6667 29.3628C42.6667 28.717 42.6667 28.394 42.5957 28.1291C42.403 27.4102 41.8415 26.8486 41.1225 26.656C40.8576 26.585 40.5347 26.585 39.8889 26.585H38.5" stroke="black" stroke-width="2" stroke-linecap="round" stroke-linejoin="round"/>
</svg>
