<svg width="30" height="30" viewBox="0 0 30 30" fill="none" xmlns="http://www.w3.org/2000/svg">
<g id="wifi-off">
<path id="Icon" d="M18.889 12.5985C20.4958 13.0991 22.0013 13.9126 23.3136 15.0057M27.4234 10.8371C23.9918 7.8122 19.5744 6.14323 14.9999 6.14323C14.2895 6.14323 13.5829 6.18348 12.8831 6.26282M10.9251 19.186C12.1172 18.3391 13.5433 17.8841 15.0056 17.8841C16.4679 17.8841 17.894 18.3391 19.0861 19.186M15 23.7538H15.0118M2.31039 11.0729C3.87637 9.63786 5.68638 8.46485 7.67098 7.62328M6.46554 15.2323C8.10643 13.7868 10.1172 12.7513 12.3376 12.286M19.3427 19.3799C18.1461 18.4418 16.6383 17.8826 14.9999 17.8826C13.3367 17.8826 11.8081 18.4589 10.6029 19.4227M4.43183 4.37878L25.5682 25.5151" stroke="#0F6326" stroke-width="2" stroke-linecap="round" stroke-linejoin="round"/>
</g>
</svg>
