<svg width="317" height="175" viewBox="0 0 317 175" fill="none" xmlns="http://www.w3.org/2000/svg">
<rect x="0.5" y="0.947021" width="211" height="173" rx="11.5" fill="#FBFBFB"/>
<rect x="0.5" y="0.947021" width="211" height="173" rx="11.5" stroke="#F0F0F0"/>
<rect x="24" y="24.447" width="48" height="48" rx="24" fill="#F1F2DE"/>
<path d="M39 52.447V43.647C39 42.5269 39 41.9669 39.218 41.539C39.4097 41.1627 39.7157 40.8568 40.092 40.665C40.5198 40.447 41.0799 40.447 42.2 40.447H53.8C54.9201 40.447 55.4802 40.447 55.908 40.665C56.2843 40.8568 56.5903 41.1627 56.782 41.539C57 41.9669 57 42.5269 57 43.647V52.447H51.6627C51.4182 52.447 51.2959 52.447 51.1808 52.4747C51.0787 52.4991 50.9812 52.5396 50.8917 52.5944C50.7908 52.6562 50.7043 52.7427 50.5314 52.9157L50.4686 52.9784C50.2957 53.1513 50.2092 53.2378 50.1083 53.2997C50.0188 53.3545 49.9213 53.3949 49.8192 53.4194C49.7041 53.447 49.5818 53.447 49.3373 53.447H46.6627C46.4182 53.447 46.2959 53.447 46.1808 53.4194C46.0787 53.3949 45.9812 53.3545 45.8917 53.2997C45.7908 53.2378 45.7043 53.1513 45.5314 52.9784L45.4686 52.9157C45.2957 52.7427 45.2092 52.6562 45.1083 52.5944C45.0188 52.5396 44.9213 52.4991 44.8192 52.4747C44.7041 52.447 44.5818 52.447 44.3373 52.447H39ZM39 52.447C38.4477 52.447 38 52.8947 38 53.447V53.7804C38 54.4003 38 54.7103 38.0681 54.9647C38.2531 55.6548 38.7922 56.1939 39.4824 56.3789C39.7367 56.447 40.0467 56.447 40.6667 56.447H55.3333C55.9533 56.447 56.2633 56.447 56.5176 56.3789C57.2078 56.1939 57.7469 55.6548 57.9319 54.9647C58 54.7103 58 54.4003 58 53.7804C58 53.4704 58 53.3154 57.9659 53.1882C57.8735 52.8431 57.6039 52.5736 57.2588 52.4811C57.1317 52.447 56.9767 52.447 56.6667 52.447H56" stroke="black" stroke-width="2" stroke-linecap="round" stroke-linejoin="round"/>
<path d="M25.824 105.447H24.192L28.416 93.879H30.16L34.4 105.447H32.752L31.712 102.567H26.848L25.824 105.447ZM29.088 96.375L27.328 101.207H31.248L29.472 96.375C29.44 96.2577 29.4027 96.1404 29.36 96.023C29.3173 95.895 29.2907 95.7884 29.28 95.703C29.2587 95.7884 29.232 95.895 29.2 96.023C29.168 96.1404 29.1307 96.2577 29.088 96.375ZM34.5373 101.543C34.5373 100.722 34.6973 100.002 35.0173 99.383C35.3479 98.7644 35.8013 98.279 36.3773 97.927C36.9533 97.575 37.6199 97.399 38.3773 97.399C39.3586 97.399 40.1746 97.6604 40.8253 98.183C41.4759 98.7057 41.8653 99.399 41.9933 100.263H40.4893C40.3613 99.7617 40.1106 99.383 39.7373 99.127C39.3639 98.871 38.9266 98.743 38.4253 98.743C37.9559 98.743 37.5399 98.8604 37.1773 99.095C36.8146 99.319 36.5319 99.639 36.3293 100.055C36.1266 100.471 36.0253 100.962 36.0253 101.527C36.0253 102.092 36.1213 102.583 36.3133 102.999C36.5053 103.404 36.7773 103.724 37.1293 103.959C37.4813 104.183 37.8919 104.295 38.3613 104.295C38.8946 104.295 39.3533 104.162 39.7373 103.895C40.1213 103.628 40.3773 103.266 40.5053 102.807H42.0093C41.9133 103.372 41.6946 103.868 41.3533 104.295C41.0226 104.711 40.5959 105.042 40.0733 105.287C39.5613 105.522 38.9906 105.639 38.3613 105.639C37.5933 105.639 36.9213 105.468 36.3453 105.127C35.7799 104.786 35.3373 104.311 35.0173 103.703C34.6973 103.084 34.5373 102.364 34.5373 101.543ZM42.4441 97.623H46.9881V98.887H42.4441V97.623ZM46.9241 104.135L47.1161 105.383C46.7108 105.543 46.2788 105.623 45.8201 105.623C45.3615 105.623 44.9721 105.538 44.6521 105.367C44.3321 105.186 44.0868 104.919 43.9161 104.567C43.7455 104.215 43.6601 103.778 43.6601 103.255V95.175H45.1641V103.047C45.1641 103.495 45.2548 103.815 45.4361 104.007C45.6281 104.188 45.8735 104.279 46.1721 104.279C46.4068 104.279 46.6575 104.231 46.9241 104.135ZM48.3468 105.447V97.623H49.8508V105.447H48.3468ZM49.0828 95.767C48.8161 95.767 48.5814 95.671 48.3788 95.479C48.1868 95.2764 48.0908 95.0417 48.0908 94.775C48.0908 94.4977 48.1868 94.263 48.3788 94.071C48.5814 93.879 48.8161 93.783 49.0828 93.783C49.3601 93.783 49.5948 93.879 49.7868 94.071C49.9788 94.263 50.0748 94.4977 50.0748 94.775C50.0748 95.0417 49.9788 95.2764 49.7868 95.479C49.5948 95.671 49.3601 95.767 49.0828 95.767ZM53.9062 105.447L50.7542 97.623H52.3542L54.0662 101.991C54.2049 102.354 54.3276 102.7 54.4342 103.031C54.5409 103.351 54.6262 103.628 54.6902 103.863C54.7649 103.596 54.8556 103.303 54.9622 102.983C55.0796 102.663 55.2076 102.332 55.3462 101.991L57.0902 97.623H58.6582L55.3942 105.447H53.9062ZM62.5515 105.639C61.7942 105.639 61.1222 105.468 60.5355 105.127C59.9488 104.775 59.4902 104.295 59.1595 103.687C58.8288 103.068 58.6635 102.354 58.6635 101.543C58.6635 100.722 58.8235 100.002 59.1435 99.383C59.4742 98.7644 59.9222 98.279 60.4875 97.927C61.0635 97.575 61.7302 97.399 62.4875 97.399C63.2342 97.399 63.8795 97.559 64.4235 97.879C64.9782 98.199 65.4048 98.647 65.7035 99.223C66.0128 99.799 66.1675 100.476 66.1675 101.255V101.815L59.4635 101.831L59.4955 100.823H64.6635C64.6635 100.172 64.4662 99.6497 64.0715 99.255C63.6768 98.8604 63.1488 98.663 62.4875 98.663C61.9862 98.663 61.5542 98.775 61.1915 98.999C60.8395 99.2124 60.5675 99.5324 60.3755 99.959C60.1942 100.375 60.1035 100.876 60.1035 101.463C60.1035 102.402 60.3168 103.127 60.7435 103.639C61.1702 104.14 61.7835 104.391 62.5835 104.391C63.1702 104.391 63.6502 104.274 64.0235 104.039C64.3968 103.804 64.6475 103.463 64.7755 103.015H66.1835C65.9915 103.847 65.5808 104.492 64.9515 104.951C64.3222 105.41 63.5222 105.639 62.5515 105.639ZM70.7504 97.623H75.2944V98.887H70.7504V97.623ZM75.2304 104.135L75.4224 105.383C75.017 105.543 74.585 105.623 74.1264 105.623C73.6677 105.623 73.2784 105.538 72.9584 105.367C72.6384 105.186 72.393 104.919 72.2224 104.567C72.0517 104.215 71.9664 103.778 71.9664 103.255V95.175H73.4704V103.047C73.4704 103.495 73.561 103.815 73.7424 104.007C73.9344 104.188 74.1797 104.279 74.4784 104.279C74.713 104.279 74.9637 104.231 75.2304 104.135ZM76.653 105.447V97.623H78.157V105.447H76.653ZM77.389 95.767C77.1223 95.767 76.8877 95.671 76.685 95.479C76.493 95.2764 76.397 95.0417 76.397 94.775C76.397 94.4977 76.493 94.263 76.685 94.071C76.8877 93.879 77.1223 93.783 77.389 93.783C77.6663 93.783 77.901 93.879 78.093 94.071C78.285 94.263 78.381 94.4977 78.381 94.775C78.381 95.0417 78.285 95.2764 78.093 95.479C77.901 95.671 77.6663 95.767 77.389 95.767ZM81.5245 105.447H80.0205V97.623H81.3645L81.5725 99.063L81.3805 98.935C81.5405 98.4977 81.8338 98.135 82.2605 97.847C82.6978 97.5484 83.2258 97.399 83.8445 97.399C84.5378 97.399 85.1138 97.5857 85.5725 97.959C86.0312 98.3324 86.3298 98.8284 86.4685 99.447H86.1965C86.3032 98.8284 86.5965 98.3324 87.0765 97.959C87.5565 97.5857 88.1485 97.399 88.8525 97.399C89.7485 97.399 90.4525 97.6604 90.9645 98.183C91.4765 98.7057 91.7325 99.4204 91.7325 100.327V105.447H90.2605V100.695C90.2605 100.076 90.1005 99.6017 89.7805 99.271C89.4712 98.9297 89.0498 98.759 88.5165 98.759C88.1432 98.759 87.8125 98.8444 87.5245 99.015C87.2472 99.175 87.0285 99.4097 86.8685 99.719C86.7085 100.028 86.6285 100.391 86.6285 100.807V105.447H85.1405V100.679C85.1405 100.06 84.9858 99.591 84.6765 99.271C84.3672 98.9404 83.9458 98.775 83.4125 98.775C83.0392 98.775 82.7085 98.8604 82.4205 99.031C82.1432 99.191 81.9245 99.4257 81.7645 99.735C81.6045 100.034 81.5245 100.391 81.5245 100.807V105.447ZM96.8734 105.639C96.116 105.639 95.444 105.468 94.8574 105.127C94.2707 104.775 93.812 104.295 93.4814 103.687C93.1507 103.068 92.9854 102.354 92.9854 101.543C92.9854 100.722 93.1454 100.002 93.4654 99.383C93.796 98.7644 94.244 98.279 94.8094 97.927C95.3854 97.575 96.052 97.399 96.8094 97.399C97.556 97.399 98.2014 97.559 98.7454 97.879C99.3 98.199 99.7267 98.647 100.025 99.223C100.335 99.799 100.489 100.476 100.489 101.255V101.815L93.7854 101.831L93.8174 100.823H98.9854C98.9854 100.172 98.788 99.6497 98.3934 99.255C97.9987 98.8604 97.4707 98.663 96.8094 98.663C96.308 98.663 95.876 98.775 95.5134 98.999C95.1614 99.2124 94.8894 99.5324 94.6974 99.959C94.516 100.375 94.4254 100.876 94.4254 101.463C94.4254 102.402 94.6387 103.127 95.0654 103.639C95.492 104.14 96.1054 104.391 96.9054 104.391C97.492 104.391 97.972 104.274 98.3454 104.039C98.7187 103.804 98.9694 103.463 99.0974 103.015H100.505C100.313 103.847 99.9027 104.492 99.2734 104.951C98.644 105.41 97.844 105.639 96.8734 105.639Z" fill="#202020" fill-opacity="0.9"/>
<path d="M26.94 134.127L30.1 129.827H33.02L28.9 135.327L28.26 135.167C28.5533 134.9 28.9133 134.694 29.34 134.547C29.78 134.4 30.2067 134.327 30.62 134.327C31.62 134.327 32.5 134.547 33.26 134.987C34.02 135.414 34.6133 136.014 35.04 136.787C35.4667 137.547 35.68 138.42 35.68 139.407C35.68 140.447 35.44 141.367 34.96 142.167C34.4933 142.954 33.8467 143.574 33.02 144.027C32.2067 144.48 31.28 144.707 30.24 144.707C29.1867 144.707 28.24 144.474 27.4 144.007C26.5733 143.54 25.92 142.907 25.44 142.107C24.96 141.294 24.72 140.387 24.72 139.387C24.72 138.787 24.7867 138.234 24.92 137.727C25.0667 137.207 25.3 136.66 25.62 136.087C25.9533 135.514 26.3933 134.86 26.94 134.127ZM27.34 139.407C27.34 140.007 27.46 140.534 27.7 140.987C27.9533 141.44 28.2933 141.794 28.72 142.047C29.16 142.3 29.6667 142.427 30.24 142.427C30.8 142.427 31.2933 142.3 31.72 142.047C32.1467 141.794 32.48 141.44 32.72 140.987C32.9733 140.534 33.1 140.007 33.1 139.407C33.1 138.82 32.9733 138.307 32.72 137.867C32.48 137.414 32.1467 137.06 31.72 136.807C31.2933 136.554 30.8 136.427 30.24 136.427C29.6667 136.427 29.16 136.554 28.72 136.807C28.28 137.06 27.94 137.414 27.7 137.867C27.46 138.307 27.34 138.82 27.34 139.407ZM39.7023 144.447H37.2623V129.567H39.7223V135.847C40.029 135.367 40.4557 134.987 41.0023 134.707C41.5623 134.414 42.2023 134.267 42.9223 134.267C44.1357 134.267 45.0557 134.634 45.6823 135.367C46.3223 136.1 46.6423 137.1 46.6423 138.367V144.447H44.2023V138.947C44.2023 138.387 44.1157 137.927 43.9423 137.567C43.769 137.207 43.529 136.94 43.2223 136.767C42.9157 136.58 42.5557 136.487 42.1423 136.487C41.6357 136.487 41.1957 136.6 40.8223 136.827C40.4623 137.04 40.1823 137.34 39.9823 137.727C39.7957 138.114 39.7023 138.554 39.7023 139.047V144.447ZM54.8397 134.527V136.787H53.9397C53.0464 136.787 52.3464 137.027 51.8397 137.507C51.333 137.974 51.0797 138.687 51.0797 139.647V144.447H48.6397V134.587H50.9397L51.1397 136.627H50.8997C51.033 135.974 51.3464 135.44 51.8397 135.027C52.333 134.614 52.973 134.407 53.7597 134.407C53.933 134.407 54.1064 134.414 54.2797 134.427C54.453 134.44 54.6397 134.474 54.8397 134.527ZM55.3312 141.447H57.6512C57.6646 141.874 57.8246 142.214 58.1312 142.467C58.4379 142.72 58.8646 142.847 59.4112 142.847C59.9979 142.847 60.4379 142.74 60.7312 142.527C61.0379 142.314 61.1912 142.027 61.1912 141.667C61.1912 141.427 61.1112 141.214 60.9512 141.027C60.7912 140.84 60.4912 140.7 60.0512 140.607L58.2712 140.187C57.3779 139.987 56.7112 139.667 56.2712 139.227C55.8446 138.774 55.6312 138.154 55.6312 137.367C55.6312 136.727 55.7979 136.174 56.1312 135.707C56.4779 135.24 56.9446 134.887 57.5312 134.647C58.1179 134.394 58.7912 134.267 59.5512 134.267C60.2846 134.267 60.9312 134.4 61.4912 134.667C62.0512 134.934 62.4846 135.307 62.7912 135.787C63.1112 136.267 63.2779 136.827 63.2912 137.467H60.9712C60.9712 137.04 60.8379 136.707 60.5712 136.467C60.3046 136.214 59.9312 136.087 59.4512 136.087C58.9712 136.087 58.5979 136.194 58.3312 136.407C58.0646 136.62 57.9312 136.907 57.9312 137.267C57.9312 137.814 58.3579 138.187 59.2112 138.387L60.9912 138.807C61.8179 138.994 62.4379 139.294 62.8512 139.707C63.2779 140.12 63.4912 140.707 63.4912 141.467C63.4912 142.134 63.3179 142.714 62.9712 143.207C62.6246 143.687 62.1379 144.06 61.5112 144.327C60.8846 144.58 60.1646 144.707 59.3512 144.707C58.1246 144.707 57.1446 144.407 56.4112 143.807C55.6912 143.207 55.3312 142.42 55.3312 141.447ZM66.5305 144.687C66.0905 144.687 65.7105 144.534 65.3905 144.227C65.0705 143.92 64.9105 143.547 64.9105 143.107C64.9105 142.667 65.0705 142.294 65.3905 141.987C65.7105 141.667 66.0905 141.507 66.5305 141.507C66.9705 141.507 67.3505 141.667 67.6705 141.987C67.9905 142.294 68.1505 142.667 68.1505 143.107C68.1505 143.547 67.9905 143.92 67.6705 144.227C67.3505 144.534 66.9705 144.687 66.5305 144.687ZM85.1014 144.427L74.9614 144.447V142.527L79.7414 138.487C80.2347 138.074 80.6481 137.694 80.9814 137.347C81.3281 137 81.6014 136.674 81.8014 136.367C82.0014 136.06 82.1481 135.754 82.2414 135.447C82.3347 135.14 82.3814 134.807 82.3814 134.447C82.3814 133.62 82.1681 132.98 81.7414 132.527C81.3147 132.074 80.7147 131.847 79.9414 131.847C79.1414 131.847 78.5081 132.114 78.0414 132.647C77.5747 133.18 77.3347 133.914 77.3214 134.847H74.7814C74.7947 133.78 75.0147 132.854 75.4414 132.067C75.8681 131.267 76.4681 130.654 77.2414 130.227C78.0147 129.787 78.9147 129.567 79.9414 129.567C80.9814 129.567 81.8747 129.76 82.6214 130.147C83.3814 130.52 83.9681 131.06 84.3814 131.767C84.7947 132.474 85.0014 133.32 85.0014 134.307C85.0014 134.814 84.9281 135.3 84.7814 135.767C84.6481 136.22 84.4414 136.667 84.1614 137.107C83.8814 137.534 83.5347 137.967 83.1214 138.407C82.7081 138.847 82.2214 139.307 81.6614 139.787L78.1014 142.827L77.1814 142.047H85.1014V144.427ZM86.2788 137.167C86.2788 135.647 86.5321 134.32 87.0388 133.187C87.5588 132.054 88.2788 131.167 89.1988 130.527C90.1321 129.874 91.2188 129.547 92.4588 129.547C93.7121 129.547 94.7988 129.874 95.7188 130.527C96.6521 131.167 97.3721 132.054 97.8788 133.187C98.3988 134.32 98.6588 135.647 98.6588 137.167C98.6588 138.674 98.4121 139.994 97.9188 141.127C97.4254 142.26 96.7188 143.14 95.7988 143.767C94.8788 144.394 93.7654 144.707 92.4588 144.707C91.1788 144.707 90.0721 144.394 89.1388 143.767C88.2188 143.14 87.5121 142.26 87.0188 141.127C86.5254 139.994 86.2788 138.674 86.2788 137.167ZM88.7988 137.167C88.7988 138.287 88.9454 139.247 89.2388 140.047C89.5321 140.834 89.9521 141.434 90.4988 141.847C91.0454 142.247 91.6988 142.447 92.4588 142.447C93.2454 142.447 93.9054 142.247 94.4388 141.847C94.9854 141.434 95.4054 140.834 95.6988 140.047C95.9921 139.247 96.1388 138.287 96.1388 137.167C96.1388 136.007 95.9921 135.034 95.6988 134.247C95.4054 133.447 94.9854 132.84 94.4388 132.427C93.9054 132.014 93.2454 131.807 92.4588 131.807C91.6988 131.807 91.0454 132.014 90.4988 132.427C89.9521 132.84 89.5321 133.447 89.2388 134.247C88.9454 135.034 88.7988 136.007 88.7988 137.167ZM102.82 144.447H100.38V134.567H102.62L102.92 136.327L102.64 136.087C102.84 135.607 103.207 135.187 103.74 134.827C104.274 134.454 104.94 134.267 105.74 134.267C106.607 134.267 107.314 134.494 107.86 134.947C108.42 135.4 108.807 136 109.02 136.747H108.62C108.767 136 109.14 135.4 109.74 134.947C110.354 134.494 111.094 134.267 111.96 134.267C113.16 134.267 114.08 134.607 114.72 135.287C115.36 135.954 115.68 136.854 115.68 137.987V144.447H113.26V138.627C113.26 137.92 113.08 137.387 112.72 137.027C112.374 136.654 111.907 136.467 111.32 136.467C110.947 136.467 110.6 136.554 110.28 136.727C109.974 136.9 109.727 137.16 109.54 137.507C109.354 137.854 109.26 138.3 109.26 138.847V144.447H106.82V138.607C106.82 137.914 106.647 137.387 106.3 137.027C105.954 136.667 105.494 136.487 104.92 136.487C104.534 136.487 104.18 136.574 103.86 136.747C103.54 136.907 103.287 137.167 103.1 137.527C102.914 137.874 102.82 138.314 102.82 138.847V144.447ZM117.676 144.447V134.567H120.116V144.447H117.676ZM118.876 132.587C118.462 132.587 118.109 132.447 117.816 132.167C117.536 131.874 117.396 131.52 117.396 131.107C117.396 130.694 117.536 130.347 117.816 130.067C118.109 129.787 118.462 129.647 118.876 129.647C119.289 129.647 119.636 129.787 119.916 130.067C120.209 130.347 120.356 130.694 120.356 131.107C120.356 131.52 120.209 131.874 119.916 132.167C119.636 132.447 119.289 132.587 118.876 132.587ZM124.677 144.447H122.237V134.567H124.497L124.697 135.847C125.003 135.354 125.437 134.967 125.997 134.687C126.57 134.407 127.19 134.267 127.857 134.267C129.097 134.267 130.03 134.634 130.657 135.367C131.297 136.1 131.617 137.1 131.617 138.367V144.447H129.177V138.947C129.177 138.12 128.99 137.507 128.617 137.107C128.243 136.694 127.737 136.487 127.097 136.487C126.337 136.487 125.743 136.727 125.317 137.207C124.89 137.687 124.677 138.327 124.677 139.127V144.447ZM135.254 144.687C134.814 144.687 134.434 144.534 134.114 144.227C133.794 143.92 133.634 143.547 133.634 143.107C133.634 142.667 133.794 142.294 134.114 141.987C134.434 141.667 134.814 141.507 135.254 141.507C135.694 141.507 136.074 141.667 136.394 141.987C136.714 142.294 136.874 142.667 136.874 143.107C136.874 143.547 136.714 143.92 136.394 144.227C136.074 144.534 135.694 144.687 135.254 144.687Z" fill="#202020" fill-opacity="0.9"/>
<rect x="228.5" y="0.947021" width="209" height="173" rx="11.5" fill="#FBFBFB"/>
<rect x="228.5" y="0.947021" width="209" height="173" rx="11.5" stroke="#F0F0F0"/>
<rect x="252" y="24.447" width="48" height="48" rx="24" fill="#F1F2DE"/>
<path d="M276 38.447V39.447M267 48.447H266M269.5 41.947L268.9 41.3469M282.5 41.947L283.1 41.3469M286 48.447H285M274 49.947H278M276 49.947V54.947M279.5 53.321C281.014 52.2318 282 50.4545 282 48.447C282 45.1333 279.314 42.447 276 42.447C272.686 42.447 270 45.1333 270 48.447C270 50.4545 270.986 52.2318 272.5 53.321V55.247C272.5 56.3671 272.5 56.9272 272.718 57.355C272.91 57.7313 273.216 58.0373 273.592 58.229C274.02 58.447 274.58 58.447 275.7 58.447H276.3C277.42 58.447 277.98 58.447 278.408 58.229C278.784 58.0373 279.09 57.7313 279.282 57.355C279.5 56.9272 279.5 56.3671 279.5 55.247V53.321Z" stroke="black" stroke-width="2" stroke-linecap="round" stroke-linejoin="round"/>
<path d="M254.912 93.879V105.447H253.344V93.879H254.912ZM257.84 101.319H254.56V99.911H257.504C258.283 99.911 258.88 99.703 259.296 99.287C259.712 98.8604 259.92 98.2897 259.92 97.575C259.92 96.8497 259.712 96.2897 259.296 95.895C258.88 95.4897 258.304 95.287 257.568 95.287H254.208V93.879H257.84C258.597 93.879 259.253 94.0337 259.808 94.343C260.363 94.6524 260.795 95.0844 261.104 95.639C261.413 96.1937 261.568 96.8444 261.568 97.591C261.568 98.3057 261.413 98.9457 261.104 99.511C260.795 100.076 260.363 100.519 259.808 100.839C259.253 101.159 258.597 101.319 257.84 101.319ZM267.248 97.559V98.935H266.576C265.861 98.935 265.296 99.143 264.88 99.559C264.475 99.9644 264.272 100.546 264.272 101.303V105.447H262.768V97.639H264.176L264.304 99.207H264.16C264.267 98.695 264.523 98.279 264.928 97.959C265.333 97.6284 265.84 97.463 266.448 97.463C266.587 97.463 266.715 97.4737 266.832 97.495C266.96 97.5057 267.099 97.527 267.248 97.559ZM267.545 101.527C267.545 100.727 267.721 100.018 268.073 99.399C268.425 98.7804 268.905 98.295 269.513 97.943C270.132 97.591 270.836 97.415 271.625 97.415C272.415 97.415 273.113 97.591 273.721 97.943C274.329 98.295 274.809 98.7804 275.161 99.399C275.513 100.018 275.689 100.727 275.689 101.527C275.689 102.327 275.513 103.036 275.161 103.655C274.809 104.274 274.329 104.759 273.721 105.111C273.113 105.463 272.415 105.639 271.625 105.639C270.836 105.639 270.132 105.463 269.513 105.111C268.905 104.759 268.425 104.274 268.073 103.655C267.721 103.036 267.545 102.327 267.545 101.527ZM269.065 101.527C269.065 102.071 269.172 102.551 269.385 102.967C269.609 103.383 269.913 103.708 270.297 103.943C270.681 104.178 271.124 104.295 271.625 104.295C272.127 104.295 272.569 104.178 272.953 103.943C273.337 103.708 273.636 103.383 273.849 102.967C274.073 102.551 274.185 102.071 274.185 101.527C274.185 100.972 274.073 100.492 273.849 100.087C273.636 99.671 273.337 99.3457 272.953 99.111C272.569 98.8764 272.127 98.759 271.625 98.759C271.124 98.759 270.681 98.8764 270.297 99.111C269.913 99.3457 269.609 99.671 269.385 100.087C269.172 100.492 269.065 100.972 269.065 101.527ZM280.17 105.639C279.413 105.639 278.762 105.468 278.218 105.127C277.674 104.775 277.253 104.29 276.954 103.671C276.666 103.052 276.522 102.348 276.522 101.559C276.522 100.759 276.672 100.05 276.97 99.431C277.269 98.8017 277.696 98.3057 278.25 97.943C278.805 97.5804 279.466 97.399 280.234 97.399C280.842 97.399 281.381 97.527 281.85 97.783C282.33 98.0284 282.704 98.3964 282.97 98.887V93.671H284.458V105.447H283.114L282.986 104.023C282.73 104.546 282.352 104.946 281.85 105.223C281.36 105.5 280.8 105.639 280.17 105.639ZM280.474 104.279C280.986 104.279 281.424 104.162 281.786 103.927C282.16 103.692 282.448 103.367 282.65 102.951C282.853 102.535 282.954 102.055 282.954 101.511C282.954 100.967 282.853 100.492 282.65 100.087C282.448 99.671 282.16 99.3457 281.786 99.111C281.424 98.8764 280.986 98.759 280.474 98.759C279.962 98.759 279.525 98.8817 279.162 99.127C278.8 99.3617 278.522 99.687 278.33 100.103C278.138 100.508 278.042 100.978 278.042 101.511C278.042 102.055 278.138 102.535 278.33 102.951C278.522 103.367 278.8 103.692 279.162 103.927C279.525 104.162 279.962 104.279 280.474 104.279ZM291.716 97.623H293.204V105.447H291.86L291.7 104.263C291.476 104.668 291.124 104.999 290.644 105.255C290.164 105.511 289.636 105.639 289.06 105.639C288.153 105.639 287.449 105.356 286.948 104.791C286.457 104.215 286.212 103.447 286.212 102.487V97.623H287.716V101.991C287.716 102.823 287.881 103.42 288.212 103.783C288.553 104.135 289.012 104.311 289.588 104.311C290.281 104.311 290.809 104.098 291.172 103.671C291.535 103.234 291.716 102.594 291.716 101.751V97.623ZM294.398 101.543C294.398 100.722 294.558 100.002 294.878 99.383C295.209 98.7644 295.662 98.279 296.238 97.927C296.814 97.575 297.481 97.399 298.238 97.399C299.219 97.399 300.035 97.6604 300.686 98.183C301.337 98.7057 301.726 99.399 301.854 100.263H300.35C300.222 99.7617 299.971 99.383 299.598 99.127C299.225 98.871 298.787 98.743 298.286 98.743C297.817 98.743 297.401 98.8604 297.038 99.095C296.675 99.319 296.393 99.639 296.19 100.055C295.987 100.471 295.886 100.962 295.886 101.527C295.886 102.092 295.982 102.583 296.174 102.999C296.366 103.404 296.638 103.724 296.99 103.959C297.342 104.183 297.753 104.295 298.222 104.295C298.755 104.295 299.214 104.162 299.598 103.895C299.982 103.628 300.238 103.266 300.366 102.807H301.87C301.774 103.372 301.555 103.868 301.214 104.295C300.883 104.711 300.457 105.042 299.934 105.287C299.422 105.522 298.851 105.639 298.222 105.639C297.454 105.639 296.782 105.468 296.206 105.127C295.641 104.786 295.198 104.311 294.878 103.703C294.558 103.084 294.398 102.364 294.398 101.543ZM302.305 97.623H306.849V98.887H302.305V97.623ZM306.785 104.135L306.977 105.383C306.571 105.543 306.139 105.623 305.681 105.623C305.222 105.623 304.833 105.538 304.513 105.367C304.193 105.186 303.947 104.919 303.777 104.567C303.606 104.215 303.521 103.778 303.521 103.255V95.175H305.025V103.047C305.025 103.495 305.115 103.815 305.297 104.007C305.489 104.188 305.734 104.279 306.033 104.279C306.267 104.279 306.518 104.231 306.785 104.135ZM308.207 105.447V97.623H309.711V105.447H308.207ZM308.943 95.767C308.677 95.767 308.442 95.671 308.239 95.479C308.047 95.2764 307.951 95.0417 307.951 94.775C307.951 94.4977 308.047 94.263 308.239 94.071C308.442 93.879 308.677 93.783 308.943 93.783C309.221 93.783 309.455 93.879 309.647 94.071C309.839 94.263 309.935 94.4977 309.935 94.775C309.935 95.0417 309.839 95.2764 309.647 95.479C309.455 95.671 309.221 95.767 308.943 95.767ZM313.767 105.447L310.615 97.623H312.215L313.927 101.991C314.066 102.354 314.188 102.7 314.295 103.031C314.402 103.351 314.487 103.628 314.551 103.863C314.626 103.596 314.716 103.303 314.823 102.983C314.94 102.663 315.068 102.332 315.207 101.991L316.951 97.623H318.519L315.255 105.447H313.767ZM322.412 105.639C321.655 105.639 320.983 105.468 320.396 105.127C319.809 104.775 319.351 104.295 319.02 103.687C318.689 103.068 318.524 102.354 318.524 101.543C318.524 100.722 318.684 100.002 319.004 99.383C319.335 98.7644 319.783 98.279 320.348 97.927C320.924 97.575 321.591 97.399 322.348 97.399C323.095 97.399 323.74 97.559 324.284 97.879C324.839 98.199 325.265 98.647 325.564 99.223C325.873 99.799 326.028 100.476 326.028 101.255V101.815L319.324 101.831L319.356 100.823H324.524C324.524 100.172 324.327 99.6497 323.932 99.255C323.537 98.8604 323.009 98.663 322.348 98.663C321.847 98.663 321.415 98.775 321.052 98.999C320.7 99.2124 320.428 99.5324 320.236 99.959C320.055 100.375 319.964 100.876 319.964 101.463C319.964 102.402 320.177 103.127 320.604 103.639C321.031 104.14 321.644 104.391 322.444 104.391C323.031 104.391 323.511 104.274 323.884 104.039C324.257 103.804 324.508 103.463 324.636 103.015H326.044C325.852 103.847 325.441 104.492 324.812 104.951C324.183 105.41 323.383 105.639 322.412 105.639ZM333.731 105.639C332.899 105.639 332.243 105.42 331.763 104.983C331.294 104.546 331.059 103.975 331.059 103.271C331.059 102.556 331.315 101.986 331.827 101.559C332.339 101.122 333.054 100.866 333.971 100.791L336.435 100.599V100.375C336.435 99.9377 336.355 99.591 336.195 99.335C336.035 99.0684 335.816 98.8817 335.539 98.775C335.262 98.6577 334.947 98.599 334.595 98.599C333.966 98.599 333.475 98.7324 333.123 98.999C332.782 99.255 332.611 99.623 332.611 100.103H331.299C331.299 99.559 331.438 99.0844 331.715 98.679C331.992 98.2737 332.382 97.959 332.883 97.735C333.395 97.511 333.987 97.399 334.659 97.399C335.31 97.399 335.875 97.5164 336.355 97.751C336.846 97.975 337.224 98.3217 337.491 98.791C337.768 99.2497 337.907 99.831 337.907 100.535V105.447H336.627L336.467 104.183C336.264 104.631 335.912 104.988 335.411 105.255C334.92 105.511 334.36 105.639 333.731 105.639ZM334.163 104.471C334.878 104.471 335.438 104.258 335.843 103.831C336.248 103.394 336.451 102.807 336.451 102.071V101.655L334.451 101.815C333.79 101.879 333.31 102.034 333.011 102.279C332.723 102.524 332.579 102.839 332.579 103.223C332.579 103.639 332.718 103.954 332.995 104.167C333.283 104.37 333.672 104.471 334.163 104.471ZM339.67 108.951V97.623H341.03L341.142 99.031C341.398 98.487 341.777 98.0817 342.278 97.815C342.79 97.5377 343.355 97.399 343.974 97.399C344.721 97.399 345.366 97.575 345.91 97.927C346.454 98.2684 346.87 98.7484 347.158 99.367C347.457 99.975 347.606 100.679 347.606 101.479C347.606 102.279 347.462 102.994 347.174 103.623C346.897 104.252 346.486 104.748 345.942 105.111C345.409 105.474 344.753 105.655 343.974 105.655C343.345 105.655 342.785 105.527 342.294 105.271C341.803 105.015 341.43 104.647 341.174 104.167V108.951H339.67ZM341.19 101.543C341.19 102.066 341.286 102.54 341.478 102.967C341.681 103.383 341.963 103.708 342.326 103.943C342.699 104.178 343.142 104.295 343.654 104.295C344.166 104.295 344.603 104.178 344.966 103.943C345.329 103.698 345.606 103.367 345.798 102.951C346.001 102.535 346.102 102.066 346.102 101.543C346.102 100.999 346.001 100.519 345.798 100.103C345.606 99.687 345.329 99.3617 344.966 99.127C344.603 98.8924 344.166 98.775 343.654 98.775C343.142 98.775 342.699 98.8924 342.326 99.127C341.963 99.3617 341.681 99.687 341.478 100.103C341.286 100.519 341.19 100.999 341.19 101.543ZM348.944 108.951V97.623H350.304L350.416 99.031C350.672 98.487 351.05 98.0817 351.552 97.815C352.064 97.5377 352.629 97.399 353.248 97.399C353.994 97.399 354.64 97.575 355.184 97.927C355.728 98.2684 356.144 98.7484 356.432 99.367C356.73 99.975 356.88 100.679 356.88 101.479C356.88 102.279 356.736 102.994 356.448 103.623C356.17 104.252 355.76 104.748 355.216 105.111C354.682 105.474 354.026 105.655 353.248 105.655C352.618 105.655 352.058 105.527 351.568 105.271C351.077 105.015 350.704 104.647 350.448 104.167V108.951H348.944ZM350.464 101.543C350.464 102.066 350.56 102.54 350.752 102.967C350.954 103.383 351.237 103.708 351.6 103.943C351.973 104.178 352.416 104.295 352.928 104.295C353.44 104.295 353.877 104.178 354.24 103.943C354.602 103.698 354.88 103.367 355.072 102.951C355.274 102.535 355.376 102.066 355.376 101.543C355.376 100.999 355.274 100.519 355.072 100.103C354.88 99.687 354.602 99.3617 354.24 99.127C353.877 98.8924 353.44 98.775 352.928 98.775C352.416 98.775 351.973 98.8924 351.6 99.127C351.237 99.3617 350.954 99.687 350.752 100.103C350.56 100.519 350.464 100.999 350.464 101.543ZM357.577 103.175H359.017C359.017 103.57 359.161 103.884 359.449 104.119C359.737 104.343 360.127 104.455 360.617 104.455C361.151 104.455 361.561 104.354 361.849 104.151C362.137 103.938 362.281 103.655 362.281 103.303C362.281 103.047 362.201 102.834 362.041 102.663C361.892 102.492 361.615 102.354 361.209 102.247L359.833 101.927C359.14 101.756 358.623 101.495 358.281 101.143C357.951 100.791 357.785 100.327 357.785 99.751C357.785 99.271 357.908 98.855 358.153 98.503C358.409 98.151 358.756 97.879 359.193 97.687C359.641 97.495 360.153 97.399 360.729 97.399C361.305 97.399 361.801 97.5004 362.217 97.703C362.644 97.9057 362.975 98.1884 363.209 98.551C363.455 98.9137 363.583 99.3457 363.593 99.847H362.153C362.143 99.4417 362.009 99.127 361.753 98.903C361.497 98.679 361.14 98.567 360.681 98.567C360.212 98.567 359.849 98.6684 359.593 98.871C359.337 99.0737 359.209 99.351 359.209 99.703C359.209 100.226 359.593 100.583 360.361 100.775L361.737 101.111C362.399 101.26 362.895 101.506 363.225 101.847C363.556 102.178 363.721 102.631 363.721 103.207C363.721 103.698 363.588 104.13 363.321 104.503C363.055 104.866 362.687 105.148 362.217 105.351C361.759 105.543 361.215 105.639 360.585 105.639C359.668 105.639 358.937 105.415 358.393 104.967C357.849 104.519 357.577 103.922 357.577 103.175Z" fill="#202020" fill-opacity="0.9"/>
<path d="M254.94 134.127L258.1 129.827H261.02L256.9 135.327L256.26 135.167C256.553 134.9 256.913 134.694 257.34 134.547C257.78 134.4 258.207 134.327 258.62 134.327C259.62 134.327 260.5 134.547 261.26 134.987C262.02 135.414 262.613 136.014 263.04 136.787C263.467 137.547 263.68 138.42 263.68 139.407C263.68 140.447 263.44 141.367 262.96 142.167C262.493 142.954 261.847 143.574 261.02 144.027C260.207 144.48 259.28 144.707 258.24 144.707C257.187 144.707 256.24 144.474 255.4 144.007C254.573 143.54 253.92 142.907 253.44 142.107C252.96 141.294 252.72 140.387 252.72 139.387C252.72 138.787 252.787 138.234 252.92 137.727C253.067 137.207 253.3 136.66 253.62 136.087C253.953 135.514 254.393 134.86 254.94 134.127ZM255.34 139.407C255.34 140.007 255.46 140.534 255.7 140.987C255.953 141.44 256.293 141.794 256.72 142.047C257.16 142.3 257.667 142.427 258.24 142.427C258.8 142.427 259.293 142.3 259.72 142.047C260.147 141.794 260.48 141.44 260.72 140.987C260.973 140.534 261.1 140.007 261.1 139.407C261.1 138.82 260.973 138.307 260.72 137.867C260.48 137.414 260.147 137.06 259.72 136.807C259.293 136.554 258.8 136.427 258.24 136.427C257.667 136.427 257.16 136.554 256.72 136.807C256.28 137.06 255.94 137.414 255.7 137.867C255.46 138.307 255.34 138.82 255.34 139.407ZM264.862 137.167C264.862 135.647 265.116 134.32 265.622 133.187C266.142 132.054 266.862 131.167 267.782 130.527C268.716 129.874 269.802 129.547 271.042 129.547C272.296 129.547 273.382 129.874 274.302 130.527C275.236 131.167 275.956 132.054 276.462 133.187C276.982 134.32 277.242 135.647 277.242 137.167C277.242 138.674 276.996 139.994 276.502 141.127C276.009 142.26 275.302 143.14 274.382 143.767C273.462 144.394 272.349 144.707 271.042 144.707C269.762 144.707 268.656 144.394 267.722 143.767C266.802 143.14 266.096 142.26 265.602 141.127C265.109 139.994 264.862 138.674 264.862 137.167ZM267.382 137.167C267.382 138.287 267.529 139.247 267.822 140.047C268.116 140.834 268.536 141.434 269.082 141.847C269.629 142.247 270.282 142.447 271.042 142.447C271.829 142.447 272.489 142.247 273.022 141.847C273.569 141.434 273.989 140.834 274.282 140.047C274.576 139.247 274.722 138.287 274.722 137.167C274.722 136.007 274.576 135.034 274.282 134.247C273.989 133.447 273.569 132.84 273.022 132.427C272.489 132.014 271.829 131.807 271.042 131.807C270.282 131.807 269.629 132.014 269.082 132.427C268.536 132.84 268.116 133.447 267.822 134.247C267.529 135.034 267.382 136.007 267.382 137.167ZM286.024 133.387C286.024 134.134 285.857 134.8 285.524 135.387C285.204 135.96 284.757 136.414 284.184 136.747C283.611 137.067 282.951 137.227 282.204 137.227C281.471 137.227 280.811 137.067 280.224 136.747C279.651 136.414 279.197 135.96 278.864 135.387C278.544 134.8 278.384 134.134 278.384 133.387C278.384 132.64 278.544 131.98 278.864 131.407C279.197 130.82 279.651 130.367 280.224 130.047C280.811 129.714 281.471 129.547 282.204 129.547C282.951 129.547 283.611 129.714 284.184 130.047C284.757 130.367 285.204 130.82 285.524 131.407C285.857 131.98 286.024 132.64 286.024 133.387ZM284.084 133.387C284.084 132.814 283.911 132.347 283.564 131.987C283.217 131.614 282.764 131.427 282.204 131.427C281.644 131.427 281.191 131.614 280.844 131.987C280.511 132.347 280.344 132.814 280.344 133.387C280.344 133.96 280.511 134.434 280.844 134.807C281.191 135.18 281.644 135.367 282.204 135.367C282.764 135.367 283.217 135.18 283.564 134.807C283.911 134.434 284.084 133.96 284.084 133.387ZM294.044 129.847L282.944 144.447H280.504L291.604 129.847H294.044ZM296.184 140.867C296.184 141.614 296.017 142.28 295.684 142.867C295.364 143.44 294.917 143.894 294.344 144.227C293.784 144.547 293.131 144.707 292.384 144.707C291.637 144.707 290.977 144.547 290.404 144.227C289.831 143.894 289.377 143.44 289.044 142.867C288.724 142.28 288.564 141.614 288.564 140.867C288.564 140.12 288.724 139.46 289.044 138.887C289.377 138.3 289.831 137.847 290.404 137.527C290.977 137.194 291.637 137.027 292.384 137.027C293.131 137.027 293.784 137.194 294.344 137.527C294.917 137.847 295.364 138.3 295.684 138.887C296.017 139.46 296.184 140.12 296.184 140.867ZM294.244 140.867C294.244 140.28 294.071 139.807 293.724 139.447C293.391 139.087 292.944 138.907 292.384 138.907C291.824 138.907 291.371 139.087 291.024 139.447C290.677 139.807 290.504 140.28 290.504 140.867C290.504 141.44 290.677 141.914 291.024 142.287C291.371 142.647 291.824 142.827 292.384 142.827C292.931 142.827 293.377 142.647 293.724 142.287C294.071 141.914 294.244 141.44 294.244 140.867Z" fill="#202020" fill-opacity="0.9"/>
</svg>
