<svg width="79" height="71" viewBox="0 0 79 71" fill="none" xmlns="http://www.w3.org/2000/svg">
<rect x="0.5" y="1.44702" width="78" height="69" rx="6.7" fill="white"/>
<rect x="0.5" y="1.44702" width="78" height="69" rx="6.7" stroke="#E3E3E3"/>
<path d="M35.125 40.322H43.875M52.625 30.1137H26.375M45.3333 21.3637V25.7387M33.6667 21.3637V25.7387M33.375 50.5304H45.625C48.0752 50.5304 49.3003 50.5304 50.2362 50.0535C51.0594 49.6341 51.7287 48.9648 52.1482 48.1416C52.625 47.2057 52.625 45.9806 52.625 43.5304V31.2804C52.625 28.8301 52.625 27.605 52.1482 26.6692C51.7287 25.846 51.0594 25.1767 50.2362 24.7572C49.3003 24.2804 48.0752 24.2804 45.625 24.2804H33.375C30.9248 24.2804 29.6997 24.2804 28.7638 24.7572C27.9406 25.1767 27.2713 25.846 26.8518 26.6692C26.375 27.605 26.375 28.8301 26.375 31.2804V43.5304C26.375 45.9806 26.375 47.2057 26.8518 48.1416C27.2713 48.9648 27.9406 49.6341 28.7638 50.0535C29.6997 50.5304 30.9248 50.5304 33.375 50.5304Z" stroke="#138232" stroke-width="2" stroke-linecap="round" stroke-linejoin="round"/>
</svg>
