<svg width="483" height="549" viewBox="0 0 483 549" fill="none" xmlns="http://www.w3.org/2000/svg">
<g clip-path="url(#clip0_2067_1180)">
<path d="M308.946 171.704C308.091 169.859 306.735 168.894 304.876 168.808C303.005 168.723 301.113 170.045 299.906 171.372C298.309 173.133 296.094 176.27 293.81 176.522C291.512 176.775 290.301 175.555 290.175 172.86C290.072 170.662 290.074 168.086 290.181 165.131C290.209 164.392 290.129 163.758 289.94 163.23C289.882 163.073 289.773 163.018 289.613 163.064C283.626 164.863 278.767 163.662 275.035 159.462C274.987 159.408 274.928 159.365 274.863 159.335C274.797 159.305 274.726 159.288 274.655 159.286C274.583 159.284 274.512 159.297 274.445 159.323C274.379 159.35 274.319 159.39 274.268 159.44C273.336 160.39 272.27 161.135 271.073 161.678C270.394 161.985 270.426 162.147 271.17 162.165C273.135 162.222 275.048 162.518 276.906 163.054C277.984 163.364 279.533 163.883 279.399 165.302C279.387 165.425 279.351 165.544 279.291 165.652C279.232 165.76 279.151 165.856 279.054 165.932C278.957 166.008 278.845 166.063 278.726 166.095C278.606 166.127 278.481 166.134 278.359 166.116C274.485 165.555 270.664 165.277 266.897 165.281C266.586 165.281 266.377 165.152 266.269 164.895C266.076 164.438 266.082 163.967 266.285 163.482C266.411 163.179 266.309 163.034 265.98 163.048C260.844 163.23 256.308 160.795 253.643 156.368C253.604 156.302 253.548 156.248 253.481 156.211C253.415 156.173 253.339 156.154 253.263 156.154C253.186 156.154 253.111 156.173 253.044 156.211C252.978 156.248 252.922 156.302 252.882 156.368C250.893 159.644 245.88 159.515 243.017 157.813C242.176 157.315 241.13 157.358 240.476 158.145C234.943 160.789 229.024 158.857 225.695 154.141C223.513 151.047 222.966 146.443 224.07 142.776C226.247 135.56 233.34 131.717 240.637 133.066C240.826 133.102 240.937 133.025 240.969 132.836C241.897 127.161 246.749 122.611 252.18 121.241C258.392 119.667 263.848 120.77 268.548 124.549C268.669 124.646 268.773 124.63 268.859 124.501C273.035 118.093 280.992 115.636 288.192 117.489C294.329 119.069 298.303 122.856 300.115 128.848C300.158 128.99 300.242 129.117 300.357 129.211C300.472 129.305 300.611 129.363 300.759 129.378C303.6 129.67 306.077 130.725 308.19 132.541C314.178 137.696 315.267 145.383 311.873 152.556C311.786 152.74 311.769 152.949 311.825 153.145C311.969 153.67 312.334 154.114 312.564 154.607C315.191 160.2 314.21 167.395 309.712 171.827C309.555 171.981 309.299 171.94 308.946 171.704Z" fill="#20243B"/>
<path d="M240.374 163.139C240.296 162.204 240.392 161.48 240.664 160.966C243.897 159.719 247.794 159.098 251.193 160.072C252.237 160.368 252.782 161.059 252.829 162.144L252.85 162.647C252.893 163.657 252.417 164.065 251.424 163.873C248.632 163.327 246.754 163.079 245.789 163.129C244.045 163.218 242.24 163.221 240.374 163.139Z" fill="#20243B"/>
<path d="M271.454 167.713L271.111 167.697C270.053 167.647 269.154 168.464 269.104 169.521L268.876 174.344C268.826 175.401 269.644 176.299 270.703 176.348L271.045 176.365C272.104 176.414 273.003 175.598 273.053 174.541L273.281 169.717C273.331 168.66 272.513 167.763 271.454 167.713Z" fill="#20243B"/>
<path d="M248.654 167.97L248.054 167.943C247.087 167.899 246.267 168.646 246.223 169.612L245.992 174.692C245.948 175.658 246.697 176.476 247.664 176.52L248.264 176.547C249.231 176.591 250.051 175.844 250.095 174.878L250.326 169.798C250.369 168.832 249.621 168.014 248.654 167.97Z" fill="#20243B"/>
<path d="M99.8162 283.203L98.9423 283.294L98.685 273.696C98.6814 273.514 98.6099 273.364 98.4705 273.246C87.3511 263.853 75.9869 254.783 64.3778 246.036C64.3513 246.016 64.3318 245.988 64.3222 245.956C64.3125 245.924 64.3133 245.891 64.3242 245.86L64.3725 245.721C64.4404 245.531 64.5565 245.494 64.7209 245.608C67.1907 247.275 69.4979 248.931 71.6424 250.576C81.35 258.031 89.8817 264.976 97.2374 271.41C97.5877 271.717 97.9379 272.042 98.2882 272.384C98.5634 272.652 98.6814 272.595 98.6421 272.213C98.3365 268.974 98.3365 265.795 97.9344 262.481C97.1373 255.965 96.519 251.507 96.0793 249.109C94.3244 239.513 92.0333 230.893 89.2061 223.249C86.983 217.235 84.0056 211.231 80.2742 205.236C80.2601 205.214 80.2508 205.189 80.2467 205.163C80.2426 205.138 80.2438 205.111 80.2504 205.086C80.2569 205.06 80.2685 205.036 80.2846 205.015C80.3006 204.994 80.3208 204.976 80.3439 204.963L80.4725 204.882C80.5552 204.835 80.6532 204.822 80.7454 204.846C80.8376 204.87 80.9167 204.929 80.9658 205.011C81.7199 206.292 82.4741 207.496 83.2282 208.624C83.8126 209.491 84.0968 210.492 84.7187 211.359C84.9653 211.706 85.1708 212.066 85.3352 212.441C86.3325 214.689 87.5334 216.83 88.5199 219.089C89.7852 221.976 90.8217 224.797 91.6294 227.552C91.944 228.63 92.2746 229.637 92.6213 230.572C93.0216 231.667 93.3719 232.768 93.6721 233.874C96.1991 243.221 97.8557 253.022 98.6421 263.279C98.6885 263.882 98.8619 263.921 99.1621 263.396C104.856 253.408 111.457 243.933 118.967 234.972C121.462 231.992 124.142 229.199 127.009 226.594C127.073 226.534 127.138 226.537 127.202 226.605L127.293 226.701C127.415 226.83 127.413 226.955 127.288 227.076C123.808 230.443 120.693 233.762 117.803 237.418C110.977 246.058 104.845 255.014 99.4087 264.285C99.0442 264.91 98.8833 265.554 98.9262 266.217C99.1568 269.927 99.6178 273.701 99.6554 277.561C99.6696 279.434 99.7233 281.315 99.8162 283.203Z" fill="#20243B"/>
<path d="M308.946 171.704C309.693 173.656 309.973 175.45 309.787 177.084C309.473 179.843 308.24 182.143 306.088 183.984C303.486 186.218 300.521 186.671 297.193 185.344C297.011 185.272 296.831 185.269 296.652 185.333C296.413 185.422 296.252 185.62 296.169 185.927C295.88 185.606 295.544 185.374 295.162 185.231C294.983 185.163 294.902 185.224 294.92 185.413C295.042 186.805 295.558 187.849 296.47 188.545L296.588 196.194L297.081 210.155C297.102 210.778 296.948 211.397 296.636 211.943L289.838 223.73C286.614 225.433 283.851 226.68 281.549 227.472C277.265 228.955 272.258 228.917 268.199 226.851C265.665 225.559 263.619 223.696 262.061 221.263L261.637 218.217C262.363 218.898 263.962 219.096 266.436 218.811C270.496 218.347 274.074 217.234 277.169 215.471C284.712 211.177 290.1 205.225 294.384 197.827C294.942 196.86 295.33 195.814 295.548 194.69C295.565 194.594 295.539 194.51 295.467 194.439C295.417 194.392 295.358 194.374 295.29 194.385C295.176 194.403 295.094 194.462 295.044 194.562C289.934 204.074 278.198 207.297 268.173 207.602C265.428 207.687 262.647 207.662 259.83 207.527L251.349 206.119C251.349 205.912 251.066 205.871 250.502 205.996L250.561 205.867C250.607 205.767 250.587 205.678 250.502 205.6C250.427 205.532 250.327 205.478 250.201 205.439C245.523 203.166 242.594 199.399 241.414 194.139C240.803 191.416 240.485 188.754 240.46 186.152C240.388 178.458 240.36 170.787 240.374 163.139C242.24 163.221 244.045 163.218 245.789 163.129C246.754 163.079 248.632 163.327 251.424 163.873C252.417 164.065 252.893 163.657 252.85 162.647L252.828 162.144C252.782 161.059 252.237 160.368 251.193 160.072C247.794 159.098 243.897 159.719 240.664 160.966L240.476 158.145C241.13 157.358 242.176 157.315 243.017 157.813C245.88 159.515 250.893 159.644 252.882 156.368C252.922 156.302 252.978 156.248 253.044 156.211C253.111 156.173 253.186 156.154 253.263 156.154C253.339 156.154 253.415 156.173 253.481 156.211C253.548 156.248 253.604 156.302 253.643 156.368C256.308 160.795 260.844 163.23 265.98 163.048C266.309 163.034 266.411 163.179 266.285 163.482C266.082 163.967 266.076 164.438 266.269 164.895C266.377 165.152 266.586 165.281 266.897 165.281C270.664 165.277 274.485 165.555 278.359 166.116C278.481 166.134 278.606 166.127 278.726 166.095C278.845 166.063 278.957 166.008 279.054 165.932C279.151 165.856 279.232 165.76 279.291 165.652C279.351 165.544 279.387 165.425 279.399 165.302C279.533 163.883 277.984 163.364 276.906 163.054C275.048 162.518 273.135 162.222 271.17 162.165C270.426 162.147 270.394 161.985 271.073 161.678C272.27 161.135 273.336 160.39 274.268 159.44C274.319 159.39 274.379 159.35 274.445 159.323C274.512 159.297 274.583 159.284 274.655 159.286C274.726 159.288 274.797 159.305 274.863 159.335C274.928 159.365 274.987 159.408 275.035 159.462C278.767 163.662 283.626 164.863 289.613 163.064C289.773 163.018 289.882 163.073 289.94 163.23C290.129 163.758 290.209 164.392 290.181 165.131C290.074 168.086 290.072 170.662 290.175 172.86C290.301 175.555 291.512 176.775 293.81 176.522C296.094 176.27 298.309 173.133 299.906 171.372C301.113 170.045 303.005 168.723 304.876 168.808C306.735 168.894 308.091 169.859 308.946 171.704ZM273.281 169.717C273.305 169.21 273.126 168.713 272.783 168.337C272.441 167.962 271.963 167.737 271.454 167.713L271.111 167.697C270.603 167.673 270.106 167.852 269.729 168.194C269.353 168.536 269.128 169.013 269.104 169.521L268.876 174.344C268.852 174.852 269.031 175.348 269.374 175.724C269.716 176.1 270.194 176.324 270.703 176.348L271.046 176.365C271.554 176.389 272.051 176.21 272.428 175.868C272.804 175.526 273.029 175.048 273.053 174.541L273.281 169.717ZM250.326 169.798C250.347 169.334 250.182 168.881 249.869 168.538C249.555 168.195 249.118 167.991 248.654 167.97L248.054 167.943C247.589 167.921 247.136 168.085 246.792 168.399C246.449 168.712 246.244 169.148 246.223 169.612L245.992 174.692C245.971 175.156 246.135 175.609 246.449 175.952C246.762 176.294 247.199 176.499 247.664 176.52L248.264 176.547C248.728 176.568 249.182 176.404 249.525 176.091C249.869 175.778 250.073 175.342 250.095 174.878L250.326 169.798ZM257.804 184.792C258.04 180.792 258.345 176.757 258.721 172.689C258.849 171.315 258.942 169.907 258.999 168.466C259.001 168.438 258.996 168.409 258.986 168.383C258.976 168.357 258.96 168.333 258.94 168.313C258.92 168.293 258.896 168.277 258.869 168.266C258.842 168.256 258.814 168.251 258.785 168.251L258.646 168.257C258.41 168.264 258.281 168.383 258.26 168.615C257.745 173.965 257.328 179.314 257.01 184.664C256.855 187.26 260.131 187.169 261.723 186.634C261.859 186.591 261.934 186.498 261.948 186.355C261.962 186.163 261.875 186.075 261.685 186.093C260.613 186.195 257.686 186.752 257.804 184.792ZM297.338 177.705C297.309 177.711 297.278 177.707 297.25 177.696C297.222 177.684 297.199 177.664 297.183 177.638C297.166 177.613 297.158 177.583 297.159 177.553C297.16 177.523 297.17 177.494 297.188 177.469C298.378 175.717 299.819 174.274 301.509 173.139C301.976 172.823 302.421 172.304 302.732 171.833C303.107 171.262 302.986 171.122 302.367 171.415C301.624 171.768 300.866 172.339 300.094 173.128C300.072 173.149 300.046 173.164 300.014 173.171C299.96 173.182 299.905 173.194 299.847 173.208C299.747 173.233 299.661 173.285 299.59 173.364C298.523 174.547 296.094 176.79 295.96 178.299C295.943 178.51 296.041 178.615 296.255 178.615L300.324 178.561C300.453 178.561 300.494 178.622 300.448 178.743C299.826 180.349 298.973 181.85 297.89 183.245C297.855 183.292 297.846 183.343 297.864 183.401C297.882 183.465 297.919 183.504 297.976 183.518C298.126 183.554 298.259 183.52 298.373 183.417C299.595 182.357 300.094 180.729 300.641 179.257C300.93 178.465 301.627 178.155 301.665 177.218C301.668 177.125 301.647 177.033 301.606 176.95C301.564 176.867 301.503 176.795 301.427 176.742C301.351 176.688 301.263 176.654 301.171 176.643C301.078 176.632 300.985 176.643 300.898 176.677C299.712 177.145 298.525 177.487 297.338 177.705ZM265.202 190.97C262.407 193.029 259.653 193.047 256.941 191.023C256.919 191.007 256.893 190.996 256.866 190.992C256.84 190.987 256.812 190.989 256.786 190.997C256.761 191.005 256.738 191.018 256.719 191.037C256.7 191.055 256.686 191.078 256.678 191.104L256.624 191.275C256.608 191.325 256.608 191.379 256.625 191.43C256.641 191.481 256.673 191.526 256.715 191.559C259.643 193.828 262.55 193.8 265.438 191.473C265.469 191.449 265.492 191.417 265.504 191.38C265.516 191.343 265.518 191.303 265.508 191.264L265.454 191.055C265.412 190.906 265.328 190.877 265.202 190.97Z" fill="#F08F7F"/>
<path d="M228.488 325.69C230.418 327.313 232.35 328.907 234.284 330.47C236.882 332.568 238.791 334.285 240.01 335.62C242.522 338.375 244.783 341.608 246.792 345.319C248.475 348.429 250.051 351.625 250.845 354.966C251.767 358.836 251.89 362.856 248.1 365.168C248.014 365.218 247.994 365.286 248.041 365.372L248.105 365.49C248.112 365.511 248.127 365.516 248.148 365.506C251.96 363.68 255.665 362.005 259.787 360.517C264.137 358.946 268.414 357.216 272.617 355.324C273.35 354.853 273.534 354.214 273.169 353.408C274.699 353.101 275.977 353.104 277.003 353.418C276.549 354.528 275.823 355.529 274.826 356.422C274.784 356.46 274.753 356.507 274.734 356.561C274.715 356.614 274.709 356.671 274.717 356.726C274.725 356.782 274.746 356.835 274.779 356.881C274.812 356.927 274.856 356.964 274.906 356.989C279.07 358.998 282.543 362.085 285.323 366.25C287.881 370.077 290.036 374.178 290.074 378.92C290.09 381.452 290.004 384.016 291.457 386.254C291.553 386.404 291.689 386.488 291.864 386.506L292.824 386.602C292.463 386.484 292.145 386.614 291.87 386.993C291.226 387.899 290.461 388.513 289.575 388.834C287.513 389.591 285.175 390.594 282.562 391.843C277.501 393.93 272.111 396.175 266.393 398.577C264.216 399.49 261.078 400.564 256.978 401.799C252.507 403.148 248.177 403.739 243.988 403.571C241.353 403.464 239.506 402.277 238.444 400.011L236.321 392.539C236.532 390.226 236.491 388.169 236.198 386.366C238.342 384.682 240.144 383.331 241.602 382.314C245.68 379.466 250.219 376.84 255.22 374.435C255.3 374.396 255.366 374.332 255.406 374.253C255.447 374.174 255.461 374.083 255.445 373.996L255.423 373.846C255.418 373.818 255.407 373.791 255.39 373.768C255.374 373.745 255.352 373.726 255.327 373.712C255.302 373.699 255.275 373.691 255.247 373.69C255.219 373.689 255.191 373.695 255.166 373.707C248.193 376.893 241.732 380.937 235.785 385.837C235.71 385.901 235.665 385.97 235.651 386.045C235.626 386.163 235.645 386.249 235.71 386.302C235.109 386.639 234.579 387.036 233.882 387.132C231.905 387.396 230.066 387.318 228.365 386.896C227.507 386.682 226.939 386.097 226.66 385.141L226.638 384.9C226.738 384.604 226.76 384.316 226.703 384.038L227.866 381.329L228.772 379.889L230.734 377.582C233.115 375.28 235.792 372.945 238.766 370.575C238.848 370.511 238.909 370.434 238.948 370.345C238.991 370.241 239.025 370.147 239.05 370.061L246.475 366.084C246.479 366.082 246.482 366.079 246.483 366.076C246.484 366.073 246.484 366.069 246.482 366.065C246.48 366.061 246.477 366.058 246.473 366.055C246.469 366.053 246.464 366.052 246.459 366.052C245.108 366.376 243.743 366.653 242.363 366.881C239.479 367.352 236.659 368.509 233.758 369.263L224.96 367.979C221.736 366.68 218.806 365.17 216.168 363.45C212.551 360.584 208.213 356.848 203.156 352.241C200.071 349.425 197.603 346.492 195.752 343.44C195.788 343.248 195.841 343.078 195.913 342.932C197.414 339.931 199.426 337.317 201.949 335.09C206.128 331.407 210.149 328.778 214.012 327.205C217.354 325.845 220.77 324.355 224.258 322.735L228.488 325.69ZM237.002 347.134C233.46 342.516 229.705 338.528 225.738 335.17C225.33 334.822 225.035 334.265 224.44 334.185C224.022 334.128 223.943 334.265 224.204 334.597C224.733 335.272 225.332 335.889 226 336.449C228.674 338.673 231.14 341.126 233.399 343.81C237.988 349.252 241.641 354.782 244.358 360.399C244.377 360.439 244.412 360.47 244.454 360.485C244.496 360.5 244.542 360.498 244.583 360.479L244.749 360.399C244.802 360.373 244.842 360.328 244.862 360.273C244.882 360.218 244.88 360.158 244.856 360.104C242.948 355.797 240.329 351.474 237.002 347.134ZM216.425 338.35C225.761 345.309 232.884 354.098 237.795 364.719C238.046 365.258 238.165 365.231 238.155 364.638C238.147 364.2 238.06 363.796 237.892 363.429C234.875 356.944 231.054 351.249 226.429 346.342C223.906 343.658 220.707 340.81 216.833 337.798C216.796 337.771 216.751 337.755 216.705 337.755C216.66 337.755 216.616 337.771 216.581 337.798L216.42 337.932C216.241 338.075 216.243 338.214 216.425 338.35ZM227.217 359.917C225.016 356.798 223.17 354.357 221.679 352.594C218.734 349.111 215.174 345.58 210.999 342C210.95 341.957 210.886 341.933 210.82 341.935C210.755 341.937 210.692 341.964 210.646 342.011L210.538 342.113C210.524 342.127 210.513 342.145 210.505 342.164C210.498 342.183 210.494 342.203 210.495 342.223C210.495 342.243 210.5 342.262 210.508 342.28C210.517 342.298 210.529 342.314 210.544 342.327C218.017 348.777 224.408 356.229 229.26 364.837C229.421 365.122 229.526 365.274 229.576 365.292C230.184 365.538 230.341 365.368 230.048 364.783C229.206 363.107 228.295 361.448 227.217 359.917ZM238.953 393.598C238.421 394.194 237.879 394.774 237.329 395.338C237.313 395.356 237.3 395.376 237.291 395.398C237.283 395.421 237.279 395.444 237.28 395.468C237.281 395.491 237.287 395.514 237.297 395.535C237.308 395.556 237.322 395.575 237.34 395.59L237.479 395.702C237.551 395.762 237.643 395.791 237.737 395.784C237.831 395.777 237.919 395.734 237.983 395.665C239.019 394.519 240.126 393.354 241.302 392.169C243.267 390.192 245.382 388.476 247.644 387.02C251.647 384.45 255.913 382.063 260.442 379.857C260.674 379.743 260.787 379.561 260.779 379.311C260.776 379.104 260.679 379.043 260.49 379.129C252.228 382.855 244.61 387.287 238.953 393.598ZM244.041 399.535L244.17 399.588C244.259 399.624 244.357 399.632 244.451 399.613C244.545 399.594 244.632 399.548 244.701 399.481C250.748 393.704 257.629 388.947 265.342 385.21C265.445 385.161 265.532 385.081 265.588 384.982C265.645 384.882 265.669 384.768 265.658 384.653L265.642 384.471C265.639 384.439 265.628 384.408 265.611 384.38C265.593 384.352 265.569 384.33 265.541 384.313C265.512 384.297 265.48 384.288 265.448 384.286C265.415 384.285 265.382 384.292 265.353 384.306C257.443 388.017 250.307 392.936 243.945 399.064C243.734 399.271 243.766 399.428 244.041 399.535Z" fill="#F08F7F"/>
<path d="M125.266 351.507L110.153 350.33C110.077 350.324 110.004 350.295 109.945 350.246C109.886 350.197 109.845 350.131 109.826 350.057L106.63 337.488C106.616 337.431 106.615 337.372 106.627 337.315C106.64 337.258 106.667 337.205 106.705 337.16C106.743 337.115 106.791 337.081 106.845 337.058C106.899 337.036 106.958 337.027 107.016 337.033L122.125 338.211C122.201 338.216 122.274 338.245 122.332 338.294C122.391 338.343 122.433 338.41 122.452 338.484L125.652 351.052C125.667 351.109 125.668 351.168 125.655 351.225C125.642 351.283 125.616 351.336 125.578 351.38C125.54 351.425 125.492 351.46 125.438 351.482C125.384 351.504 125.325 351.513 125.266 351.507Z" fill="#F08F7F"/>
<path d="M257.804 184.792C257.686 186.752 260.613 186.195 261.685 186.093C261.875 186.075 261.962 186.163 261.948 186.355C261.934 186.498 261.859 186.591 261.723 186.634C260.131 187.169 256.855 187.26 257.01 184.664C257.328 179.314 257.745 173.965 258.26 168.615C258.281 168.384 258.41 168.264 258.646 168.257L258.785 168.251C258.814 168.251 258.842 168.256 258.869 168.266C258.896 168.277 258.92 168.293 258.94 168.313C258.96 168.333 258.976 168.357 258.986 168.383C258.996 168.41 259.001 168.438 258.999 168.466C258.942 169.907 258.849 171.315 258.721 172.689C258.345 176.757 258.04 180.792 257.804 184.792Z" fill="#C91A34"/>
<path d="M297.338 177.705C298.525 177.487 299.711 177.145 300.898 176.677C300.985 176.643 301.078 176.632 301.171 176.643C301.263 176.654 301.351 176.688 301.427 176.742C301.503 176.795 301.564 176.867 301.606 176.95C301.647 177.033 301.668 177.125 301.665 177.218C301.627 178.155 300.93 178.465 300.641 179.257C300.094 180.729 299.595 182.357 298.373 183.417C298.259 183.52 298.126 183.554 297.976 183.518C297.919 183.504 297.882 183.465 297.864 183.401C297.846 183.343 297.855 183.292 297.89 183.245C298.973 181.85 299.826 180.349 300.448 178.743C300.494 178.622 300.453 178.561 300.324 178.561L296.255 178.615C296.041 178.615 295.943 178.51 295.96 178.299C296.094 176.79 298.523 174.547 299.59 173.364C299.661 173.285 299.747 173.233 299.847 173.208C299.905 173.194 299.96 173.182 300.014 173.171C300.046 173.164 300.072 173.149 300.094 173.128C300.866 172.339 301.624 171.768 302.367 171.415C302.986 171.122 303.107 171.262 302.732 171.833C302.421 172.304 301.976 172.823 301.509 173.139C299.819 174.274 298.378 175.717 297.188 177.469C297.17 177.494 297.16 177.523 297.159 177.553C297.158 177.583 297.166 177.613 297.183 177.638C297.199 177.664 297.222 177.684 297.25 177.696C297.278 177.707 297.309 177.711 297.338 177.705Z" fill="#C91A34"/>
<path d="M296.169 185.927C296.595 186.669 296.695 187.542 296.47 188.545C295.558 187.849 295.042 186.805 294.92 185.413C294.902 185.224 294.983 185.164 295.162 185.231C295.544 185.374 295.88 185.606 296.169 185.927Z" fill="#C91A34"/>
<path d="M265.202 190.97C265.328 190.877 265.412 190.906 265.454 191.055L265.508 191.264C265.518 191.303 265.516 191.343 265.504 191.38C265.492 191.417 265.469 191.449 265.438 191.473C262.55 193.8 259.643 193.828 256.715 191.559C256.673 191.526 256.641 191.481 256.625 191.43C256.608 191.379 256.608 191.325 256.624 191.275L256.678 191.104C256.686 191.078 256.7 191.056 256.719 191.037C256.737 191.018 256.761 191.005 256.786 190.997C256.812 190.989 256.84 190.987 256.866 190.992C256.893 190.996 256.919 191.007 256.941 191.023C259.653 193.047 262.407 193.029 265.202 190.97Z" fill="#C91A34"/>
<path d="M320.73 205.375C320.876 205.817 320.885 206.172 320.757 206.44C317.138 218.292 313.583 229.935 308.12 241.155C305.275 247.004 301.676 252.273 297.322 256.962C296.114 258.268 294.731 259.453 293.172 260.517C293.054 260.598 292.918 260.65 292.776 260.67C292.634 260.689 292.489 260.675 292.353 260.629C292.217 260.583 292.094 260.505 291.993 260.403C291.893 260.301 291.817 260.177 291.773 260.04C289.564 253.231 288.085 247.466 281.244 243.671C281.209 243.652 281.18 243.625 281.158 243.593C281.136 243.561 281.122 243.525 281.117 243.487C281.111 243.448 281.115 243.41 281.128 243.374C281.141 243.338 281.162 243.306 281.19 243.28L281.313 243.167C281.513 242.975 281.733 242.948 281.973 243.087C287.908 246.486 290.427 251.957 292.079 258.381C292.172 258.748 292.315 259.109 292.508 259.462C292.544 259.53 292.596 259.588 292.659 259.633C292.722 259.678 292.794 259.707 292.87 259.72C292.946 259.732 293.024 259.727 293.098 259.705C293.172 259.682 293.239 259.643 293.296 259.59C297.354 255.822 300.909 251.914 303.75 247.225C311.508 234.426 315.615 220.594 319.899 205.974C320.027 205.539 320.304 205.339 320.73 205.375Z" fill="#C91A34"/>
<path d="M251.349 206.119C247.585 209.805 244.22 213.417 241.253 216.953C236.139 223.056 232.193 230.127 231.839 238.205C231.574 244.247 232.144 250.005 233.549 255.479C233.731 256.189 233.951 256.202 234.209 255.517C236.165 250.255 238.042 245.383 242.497 241.899C242.998 241.51 243.527 241.197 244.084 240.962C244.112 240.95 244.141 240.945 244.171 240.946C244.201 240.946 244.231 240.954 244.258 240.967C244.285 240.98 244.31 240.999 244.33 241.022C244.35 241.045 244.365 241.072 244.374 241.101L244.427 241.278C244.477 241.442 244.427 241.563 244.277 241.642C241.227 243.194 239.157 246.374 237.651 249.446C236.307 252.191 235.15 255.003 234.182 257.883C234.156 257.959 234.11 258.028 234.05 258.08C233.99 258.133 233.917 258.168 233.839 258.183C233.528 258.24 233.329 258.117 233.244 257.813C231.696 252.425 230.917 246.622 230.906 240.405C230.888 233.278 233.045 226.71 237.377 220.701C241.323 215.224 245.194 211.188 249.58 206.66C249.848 206.381 250.155 206.16 250.502 205.996C251.066 205.871 251.349 205.912 251.349 206.119Z" fill="#C91A34"/>
<path d="M215.642 293.154C214.806 285.902 213.374 278.979 211.348 272.384C211.34 272.359 211.339 272.331 211.344 272.305C211.349 272.279 211.36 272.254 211.376 272.233C211.392 272.211 211.413 272.194 211.437 272.182C211.461 272.171 211.487 272.164 211.514 272.165L211.675 272.17C211.9 272.177 212.048 272.288 212.12 272.502C215.932 283.706 217.337 295.847 217.781 308.143C217.789 308.35 217.692 308.428 217.492 308.378L217.336 308.341C217.076 308.276 216.938 308.112 216.924 307.848C216.623 302.859 216.196 297.961 215.642 293.154Z" fill="#C91A34"/>
<path d="M221.095 320.31C219.09 319.639 216.606 319.507 213.643 319.914C205.397 321.049 198.138 323.932 191.865 328.564C191.218 329.039 190.583 329.606 189.962 330.267C189.386 330.877 188.802 331.503 188.208 332.146C187.926 331.617 187.897 331.225 188.123 330.968C188.798 330.122 189.315 329.548 189.672 329.244C196.813 323.206 205.708 319.86 214.876 318.891C216.366 318.734 217.903 318.781 219.486 319.031C220.237 319.148 220.541 318.834 220.398 318.088C219.835 315.107 218.259 312.644 216.682 310.112C215.628 308.417 214.457 306.751 213.171 305.113C208.131 298.703 203.007 293.27 197.8 288.813C192.573 284.343 186.45 282.218 179.518 283.411C175.883 284.04 172.41 284.973 169.101 286.211C168.632 286.39 168.388 286.477 168.366 286.473C167.287 286.338 167.251 286.067 168.259 285.66C171.501 284.339 174.973 283.324 178.676 282.614C187.27 280.965 193.886 283.931 199.993 289.557C202.902 292.237 205.772 295.129 208.603 298.234C212.406 302.399 216.053 307.489 219.545 313.506C220.911 315.858 221.427 318.126 221.095 320.31Z" fill="#C91A34"/>
<path d="M289.752 341.883C295.074 339.599 300.591 337.877 306.302 336.717L319.009 334.169C319.078 334.156 319.144 334.126 319.2 334.082C319.255 334.039 319.3 333.982 319.33 333.917C326.032 319.671 333.023 305.587 340.304 291.666C340.351 291.579 340.426 291.511 340.518 291.474C340.609 291.436 340.709 291.432 340.803 291.462L340.953 291.511C340.981 291.52 341.007 291.535 341.029 291.555C341.051 291.575 341.068 291.6 341.079 291.628C341.091 291.655 341.096 291.685 341.094 291.715C341.093 291.744 341.085 291.773 341.071 291.8C337.614 298.673 334.142 305.571 330.654 312.495C327.265 319.225 323.871 326.223 320.472 333.489C320.444 333.551 320.432 333.62 320.439 333.689C320.447 333.757 320.472 333.822 320.513 333.877C320.555 333.932 320.61 333.974 320.674 334C320.737 334.026 320.807 334.035 320.874 334.024C329.145 332.786 337.484 332.574 345.89 333.387C353.509 334.126 361.299 336.353 367.84 340.1C372.415 342.72 376.8 345.951 380.996 349.795C381.2 349.98 381.238 350.192 381.109 350.432L381.039 350.555C381.022 350.587 380.997 350.615 380.968 350.636C380.938 350.658 380.904 350.672 380.867 350.678C380.831 350.685 380.794 350.682 380.759 350.672C380.724 350.662 380.691 350.644 380.664 350.619C375.124 345.516 369.443 341.636 363.62 338.981C349.772 332.659 333.42 332.922 318.553 335.202C312.098 336.191 305.691 337.607 299.333 339.452C298.021 339.834 296.597 340.28 295.06 340.791C293.326 341.369 291.557 341.733 289.752 341.883Z" fill="#C91A34"/>
<path d="M237.002 347.134C240.329 351.474 242.948 355.797 244.856 360.105C244.88 360.158 244.882 360.218 244.862 360.273C244.842 360.328 244.802 360.373 244.749 360.399L244.583 360.479C244.542 360.498 244.496 360.5 244.454 360.485C244.412 360.47 244.377 360.439 244.358 360.399C241.641 354.782 237.988 349.252 233.399 343.81C231.14 341.126 228.674 338.673 226 336.449C225.332 335.889 224.733 335.272 224.204 334.597C223.943 334.265 224.022 334.128 224.44 334.185C225.035 334.265 225.33 334.822 225.738 335.17C229.705 338.528 233.46 342.516 237.002 347.134Z" fill="#C91A34"/>
<path d="M193.575 342.215L191.715 344.822L189.86 337.375L193.355 341.513C193.428 341.599 193.466 341.71 193.462 341.824C193.462 341.952 193.5 342.083 193.575 342.215Z" fill="#C91A34"/>
<path d="M216.425 338.35C216.243 338.214 216.241 338.075 216.42 337.932L216.581 337.798C216.616 337.771 216.66 337.756 216.705 337.756C216.751 337.756 216.796 337.771 216.833 337.798C220.707 340.81 223.906 343.658 226.429 346.342C231.054 351.249 234.875 356.944 237.892 363.429C238.06 363.796 238.147 364.2 238.155 364.639C238.165 365.231 238.045 365.258 237.795 364.719C232.884 354.098 225.761 345.309 216.425 338.35Z" fill="#C91A34"/>
<path d="M227.217 359.917C228.295 361.448 229.206 363.108 230.048 364.783C230.341 365.368 230.184 365.538 229.576 365.292C229.526 365.274 229.421 365.122 229.26 364.837C224.408 356.229 218.017 348.777 210.544 342.327C210.529 342.314 210.517 342.298 210.508 342.28C210.5 342.262 210.495 342.243 210.495 342.223C210.494 342.203 210.498 342.183 210.505 342.164C210.513 342.145 210.524 342.128 210.538 342.113L210.646 342.011C210.692 341.965 210.755 341.937 210.82 341.935C210.886 341.933 210.95 341.957 210.999 342.001C215.174 345.58 218.734 349.111 221.679 352.594C223.17 354.357 225.016 356.798 227.217 359.917Z" fill="#C91A34"/>
<path d="M293.108 386.848C294.913 385.321 296.096 384.418 296.657 384.14C297.619 383.661 298.536 383.16 299.408 382.635C299.994 382.282 300.156 381.79 299.896 381.158C295.81 371.333 289.607 362.949 281.286 356.004C279.993 354.923 278.565 354.061 277.003 353.419C275.977 353.104 274.699 353.101 273.169 353.408C273.784 352.641 274.624 352.282 275.689 352.332C278.804 352.476 283.174 356.32 285.356 358.44C292.695 365.554 299.472 374.75 301.933 384.611C302.258 385.903 302.331 387.173 302.153 388.422C301.783 391.018 298.121 391.457 296.32 390.649C294.847 389.989 293.777 388.722 293.108 386.848Z" fill="#C91A34"/>
<path d="M236.198 386.367L235.71 386.302C235.645 386.249 235.626 386.163 235.651 386.045C235.665 385.97 235.71 385.901 235.785 385.837C241.732 380.937 248.193 376.893 255.166 373.707C255.191 373.695 255.219 373.689 255.247 373.69C255.275 373.691 255.302 373.699 255.327 373.712C255.352 373.726 255.374 373.745 255.39 373.768C255.407 373.791 255.418 373.818 255.423 373.846L255.445 373.996C255.461 374.083 255.447 374.174 255.406 374.253C255.366 374.332 255.3 374.396 255.22 374.435C250.219 376.84 245.68 379.466 241.602 382.314C240.144 383.331 238.342 384.682 236.198 386.367Z" fill="#C91A34"/>
<path d="M238.953 393.599C244.61 387.287 252.228 382.855 260.49 379.129C260.679 379.044 260.776 379.104 260.779 379.311C260.787 379.561 260.674 379.743 260.442 379.857C255.913 382.063 251.647 384.45 247.644 387.02C245.382 388.476 243.267 390.192 241.302 392.169C240.126 393.354 239.02 394.519 237.983 395.665C237.919 395.734 237.831 395.777 237.737 395.784C237.643 395.791 237.551 395.762 237.479 395.702L237.34 395.59C237.322 395.575 237.308 395.556 237.297 395.535C237.287 395.514 237.281 395.492 237.28 395.468C237.279 395.444 237.283 395.421 237.291 395.399C237.3 395.376 237.313 395.356 237.329 395.338C237.879 394.774 238.421 394.194 238.953 393.599Z" fill="#C91A34"/>
<path d="M243.945 399.064C250.307 392.936 257.443 388.017 265.353 384.306C265.382 384.292 265.415 384.285 265.447 384.286C265.48 384.288 265.512 384.297 265.541 384.313C265.569 384.33 265.593 384.352 265.611 384.38C265.628 384.408 265.639 384.439 265.642 384.472L265.658 384.654C265.669 384.768 265.645 384.882 265.588 384.982C265.531 385.081 265.445 385.161 265.342 385.21C257.629 388.947 250.748 393.704 244.701 399.481C244.632 399.548 244.545 399.594 244.451 399.613C244.357 399.632 244.259 399.624 244.17 399.589L244.041 399.535C243.766 399.428 243.734 399.271 243.945 399.064Z" fill="#C91A34"/>
<path d="M110.33 278.273C108.4 279.443 106.348 280.783 104.175 282.293C103.163 282.992 101.711 283.295 99.8162 283.203C99.7232 281.315 99.6696 279.434 99.6553 277.561C99.6178 273.701 99.1567 269.927 98.9262 266.217C98.8833 265.554 99.0441 264.91 99.4087 264.285C104.845 255.014 110.977 246.058 117.803 237.418C120.693 233.762 123.808 230.443 127.288 227.076C127.413 226.955 127.415 226.83 127.293 226.701L127.202 226.605C127.138 226.537 127.073 226.534 127.009 226.594C124.142 229.199 121.462 231.992 118.967 234.972C111.457 243.933 104.856 253.408 99.1621 263.396C98.8619 263.921 98.6885 263.882 98.642 263.279C97.8557 253.022 96.1991 243.221 93.6721 233.874C93.3719 232.768 93.0216 231.667 92.6213 230.572C92.2746 229.637 91.944 228.63 91.6294 227.552C90.8217 224.797 89.7851 221.976 88.5199 219.089C87.5334 216.83 86.3324 214.689 85.3352 212.441C85.1708 212.066 84.9653 211.706 84.7187 211.36C84.0968 210.492 83.8126 209.491 83.2282 208.624C82.4741 207.496 81.7199 206.292 80.9657 205.011C80.9166 204.929 80.8375 204.87 80.7453 204.846C80.6532 204.822 80.5552 204.835 80.4725 204.882L80.3438 204.963C80.3208 204.976 80.3006 204.994 80.2845 205.015C80.2685 205.036 80.2568 205.06 80.2503 205.086C80.2438 205.111 80.2426 205.138 80.2467 205.164C80.2508 205.189 80.2601 205.214 80.2741 205.236C84.0056 211.231 86.9829 217.235 89.2061 223.249C92.0333 230.893 94.3244 239.513 96.0793 249.109C96.519 251.507 97.1373 255.965 97.9343 262.481C98.3364 265.795 98.3364 268.974 98.642 272.213C98.6814 272.595 98.5634 272.652 98.2882 272.384C97.9379 272.042 97.5876 271.717 97.2374 271.41C89.8816 264.976 81.35 258.031 71.6424 250.576C69.4979 248.931 67.1907 247.275 64.7209 245.608C64.5565 245.494 64.4403 245.532 64.3724 245.721L64.3242 245.86C64.3132 245.891 64.3125 245.924 64.3221 245.956C64.3317 245.988 64.3512 246.016 64.3778 246.037C75.9869 254.783 87.3511 263.853 98.4705 273.246C98.6099 273.364 98.6814 273.514 98.6849 273.696L98.9423 283.294C91.5079 283.376 84.2505 282.141 77.1699 279.589C74.9932 279.001 72.9988 278.057 71.1867 276.758C68.1682 274.6 66.6403 271.603 68.313 268.166C69.1923 266.367 70.9186 265.233 72.3876 263.937C72.4421 263.888 72.4845 263.827 72.5112 263.759C72.538 263.691 72.5484 263.618 72.5416 263.545C72.5348 263.473 72.511 263.403 72.4722 263.342C72.4333 263.281 72.3805 263.23 72.3179 263.193C71.6388 262.793 70.8847 262.494 70.0554 262.294C58.8074 259.585 48.0633 255.169 39.7371 247.337C35.6303 243.478 30.1993 236.471 31.0571 230.754C32.0329 224.287 38.9651 223.013 44.4176 224.63C52.7544 227.097 58.8985 231.808 65.8093 236.69C67.121 237.618 68.7008 238.444 70.5487 239.169C74.0657 240.544 78.0009 239.217 77.8883 234.95C77.8526 233.473 77.5345 231.935 76.934 230.336C75.8832 227.524 74.5554 224.712 72.9506 221.9C70.1805 217.039 67.3909 212.225 64.5815 207.457C60.9733 201.333 56.3036 191.093 60.6999 184.375C63.0303 180.82 66.3472 179.124 70.6505 179.284C78.4674 179.573 86.3271 185.312 91.2434 191.307C97.5162 198.962 100.797 207.641 101.087 217.344C101.158 219.66 101.112 222.166 100.947 224.86C100.833 226.758 101.455 228.473 102.813 230.004C104.69 232.113 107.751 231.696 109.574 229.753C111.007 228.222 112.271 226.446 113.364 224.426C117.487 216.83 122.275 209.234 129.405 204.989C132.821 202.95 137.367 202.168 140.814 204.358C142.558 205.471 143.393 207.193 143.318 209.523C143.216 212.676 142.224 215.947 141.468 219.105C140.371 223.716 138.94 228.188 137.174 232.52C135.115 237.563 132 241.941 127.727 245.282C125.107 247.327 122.087 249.338 118.667 251.315C117.666 251.893 116.842 252.628 116.195 253.52C116.052 253.713 116.031 253.918 116.131 254.136C117.021 256.132 119.331 255.774 121.133 256.063C124.032 256.53 125.935 257.945 126.843 260.308C128.735 265.233 123.905 270.329 120.152 272.679C117.131 274.57 113.857 276.435 110.33 278.273Z" fill="#3A5946"/>
<path d="M261.637 218.217L259.83 207.527C262.647 207.662 265.428 207.687 268.173 207.602C278.198 207.297 289.934 204.074 295.044 194.562C295.094 194.462 295.176 194.403 295.29 194.385C295.358 194.374 295.417 194.392 295.467 194.439C295.539 194.51 295.565 194.594 295.548 194.69C295.33 195.814 294.942 196.86 294.384 197.827C290.1 205.225 284.712 211.178 277.169 215.471C274.074 217.234 270.496 218.347 266.436 218.811C263.962 219.096 262.363 218.898 261.637 218.217Z" fill="#D76972"/>
<path d="M239.656 276.26C241.64 276.26 243.248 274.654 243.248 272.673C243.248 270.692 241.64 269.087 239.656 269.087C237.672 269.087 236.064 270.692 236.064 272.673C236.064 274.654 237.672 276.26 239.656 276.26Z" fill="#D76972"/>
<path d="M239.758 301.451C241.57 299.952 238.894 298.346 237.608 297.784C236.178 297.156 236.235 296.955 237.779 297.179C239.94 297.495 241.404 299.658 241.039 301.676C240.224 306.199 234.396 306.606 233.372 301.912C233.158 300.916 233.503 300.256 234.407 299.931C236.594 299.155 237.806 303.062 239.758 301.451Z" fill="#D76972"/>
<path d="M221.095 320.31C221.198 320.899 221.486 321.265 221.958 321.407C222.548 321.586 223.314 322.028 224.258 322.735C220.77 324.355 217.354 325.845 214.012 327.205C210.149 328.778 206.128 331.407 201.949 335.09C199.426 337.317 197.414 339.931 195.913 342.932C195.841 343.078 195.788 343.248 195.752 343.44L195.232 343.317C194.774 342.803 194.379 342.427 194.047 342.188C193.886 342.074 193.729 342.083 193.575 342.215C193.5 342.083 193.462 341.952 193.462 341.824C193.466 341.71 193.428 341.599 193.355 341.513L189.86 337.375C189.03 335.891 188.48 334.148 188.208 332.146C188.802 331.503 189.386 330.877 189.962 330.267C190.583 329.606 191.218 329.039 191.865 328.564C198.138 323.932 205.397 321.049 213.643 319.914C216.606 319.507 219.09 319.639 221.095 320.31Z" fill="#D76972"/>
<path d="M277.003 353.419C278.565 354.061 279.993 354.923 281.286 356.004C289.607 362.949 295.81 371.333 299.896 381.158C300.156 381.79 299.994 382.282 299.408 382.635C298.536 383.16 297.619 383.661 296.657 384.14C296.096 384.418 294.913 385.321 293.108 386.848C293.019 386.809 292.924 386.727 292.824 386.602L291.864 386.506C291.689 386.488 291.553 386.404 291.457 386.254C290.004 384.017 290.09 381.452 290.074 378.92C290.036 374.178 287.881 370.077 285.323 366.25C282.543 362.085 279.07 358.998 274.906 356.989C274.856 356.964 274.812 356.927 274.779 356.881C274.746 356.835 274.725 356.782 274.717 356.726C274.709 356.671 274.715 356.614 274.734 356.561C274.753 356.507 274.784 356.46 274.826 356.422C275.823 355.529 276.549 354.528 277.003 353.419Z" fill="#D76972"/>
<path d="M320.73 205.375C320.304 205.339 320.027 205.539 319.899 205.974C315.615 220.593 311.508 234.426 303.75 247.225C300.909 251.914 297.354 255.822 293.296 259.59C293.239 259.643 293.172 259.682 293.098 259.705C293.024 259.727 292.946 259.732 292.87 259.72C292.794 259.707 292.722 259.678 292.659 259.633C292.596 259.588 292.544 259.53 292.508 259.462C292.315 259.109 292.172 258.748 292.079 258.381C290.427 251.957 287.908 246.486 281.973 243.087C281.733 242.948 281.513 242.975 281.313 243.167L281.19 243.28C281.162 243.306 281.141 243.338 281.128 243.374C281.115 243.41 281.111 243.448 281.117 243.487C281.122 243.525 281.136 243.561 281.158 243.593C281.18 243.625 281.209 243.652 281.244 243.67C288.085 247.466 289.564 253.231 291.773 260.04C291.817 260.176 291.893 260.301 291.993 260.403C292.094 260.505 292.217 260.582 292.353 260.629C292.489 260.675 292.634 260.689 292.776 260.669C292.918 260.65 293.054 260.598 293.172 260.516C294.731 259.453 296.114 258.268 297.322 256.962C301.676 252.273 305.275 247.004 308.12 241.155C313.583 229.935 317.138 218.292 320.757 206.44C328.037 209.548 335.173 212.907 342.164 216.514C346.196 218.595 349.236 220.458 351.284 222.103C357.739 227.29 363.315 234.549 367.936 241.379C368.465 242.164 368.944 242.982 369.373 243.831C377.837 256.614 383.214 264.983 385.505 268.937C387.106 271.71 388.91 275.17 390.915 279.316C395.929 289.705 400.006 298.903 403.144 306.911C405.932 314.027 408.068 320.453 409.551 326.188C411.02 331.869 411.336 337.866 410.5 344.179C409.797 347.348 409.122 350.801 407.98 353.643C407.036 356.002 405.875 358.249 404.495 360.383C403.112 362.529 401.058 364.585 399.316 366.651C391.58 374.124 381.543 377.331 371.115 379.675C363.638 381.36 356.299 382.875 349.096 384.22C345.701 384.855 342.204 385.558 338.604 386.329C326.556 388.916 314.841 390.745 303.461 391.816C301.123 392.041 298.148 392.271 295.976 391.27C294.046 390.378 292.677 388.952 291.87 386.993C292.145 386.615 292.463 386.484 292.824 386.602C292.924 386.727 293.019 386.809 293.108 386.848C293.777 388.722 294.847 389.989 296.32 390.649C298.121 391.457 301.783 391.018 302.153 388.422C302.331 387.173 302.258 385.903 301.933 384.611C299.472 374.75 292.695 365.554 285.356 358.44C283.174 356.32 278.804 352.476 275.689 352.332C274.624 352.282 273.784 352.641 273.169 353.408C273.534 354.214 273.35 354.853 272.617 355.324C269.856 353.36 275.051 349.35 276.649 348.338C280.838 345.701 285.206 343.549 289.752 341.883C291.557 341.733 293.326 341.369 295.06 340.791C296.597 340.28 298.021 339.834 299.333 339.452C305.691 337.607 312.098 336.191 318.553 335.202C333.42 332.922 349.772 332.659 363.62 338.981C369.443 341.636 375.124 345.516 380.664 350.619C380.691 350.644 380.724 350.662 380.759 350.672C380.794 350.682 380.831 350.685 380.867 350.678C380.904 350.672 380.938 350.658 380.968 350.636C380.997 350.615 381.022 350.587 381.039 350.555L381.109 350.432C381.238 350.192 381.2 349.98 380.996 349.795C376.8 345.951 372.415 342.72 367.84 340.1C361.299 336.353 353.509 334.126 345.89 333.387C337.484 332.574 329.145 332.786 320.874 334.024C320.806 334.035 320.737 334.026 320.673 334C320.61 333.974 320.555 333.932 320.513 333.877C320.472 333.822 320.447 333.757 320.439 333.689C320.432 333.62 320.444 333.551 320.472 333.489C323.871 326.223 327.265 319.225 330.654 312.495C334.142 305.571 337.614 298.673 341.071 291.8C341.085 291.773 341.093 291.744 341.094 291.715C341.096 291.685 341.091 291.655 341.079 291.628C341.068 291.6 341.051 291.575 341.029 291.555C341.007 291.535 340.981 291.52 340.953 291.511L340.802 291.462C340.709 291.432 340.609 291.436 340.518 291.474C340.426 291.511 340.351 291.579 340.304 291.666C333.023 305.587 326.032 319.671 319.33 333.917C319.3 333.982 319.255 334.039 319.2 334.082C319.144 334.126 319.078 334.156 319.009 334.169L306.302 336.717C305.001 336.167 303.681 335.818 302.34 335.668C296.689 335.036 290.926 334.522 285.334 333.468C285.095 325.303 284.746 317.148 284.289 309.004C283.435 293.841 282.355 279.12 281.051 264.842C280.736 261.416 280.337 258.002 279.855 254.601C279.212 250.099 278.075 247.385 275.035 244.784C274.549 244.366 274.511 243.913 274.923 243.424C280.259 237.008 285.231 230.443 289.838 223.73L296.636 211.943C296.948 211.397 297.102 210.778 297.081 210.155L296.588 196.194C305.471 195.788 314.243 199.54 320.73 205.375Z" fill="#EFD68A"/>
<path d="M250.502 205.996C250.155 206.16 249.848 206.381 249.58 206.66C245.194 211.188 241.323 215.224 237.377 220.701C233.045 226.71 230.888 233.278 230.906 240.405C230.917 246.622 231.696 252.424 233.244 257.813C233.329 258.117 233.528 258.24 233.839 258.183C233.917 258.168 233.99 258.133 234.05 258.08C234.11 258.027 234.156 257.959 234.182 257.883C235.15 255.003 236.307 252.191 237.651 249.446C239.157 246.374 241.227 243.194 244.277 241.642C244.427 241.563 244.477 241.442 244.427 241.278L244.374 241.101C244.365 241.072 244.35 241.045 244.33 241.022C244.31 240.999 244.285 240.98 244.258 240.967C244.231 240.954 244.201 240.946 244.171 240.946C244.141 240.945 244.112 240.95 244.084 240.962C243.527 241.197 242.998 241.51 242.497 241.899C238.042 245.383 236.165 250.255 234.209 255.517C233.951 256.202 233.731 256.189 233.549 255.479C232.144 250.005 231.574 244.247 231.839 238.205C232.193 230.127 236.139 223.056 241.253 216.953C244.22 213.417 247.585 209.805 251.349 206.119L259.83 207.527L261.637 218.217L262.061 221.263C257.629 226.598 254.451 232.591 252.528 239.243C251.581 242.509 250.863 245.471 250.373 248.13C249.033 255.329 247.735 263.038 247.103 270.644C246.702 275.484 246.241 280.301 245.719 285.098C244.953 292.137 244.4 299.529 243.848 306.756C243.741 308.13 243.432 311.565 242.921 317.061C242.599 320.487 242.351 323.925 242.176 327.376C241.768 327.651 241.175 327.731 240.396 327.617C236.482 327.039 233.458 326.519 231.324 326.059C230.481 325.881 229.535 325.758 228.488 325.69L224.258 322.735C223.314 322.028 222.548 321.586 221.958 321.407C221.486 321.265 221.198 320.899 221.095 320.31C221.427 318.126 220.911 315.858 219.545 313.506C216.053 307.489 212.406 302.399 208.603 298.234C205.772 295.129 202.902 292.237 199.993 289.557C193.886 283.931 187.27 280.965 178.676 282.614C174.973 283.324 171.501 284.339 168.259 285.66C167.251 286.067 167.287 286.338 168.366 286.473C168.388 286.477 168.632 286.39 169.101 286.211C172.41 284.973 175.883 284.04 179.518 283.411C186.45 282.218 192.573 284.343 197.8 288.813C203.007 293.27 208.131 298.703 213.171 305.113C214.457 306.751 215.628 308.417 216.682 310.112C218.259 312.644 219.835 315.107 220.398 318.088C220.541 318.834 220.237 319.148 219.486 319.031C217.903 318.781 216.366 318.734 214.876 318.891C205.708 319.86 196.813 323.206 189.672 329.244C189.315 329.548 188.798 330.122 188.123 330.968C188.023 331.025 187.94 331.039 187.876 331.011C187.826 330.989 187.794 330.952 187.779 330.898C185.807 322.94 183.814 314.987 181.802 307.04C180.84 303.246 178.492 301.164 174.757 300.793C163.094 299.644 151.188 298.411 139.04 297.094C140.505 293.118 142.596 289.521 145.312 286.302C147.893 283.244 150.611 280.382 153.467 277.716C158.349 273.162 162.971 269.122 167.331 265.597C189.627 247.578 210.822 230.241 230.917 213.586C236.074 209.309 242.229 207.832 248.663 206.563C249.335 206.431 249.848 206.056 250.201 205.439C250.327 205.478 250.427 205.532 250.502 205.6C250.587 205.678 250.607 205.767 250.561 205.867L250.502 205.996ZM243.248 272.673C243.248 271.722 242.869 270.81 242.196 270.137C241.522 269.465 240.608 269.087 239.656 269.087C238.703 269.087 237.789 269.465 237.116 270.137C236.442 270.81 236.064 271.722 236.064 272.673C236.064 273.624 236.442 274.537 237.116 275.209C237.789 275.882 238.703 276.26 239.656 276.26C240.608 276.26 241.522 275.882 242.196 275.209C242.869 274.537 243.248 273.624 243.248 272.673ZM215.642 293.154C216.196 297.961 216.623 302.859 216.924 307.848C216.938 308.112 217.076 308.276 217.336 308.341L217.492 308.378C217.692 308.428 217.789 308.349 217.781 308.142C217.337 295.847 215.932 283.706 212.12 272.502C212.048 272.288 211.9 272.177 211.675 272.17L211.514 272.165C211.487 272.164 211.461 272.17 211.437 272.182C211.413 272.194 211.392 272.211 211.376 272.233C211.36 272.254 211.349 272.279 211.344 272.305C211.339 272.331 211.34 272.359 211.348 272.384C213.374 278.979 214.806 285.902 215.642 293.154ZM239.758 301.451C237.806 303.062 236.594 299.155 234.407 299.931C233.503 300.256 233.158 300.916 233.372 301.912C234.396 306.606 240.224 306.199 241.039 301.676C241.404 299.658 239.94 297.495 237.779 297.179C236.235 296.955 236.178 297.156 237.608 297.784C238.894 298.346 241.57 299.952 239.758 301.451Z" fill="#EFD68A"/>
<path d="M262.061 221.263C263.619 223.696 265.665 225.559 268.199 226.851C272.258 228.917 277.265 228.955 281.549 227.472C283.851 226.68 286.614 225.433 289.838 223.73C285.231 230.443 280.259 237.008 274.923 243.424C274.512 243.913 274.549 244.366 275.035 244.784C278.075 247.385 279.212 250.099 279.855 254.601C280.337 258.002 280.736 261.416 281.051 264.842C282.355 279.12 283.435 293.841 284.289 309.004C284.746 317.148 285.095 325.303 285.334 333.468C271.18 331.658 256.953 329.756 242.653 327.761C242.213 327.701 242.054 327.572 242.176 327.376C242.351 323.925 242.599 320.487 242.921 317.061C243.432 311.565 243.741 308.13 243.848 306.756C244.401 299.529 244.953 292.137 245.719 285.098C246.241 280.301 246.702 275.484 247.103 270.644C247.735 263.038 249.033 255.329 250.373 248.13C250.863 245.471 251.581 242.509 252.528 239.244C254.451 232.591 257.629 226.598 262.061 221.263Z" fill="#FADFE2"/>
<path d="M110.33 278.273C113.136 278.54 115.239 279.079 116.64 279.889C117.348 280.301 117.568 281.516 117.557 282.4C117.503 286.511 117.442 290.684 117.375 294.92L77.3254 290.841C77.2432 290.481 77.195 290.174 77.1807 289.921C76.9805 286.545 76.977 283.101 77.17 279.589C84.2505 282.141 91.5079 283.376 98.9423 283.294L99.8162 283.203C101.711 283.295 103.163 282.992 104.175 282.293C106.348 280.783 108.4 279.443 110.33 278.273Z" fill="#FADFE2"/>
<path d="M195.232 343.317C195.226 343.617 195.205 343.863 194.974 344.093C194.206 344.864 193.357 345.541 192.428 346.122C192.303 346.201 192.067 346.178 191.72 346.053L191.715 344.822L193.575 342.215C193.729 342.083 193.886 342.074 194.047 342.188C194.379 342.427 194.774 342.803 195.232 343.317Z" fill="#FADFE2"/>
<path d="M418.467 345.186C417.548 345.218 416.908 345.207 416.547 345.153C414.564 344.843 412.548 344.518 410.5 344.179C411.336 337.866 411.02 331.869 409.551 326.188C408.068 320.453 405.932 314.027 403.144 306.911C400.006 298.903 395.929 289.705 390.915 279.316C388.91 275.17 387.107 271.71 385.505 268.937C383.214 264.983 377.837 256.614 369.373 243.831C371.65 244.088 374.325 244.497 377.399 245.057C388.985 247.166 400.463 251.978 409.293 259.735C426.712 275.029 427.152 297.742 423.699 319.373C422.341 327.87 420.597 336.474 418.467 345.186Z" fill="#999C72"/>
<path d="M77.3254 290.842L117.375 294.921L139.04 297.094C151.188 298.411 163.094 299.644 174.757 300.793C178.492 301.164 180.84 303.246 181.802 307.04C183.814 314.987 185.807 322.94 187.78 330.898C187.794 330.952 187.826 330.989 187.876 331.011C187.94 331.039 188.023 331.025 188.123 330.968C187.897 331.225 187.926 331.617 188.208 332.146C188.48 334.148 189.03 335.891 189.86 337.376L191.715 344.822L191.72 346.053L193.527 352.493L196.567 364.478C196.619 364.678 196.73 364.857 196.886 364.992C197.043 365.127 197.236 365.211 197.441 365.233L224.96 367.979L233.758 369.264L239.05 370.061C239.025 370.147 238.991 370.241 238.948 370.345C238.909 370.434 238.848 370.511 238.766 370.575C235.792 372.945 233.115 375.28 230.734 377.582C229.666 376.904 228.25 376.569 226.488 376.576C223.99 376.592 221.958 377.828 219.787 378.599C219.597 378.664 219.553 378.781 219.653 378.953C219.806 379.217 220.031 379.345 220.328 379.338C223.356 379.249 226.17 379.433 228.772 379.889L227.866 381.329C225.918 381.258 223.986 381.072 222.071 380.773C219.343 380.352 217.428 380.12 216.323 380.077C213.56 379.966 210.728 380.02 207.826 380.237C207.622 380.255 207.465 380.177 207.354 380.002C207.279 379.884 207.248 379.756 207.263 379.616C207.273 379.515 207.262 379.412 207.228 379.314C207.195 379.216 207.141 379.125 207.069 379.047C206.998 378.969 206.91 378.905 206.811 378.86C206.713 378.814 206.605 378.787 206.496 378.781C204.566 378.678 202.586 378.594 200.556 378.53C200.248 378.523 200.184 378.644 200.363 378.894C200.691 379.358 200.87 379.907 200.899 380.542C200.92 381.049 201.074 381.469 201.36 381.8C201.674 382.164 202.101 382.327 202.641 382.288C204.014 382.177 205.32 382.195 206.56 382.341C209.745 382.705 212.935 382.561 216.066 383.016C219.536 383.519 222.966 383.947 226.354 384.3C226.49 384.315 226.606 384.227 226.703 384.038C226.76 384.316 226.739 384.604 226.638 384.9C226.081 384.732 225.579 384.786 225.132 385.06C224.982 385.153 224.819 385.207 224.644 385.221C222.296 385.442 219.992 385.253 217.733 384.654C216.237 384.252 214.972 384.236 213.482 384.263C213.373 384.266 213.265 384.3 213.171 384.359L209.793 386.581C209.679 386.656 209.582 386.75 209.504 386.864C209.243 387.257 208.848 387.444 208.319 387.426C208.284 387.425 208.249 387.432 208.218 387.447C208.186 387.462 208.158 387.484 208.136 387.512L207.927 387.79C207.834 387.919 207.867 387.997 208.024 388.026C208.46 388.105 208.867 388.047 209.246 387.855C209.394 387.781 209.558 387.746 209.723 387.753C212.865 387.871 215.857 388.684 218.94 388.727C220.596 388.754 222.483 387.073 223.834 386.238C224.571 385.785 225.488 385.476 226.585 385.312C226.603 385.308 226.615 385.298 226.622 385.28C226.637 385.233 226.649 385.187 226.66 385.141C226.939 386.097 227.507 386.682 228.365 386.897C230.066 387.318 231.905 387.396 233.882 387.132C234.579 387.036 235.109 386.64 235.71 386.302L236.198 386.367C236.491 388.169 236.532 390.226 236.321 392.539C235.56 393.06 234.587 393.59 233.404 394.128C230.205 395.588 227.014 397.058 223.829 398.539C218.436 401.055 213.021 403.245 207.568 405.862C205.899 406.665 204.098 406.949 202.164 406.713C196.485 406.018 190.95 405.272 185.56 404.476C182.3 403.994 179.014 403.769 175.738 403.255C173.433 402.897 170.972 402.886 168.645 402.495C164.12 401.741 159.466 401.264 154.968 400.638C152.445 400.288 149.632 399.947 146.529 399.615C142.308 399.162 137.556 398.573 132.274 397.849C125.747 396.95 117.553 395.961 107.692 394.883C103.707 394.448 100.158 394.023 97.0444 393.609C91.9082 392.928 86.8472 392.235 81.8611 391.532C80.3063 391.35 78.639 391.297 77.3737 390.478C76.0619 389.628 75.1827 388.411 74.7359 386.827C70.2288 370.843 65.7199 354.864 61.2093 338.89C60.9198 337.873 60.6428 336.781 60.3783 335.614C60.1066 334.437 59.7796 333.4 59.3971 332.504C55.6621 318.986 52.4274 307.541 49.6931 298.17C48.6316 294.535 49.1838 289.53 53.5479 288.732C54.1591 288.622 55.9748 288.722 58.995 289.032C65.0998 289.653 71.2099 290.256 77.3254 290.842ZM125.266 351.508C125.325 351.513 125.384 351.504 125.438 351.482C125.492 351.46 125.54 351.425 125.578 351.38C125.616 351.336 125.642 351.283 125.655 351.226C125.668 351.168 125.667 351.109 125.652 351.053L122.452 338.484C122.433 338.41 122.391 338.343 122.332 338.294C122.274 338.245 122.201 338.216 122.125 338.211L107.016 337.033C106.958 337.028 106.899 337.036 106.845 337.058C106.791 337.081 106.743 337.115 106.705 337.16C106.667 337.205 106.64 337.258 106.627 337.315C106.615 337.372 106.616 337.431 106.63 337.488L109.826 350.057C109.845 350.131 109.886 350.197 109.945 350.246C110.004 350.295 110.077 350.324 110.153 350.33L125.266 351.508ZM200.534 377.598C200.849 377.727 201.167 377.798 201.488 377.812C203.297 377.88 205.168 377.889 207.102 377.839C207.752 377.821 208.392 377.609 209.021 377.202C209.632 376.806 210.277 376.422 210.957 376.051C212.122 375.42 212.05 374.986 210.742 374.75C207.257 374.122 203.519 373.757 199.526 373.653C199.487 373.652 199.448 373.66 199.412 373.677C199.376 373.693 199.344 373.718 199.319 373.749C199.293 373.78 199.275 373.816 199.266 373.855C199.256 373.894 199.255 373.935 199.263 373.974L199.859 376.795C199.897 376.975 199.978 377.142 200.096 377.282C200.214 377.422 200.364 377.531 200.534 377.598ZM209.059 378.803C210.372 378.423 211.739 378.508 213.01 377.994C214.701 377.309 216.273 376.622 217.728 375.934C217.774 375.912 217.812 375.876 217.836 375.831C217.86 375.786 217.869 375.733 217.862 375.682C217.837 375.536 217.751 375.446 217.605 375.414C214.313 374.659 212.468 375.912 209.085 378.107C208.921 378.214 208.816 378.349 208.769 378.514C208.69 378.788 208.787 378.885 209.059 378.803ZM220.039 377.748C220.843 377.381 221.654 377.068 222.473 376.811C222.716 376.736 222.912 376.592 223.062 376.378C223.088 376.341 223.103 376.298 223.107 376.253C223.111 376.209 223.103 376.164 223.084 376.123C223.065 376.083 223.035 376.048 222.999 376.022C222.962 375.996 222.919 375.981 222.875 375.976C221.427 375.848 219.996 375.81 218.65 376.501C217.063 377.318 215.544 378.046 214.093 378.685C213.896 378.771 213.684 378.81 213.455 378.803C213.366 378.799 213.316 378.842 213.305 378.931L213.289 379.065C213.282 379.122 213.307 379.154 213.364 379.161C214.827 379.327 216.141 378.829 217.556 378.546C218.428 378.374 219.256 378.109 220.039 377.748ZM210.463 385.216C211.117 384.712 211.847 384.307 212.651 384.001C213.201 383.794 213.183 383.665 212.597 383.615C209.33 383.33 205.708 383.142 201.73 383.053C201.401 383.046 201.312 383.189 201.462 383.481C201.669 383.881 201.803 384.307 201.864 384.761C201.904 385.072 202.047 385.362 202.272 385.583C202.496 385.804 202.788 385.944 203.102 385.981C203.967 386.081 204.784 386.083 205.552 385.986C206.828 385.826 208.129 385.696 209.455 385.596C209.831 385.571 210.167 385.444 210.463 385.216ZM202.738 387.63C202.902 387.937 203.159 388.094 203.51 388.101C204.233 388.112 204.823 388.176 205.515 387.865C206.462 387.437 207.416 387.109 208.378 386.88C208.553 386.841 208.628 386.732 208.603 386.554L208.581 386.404C208.579 386.385 208.569 386.368 208.553 386.356C208.537 386.344 208.516 386.338 208.496 386.34L202.818 386.458C202.346 386.465 202.223 386.677 202.448 387.095L202.738 387.63ZM205.515 388.818C204.757 388.75 203.994 388.7 203.226 388.668C202.965 388.658 202.873 388.777 202.952 389.027L203.536 390.826C203.608 391.04 203.751 391.179 203.965 391.243C206.031 391.861 208.122 392.258 210.238 392.437C211.439 392.537 212.586 392.348 213.68 391.869C214.974 391.302 216.15 390.654 217.208 389.926C217.251 389.896 217.285 389.854 217.305 389.805C217.326 389.756 217.332 389.703 217.324 389.652C217.315 389.6 217.292 389.552 217.258 389.513C217.223 389.475 217.178 389.447 217.127 389.434C214.136 388.613 211.023 388.397 207.788 388.786C207.02 388.879 206.262 388.89 205.515 388.818ZM205.622 396.618L209.675 394.284C209.818 394.202 209.972 394.141 210.136 394.102C210.39 394.041 210.626 393.938 210.844 393.791C211.055 393.652 211.035 393.566 210.785 393.534L205.193 392.838C204.65 392.771 204.428 393.006 204.528 393.545L205.043 396.35C205.054 396.411 205.08 396.469 205.119 396.518C205.157 396.567 205.207 396.607 205.263 396.633C205.32 396.659 205.382 396.672 205.445 396.669C205.507 396.666 205.568 396.649 205.622 396.618Z" fill="#918CB5"/>
<path d="M242.176 327.376C242.054 327.572 242.213 327.701 242.653 327.761C256.953 329.756 271.18 331.658 285.334 333.468C290.926 334.522 296.689 335.036 302.34 335.668C303.681 335.818 305.001 336.167 306.302 336.717C300.591 337.877 295.074 339.599 289.752 341.883C285.206 343.549 280.838 345.701 276.649 348.338C275.051 349.35 269.856 353.36 272.617 355.324C268.414 357.216 264.137 358.946 259.787 360.517C255.665 362.005 251.96 363.68 248.148 365.506C248.127 365.516 248.112 365.511 248.105 365.49L248.041 365.372C247.994 365.286 248.014 365.218 248.1 365.168C251.89 362.856 251.767 358.836 250.845 354.966C250.051 351.625 248.475 348.43 246.792 345.319C244.783 341.608 242.522 338.375 240.01 335.62C238.791 334.285 236.882 332.568 234.284 330.47C232.35 328.907 230.418 327.314 228.488 325.69C229.535 325.758 230.481 325.881 231.324 326.059C233.458 326.519 236.482 327.039 240.396 327.617C241.175 327.731 241.768 327.651 242.176 327.376Z" fill="#E5B5A2"/>
<path d="M81.8611 391.532C80.0561 392.578 78.5692 393.7 77.4005 394.899C77.2865 395.017 77.2219 395.173 77.22 395.337C77.218 395.501 77.2787 395.661 77.3897 395.782C79.0678 397.613 81.9093 398.395 84.3005 398.796C86.4629 399.157 88.6736 399.48 90.9325 399.765C126.006 404.224 161.15 408.801 196.315 413.26C198.734 413.567 201.183 413.797 203.66 413.951C206.453 414.127 208.624 413.64 211.053 412.554C217.229 409.791 223.111 406.874 229.196 404.16C232.273 402.79 235.356 401.407 238.444 400.011C239.506 402.278 241.353 403.464 243.988 403.571C248.177 403.739 252.507 403.148 256.978 401.799C261.078 400.565 264.216 399.49 266.393 398.577C272.111 396.175 277.501 393.93 282.562 391.843C289.757 394.177 297.333 395.394 305.289 395.493C315.679 395.622 325.151 395.301 333.704 394.53C347.912 393.245 362.661 391.596 376.573 390.071C385.069 389.136 394.834 387.867 405.868 386.265C414.721 384.98 422.504 383.563 429.216 382.014C434.626 380.762 440.159 379.199 445.021 376.367C445.84 375.889 446.549 375.3 447.15 374.601C447.384 374.331 447.504 373.981 447.486 373.624C447.468 373.268 447.313 372.931 447.053 372.684C445.67 371.374 443.792 370.423 441.419 369.831C438.019 368.985 434.583 368.393 431.109 368.054C420.525 367.026 409.872 366.089 399.316 366.651C401.058 364.585 403.112 362.529 404.495 360.383C405.875 358.249 407.036 356.002 407.98 353.643C409.122 350.801 409.797 347.348 410.5 344.179C412.548 344.518 414.564 344.843 416.547 345.153C416.908 345.207 417.548 345.218 418.467 345.186C436.395 347.519 454.293 349.827 472.16 352.107C474.648 352.423 479.023 352.691 478.444 356.341C478.33 357.069 477.868 357.728 477.061 358.317C463.336 368.323 450.96 377.211 439.933 384.98C429.164 392.564 418.483 400.088 407.889 407.554C375.524 430.361 343.567 452.874 312.018 475.093C307.97 477.941 304.694 480.858 299.295 480.104C246.532 472.681 191.481 464.869 134.139 456.668C114.227 453.824 93.9008 450.919 73.1597 447.953C55.5781 445.444 38.6935 443.053 22.5058 440.78C18.9388 440.277 15.2466 439.731 11.4293 439.142C10.984 439.071 10.5782 438.845 10.2838 438.504C9.98944 438.163 9.82545 437.729 9.82093 437.279C9.73872 428.386 9.59754 419.127 9.39738 409.502C9.31517 405.48 9.29373 401.91 9.33304 398.791C9.49388 385.216 9.68332 372.063 9.90134 359.334C9.90448 359.157 9.95485 358.985 10.0472 358.834C10.1396 358.683 10.2706 358.56 10.4268 358.477L59.3971 332.504C59.7796 333.4 60.1066 334.437 60.3783 335.614C60.6427 336.781 60.9197 337.873 61.2093 338.89C65.7199 354.864 70.2288 370.843 74.7359 386.827C75.1827 388.411 76.0619 389.628 77.3737 390.478C78.6389 391.297 80.3063 391.35 81.8611 391.532Z" fill="#E5B5A2"/>
<path d="M216.168 363.45C218.806 365.17 221.736 366.68 224.96 367.979L197.441 365.233C197.236 365.211 197.043 365.127 196.886 364.992C196.73 364.857 196.619 364.678 196.567 364.478L193.527 352.492C201.065 356.486 208.612 360.138 216.168 363.45Z" fill="#E5B5A2"/>
<path d="M239.05 370.061L233.758 369.264C236.659 368.509 239.479 367.353 242.363 366.881C243.743 366.653 245.108 366.376 246.459 366.052C246.464 366.052 246.469 366.053 246.473 366.055C246.477 366.058 246.48 366.061 246.482 366.065C246.484 366.069 246.484 366.073 246.483 366.076C246.482 366.079 246.479 366.082 246.475 366.084L239.05 370.061Z" fill="#E5B5A2"/>
<path d="M195.752 343.44C197.603 346.492 200.071 349.425 203.156 352.241C208.213 356.848 212.551 360.584 216.168 363.45C208.612 360.138 201.065 356.486 193.527 352.492L191.72 346.053C192.067 346.178 192.303 346.201 192.428 346.122C193.357 345.541 194.206 344.864 194.974 344.094C195.205 343.863 195.226 343.617 195.232 343.317L195.752 343.44Z" fill="#D4A28A"/>
<path d="M282.562 391.843C285.175 390.594 287.513 389.591 289.575 388.834C290.461 388.513 291.226 387.899 291.87 386.993C292.677 388.952 294.046 390.378 295.976 391.27C298.148 392.271 301.123 392.041 303.461 391.816C314.841 390.745 326.556 388.916 338.604 386.329C342.204 385.558 345.701 384.855 349.097 384.22C356.299 382.875 363.638 381.36 371.115 379.675C381.543 377.331 391.58 374.124 399.316 366.651C409.873 366.089 420.525 367.026 431.109 368.054C434.583 368.393 438.019 368.985 441.419 369.831C443.792 370.423 445.67 371.374 447.053 372.684C447.313 372.931 447.468 373.268 447.486 373.624C447.504 373.981 447.384 374.331 447.15 374.601C446.549 375.3 445.84 375.889 445.021 376.367C440.159 379.199 434.626 380.762 429.216 382.014C422.504 383.563 414.721 384.98 405.868 386.265C394.834 387.867 385.069 389.136 376.573 390.071C362.661 391.596 347.912 393.245 333.704 394.53C325.151 395.301 315.679 395.622 305.289 395.493C297.333 395.394 289.757 394.177 282.562 391.843Z" fill="#D4A28A"/>
<path d="M236.321 392.539L238.444 400.011C235.356 401.407 232.273 402.79 229.196 404.16C223.111 406.874 217.229 409.791 211.053 412.554C208.624 413.64 206.453 414.127 203.66 413.951C201.183 413.797 198.734 413.567 196.315 413.26C161.15 408.801 126.006 404.224 90.9325 399.765C88.6736 399.48 86.4629 399.157 84.3005 398.796C81.9093 398.395 79.0678 397.613 77.3897 395.782C77.2787 395.661 77.218 395.501 77.22 395.337C77.2219 395.173 77.2865 395.017 77.4005 394.899C78.5692 393.7 80.0561 392.578 81.8611 391.532C86.8471 392.235 91.9082 392.928 97.0444 393.609C100.158 394.023 103.707 394.448 107.692 394.883C117.553 395.961 125.747 396.949 132.274 397.849C137.556 398.573 142.308 399.162 146.529 399.615C149.632 399.947 152.445 400.288 154.968 400.638C159.466 401.264 164.12 401.74 168.645 402.495C170.972 402.886 173.433 402.897 175.738 403.255C179.014 403.769 182.3 403.994 185.56 404.476C190.95 405.272 196.485 406.018 202.164 406.713C204.098 406.949 205.899 406.665 207.568 405.862C213.021 403.245 218.436 401.055 223.829 398.539C227.014 397.058 230.205 395.588 233.404 394.128C234.587 393.59 235.56 393.06 236.321 392.539Z" fill="#D4A28A"/>
<path d="M200.534 377.598C200.364 377.531 200.214 377.422 200.096 377.282C199.978 377.142 199.896 376.975 199.859 376.795L199.263 373.974C199.255 373.935 199.256 373.894 199.266 373.855C199.275 373.816 199.293 373.78 199.319 373.749C199.344 373.718 199.376 373.693 199.412 373.677C199.447 373.66 199.487 373.652 199.526 373.653C203.519 373.757 207.257 374.122 210.742 374.75C212.05 374.986 212.122 375.42 210.957 376.051C210.277 376.422 209.632 376.806 209.021 377.202C208.392 377.609 207.752 377.821 207.102 377.839C205.168 377.889 203.297 377.88 201.488 377.812C201.167 377.798 200.849 377.727 200.534 377.598Z" fill="#4645CE"/>
<path d="M209.059 378.803C208.787 378.885 208.69 378.788 208.769 378.514C208.816 378.349 208.921 378.214 209.085 378.107C212.468 375.912 214.313 374.659 217.605 375.414C217.751 375.446 217.837 375.536 217.862 375.682C217.869 375.733 217.86 375.785 217.836 375.831C217.812 375.876 217.774 375.912 217.728 375.933C216.273 376.622 214.701 377.309 213.01 377.994C211.739 378.508 210.372 378.423 209.059 378.803Z" fill="#4645CE"/>
<path d="M217.556 378.546C216.141 378.829 214.827 379.327 213.364 379.161C213.307 379.154 213.282 379.122 213.289 379.065L213.305 378.931C213.316 378.842 213.366 378.799 213.455 378.803C213.684 378.81 213.896 378.771 214.093 378.685C215.544 378.046 217.063 377.318 218.65 376.501C219.996 375.81 221.427 375.848 222.875 375.976C222.919 375.98 222.962 375.996 222.999 376.022C223.035 376.048 223.065 376.083 223.084 376.123C223.103 376.164 223.111 376.209 223.107 376.253C223.103 376.298 223.088 376.341 223.062 376.378C222.912 376.592 222.716 376.736 222.473 376.811C221.654 377.068 220.843 377.381 220.039 377.748C219.256 378.109 218.428 378.374 217.556 378.546Z" fill="#4645CE"/>
<path d="M230.734 377.582L228.772 379.889C226.17 379.433 223.355 379.249 220.328 379.338C220.031 379.345 219.806 379.217 219.653 378.953C219.553 378.781 219.597 378.663 219.787 378.599C221.958 377.828 223.99 376.592 226.488 376.576C228.25 376.569 229.666 376.904 230.734 377.582Z" fill="#4645CE"/>
<path d="M227.866 381.329L226.703 384.038C226.606 384.227 226.49 384.314 226.354 384.3C222.966 383.947 219.536 383.519 216.066 383.016C212.935 382.56 209.745 382.705 206.56 382.341C205.32 382.195 204.014 382.177 202.641 382.288C202.101 382.327 201.674 382.164 201.36 381.8C201.074 381.468 200.92 381.049 200.899 380.542C200.87 379.907 200.691 379.358 200.363 378.894C200.184 378.644 200.248 378.523 200.556 378.53C202.586 378.594 204.566 378.678 206.496 378.781C206.605 378.787 206.713 378.814 206.811 378.86C206.91 378.905 206.998 378.969 207.069 379.047C207.141 379.125 207.195 379.216 207.228 379.314C207.262 379.412 207.273 379.515 207.263 379.616C207.248 379.755 207.279 379.884 207.354 380.002C207.465 380.177 207.622 380.255 207.826 380.237C210.728 380.02 213.56 379.966 216.323 380.077C217.428 380.12 219.343 380.351 222.071 380.773C223.986 381.072 225.918 381.258 227.866 381.329Z" fill="#4645CE"/>
<path d="M210.463 385.216C210.167 385.444 209.831 385.571 209.455 385.596C208.129 385.696 206.828 385.826 205.552 385.986C204.784 386.083 203.967 386.081 203.102 385.981C202.788 385.944 202.496 385.804 202.272 385.583C202.047 385.362 201.904 385.072 201.864 384.761C201.803 384.307 201.669 383.881 201.462 383.481C201.312 383.189 201.401 383.046 201.73 383.053C205.708 383.142 209.33 383.33 212.597 383.615C213.183 383.665 213.201 383.793 212.651 384C211.847 384.307 211.117 384.712 210.463 385.216Z" fill="#4645CE"/>
<path d="M226.638 384.9L226.66 385.141C226.649 385.187 226.637 385.233 226.622 385.28C226.615 385.298 226.603 385.308 226.585 385.312C225.488 385.476 224.571 385.785 223.834 386.238C222.483 387.073 220.596 388.754 218.94 388.727C215.857 388.684 212.865 387.871 209.723 387.753C209.558 387.746 209.394 387.781 209.246 387.855C208.867 388.047 208.46 388.104 208.024 388.026C207.867 387.997 207.834 387.919 207.927 387.79L208.136 387.512C208.158 387.484 208.186 387.462 208.218 387.447C208.249 387.432 208.284 387.425 208.319 387.426C208.848 387.444 209.243 387.257 209.504 386.864C209.582 386.75 209.679 386.656 209.793 386.581L213.171 384.359C213.265 384.3 213.373 384.266 213.482 384.263C214.972 384.236 216.237 384.252 217.733 384.654C219.992 385.253 222.296 385.442 224.644 385.221C224.819 385.207 224.982 385.153 225.132 385.06C225.579 384.786 226.081 384.732 226.638 384.9Z" fill="#4645CE"/>
<path d="M202.738 387.63L202.448 387.095C202.223 386.677 202.346 386.465 202.818 386.458L208.496 386.34C208.516 386.338 208.537 386.344 208.553 386.356C208.569 386.368 208.579 386.385 208.581 386.404L208.603 386.554C208.628 386.732 208.553 386.841 208.378 386.88C207.416 387.109 206.462 387.437 205.515 387.865C204.823 388.176 204.233 388.112 203.51 388.101C203.159 388.094 202.902 387.937 202.738 387.63Z" fill="#4645CE"/>
<path d="M207.788 388.786C211.023 388.397 214.136 388.613 217.127 389.434C217.178 389.447 217.223 389.475 217.258 389.513C217.292 389.552 217.315 389.6 217.324 389.651C217.332 389.703 217.326 389.756 217.305 389.805C217.285 389.854 217.251 389.896 217.208 389.926C216.15 390.654 214.974 391.302 213.68 391.869C212.586 392.348 211.439 392.537 210.238 392.437C208.122 392.258 206.031 391.861 203.965 391.243C203.751 391.179 203.608 391.04 203.536 390.826L202.952 389.027C202.873 388.777 202.965 388.658 203.225 388.668C203.994 388.7 204.757 388.75 205.515 388.818C206.262 388.89 207.02 388.879 207.788 388.786Z" fill="#4645CE"/>
<path d="M205.622 396.618C205.568 396.649 205.507 396.666 205.445 396.669C205.382 396.671 205.32 396.659 205.263 396.633C205.207 396.607 205.157 396.567 205.119 396.518C205.08 396.469 205.054 396.411 205.043 396.35L204.528 393.545C204.428 393.006 204.65 392.771 205.193 392.838L210.785 393.534C211.035 393.566 211.055 393.652 210.844 393.791C210.626 393.938 210.39 394.041 210.136 394.102C209.972 394.141 209.818 394.202 209.675 394.284L205.622 396.618Z" fill="#4645CE"/>
</g>
<defs>
<clipPath id="clip0_2067_1180">
<rect width="549" height="548.151" fill="white" transform="translate(-33)"/>
</clipPath>
</defs>
</svg>
