<svg width="77" height="114" viewBox="0 0 77 114" fill="none" xmlns="http://www.w3.org/2000/svg">
<g id="Frame" clip-path="url(#clip0_2059_768)">
<g id="Clip path group">
<mask id="mask0_2059_768" style="mask-type:luminance" maskUnits="userSpaceOnUse" x="-65" y="0" width="164" height="123">
<g id="__lottie_element_396">
<path id="Vector" d="M98.0737 0.947021H-64.0316V122.018H98.0737V0.947021Z" fill="white"/>
</g>
</mask>
<g mask="url(#mask0_2059_768)">
<g id="Group">
<g id="Clip path group_2">
<mask id="mask1_2059_768" style="mask-type:luminance" maskUnits="userSpaceOnUse" x="-51" y="-28" width="172" height="171">
<g id="__lottie_element_399">
<path id="Vector_2" d="M-50.6579 -27.7065H120.363V142.601H-50.6579V-27.7065Z" fill="white"/>
</g>
</mask>
<g mask="url(#mask1_2059_768)">
<g id="Group_2">
<g id="Group_3">
<g id="Group_4">
<path id="Vector_3" d="M1.43462 27.7982C1.43462 27.3535 1.61213 26.9265 1.92823 26.6126C2.58476 25.962 3.64493 25.962 4.30146 26.6126L19.1689 41.418C19.8263 42.0726 19.8263 43.1348 19.1689 43.7902C18.5116 44.4448 17.4458 44.4448 16.7884 43.7902L1.92823 28.9831C1.61213 28.6692 1.43462 28.243 1.43462 27.7982Z" fill="#E8EDEA"/>
</g>
</g>
<g id="Group_5">
<g id="Group_6">
<path id="Vector_4" d="M21.8104 3.88905C22.7118 3.6574 23.6317 4.19818 23.8635 5.09572L28.9115 25.2057C29.0233 25.6367 28.9593 26.0935 28.7315 26.4777C28.5038 26.8611 28.1334 27.1388 27.6997 27.2502C26.7992 27.481 25.8793 26.941 25.6467 26.0435L20.5987 5.93354C20.3669 5.036 20.91 4.11989 21.8104 3.88905Z" fill="#E8EDEA"/>
</g>
</g>
<g id="Group_7">
<g id="Group_8">
<path id="Vector_5" d="M49.9552 14.1107V34.7816C49.9552 35.7066 49.2022 36.4572 48.2733 36.4572C47.3428 36.4572 46.5899 35.7066 46.5899 34.7816V14.1107C46.5899 13.1857 47.3428 12.4351 48.2733 12.4351C49.2022 12.4351 49.9552 13.1857 49.9552 14.1107Z" fill="#E8EDEA"/>
</g>
</g>
<g id="Group_9">
<g id="Group_10">
<path id="Vector_6" d="M54.3546 64.5604H54.3554L54.3465 64.5523C53.6275 63.8355 52.6727 63.4021 51.6571 63.3335C50.6424 63.2633 49.6373 63.5635 48.8268 64.1754L44.8722 68.1134C44.1063 68.8778 43.6751 69.9125 43.6751 70.9917C43.6751 72.0708 44.1063 73.1064 44.8722 73.8699L44.9808 73.9797C45.4898 74.4923 46.1277 74.8579 46.828 75.0411C47.5283 75.2243 48.2659 75.2163 48.9613 75.0177C50.5929 73.7448 52.8056 71.9764 53.8326 71.0885C54.8571 70.1805 55.4901 68.9141 55.5995 67.5524C55.6036 66.4289 55.1562 65.3514 54.3546 64.5604ZM61.2716 76.5206C61.2343 75.6473 60.8671 74.8208 60.2447 74.2049H60.2284C59.6724 73.6617 58.9502 73.3187 58.1762 73.2291C57.4013 73.1387 56.6192 73.3082 55.9529 73.7101C54.4551 74.9919 51.6369 77.2139 50.9633 77.7329C50.366 78.4755 50.0604 79.4078 50.1042 80.3578C50.1479 81.3078 50.537 82.2094 51.2 82.8938L51.401 83.0956C51.9262 83.5952 52.5811 83.9391 53.292 84.0868C54.0028 84.2353 54.7412 84.182 55.4228 83.9334L60.2528 79.1236C60.3111 79.0486 60.376 78.9784 60.4465 78.9138C61.0139 78.2487 61.3089 77.3939 61.2716 76.5206ZM65.7725 82.9366C64.9789 82.1383 63.8969 81.692 62.7686 81.696L62.4242 81.646L58.2167 85.8358C57.6161 86.5873 57.317 87.5325 57.3754 88.4897C57.4346 89.4478 57.8487 90.3502 58.5369 91.0225L58.6876 91.1815C59.2526 91.7312 59.9731 92.096 60.752 92.226C61.531 92.3559 62.3326 92.247 63.0475 91.9104H63.0458L65.7141 88.9861C66.5303 88.1935 66.9963 87.1087 67.0077 85.9739C67.0182 84.8382 66.5741 83.7445 65.7725 82.9366ZM9.81047 56.9522C8.09377 55.5696 6.4711 55.5196 4.85491 56.7932C2.79293 58.4358 3.13822 61.0001 4.40831 62.7758C9.86883 70.5518 10.2733 74.5576 10.223 78.9897C10.1387 86.8407 11.947 92.523 14.5812 96.662C14.6696 96.7242 14.7506 96.7944 14.8252 96.8719H14.8244C14.8754 96.922 18.2326 100.4 22.5998 100.115C25.7308 99.9051 28.7338 97.8268 31.5358 93.9387C32.0862 93.2115 33.1188 93.0541 33.862 93.5852C34.6045 94.1155 34.7868 95.139 34.2713 95.8912C30.838 100.625 26.9928 103.164 22.7854 103.432H22.0705H21.2705C24.9098 105.809 29.0856 107.247 33.4211 107.621C42.3644 108.281 51.123 104.855 57.2254 98.3127H57.2263L57.2935 98.2376L59.8175 95.4642C58.4761 95.1608 57.2481 94.4876 56.2747 93.5198L56.1491 93.377C54.5969 91.8378 53.8293 89.6811 54.062 87.5123C52.1402 87.5187 50.2946 86.7641 48.9289 85.4169L48.8624 85.3499L48.7952 85.2918C47.0063 83.4959 46.2801 80.9042 46.8758 78.4456C45.2483 78.2398 43.735 77.5005 42.576 76.343L42.4836 76.2502C41.0773 74.8571 40.2879 72.9635 40.2879 70.9884C40.2879 69.0142 41.0773 67.1198 42.4836 65.7267L59.6149 48.7C60.4141 47.9058 60.8631 46.8282 60.8631 45.7047C60.8631 44.5804 60.4141 43.5028 59.6149 42.7086C58.7995 41.8982 57.6891 41.4502 56.5365 41.4688C55.3856 41.4841 54.2897 41.9692 53.5068 42.8095C47.1271 49.5879 31.6031 65.6331 24.9811 68.3394C24.2062 68.6647 23.3908 68.8883 22.5576 69.0013C23.4589 72.1499 22.8899 75.5343 21.0095 78.2188C20.4948 78.9622 19.4841 79.1656 18.7198 78.6805C17.9555 78.1946 17.7147 77.1946 18.1743 76.4173L18.1751 76.4165C21.4569 71.3137 18.2335 67.8027 18.0908 67.6525C18.0543 67.6097 18.0203 67.5646 17.9895 67.5185C16.8394 66.332 15.8586 64.993 15.0781 63.5385C13.7375 61.0436 11.9527 58.8119 9.81047 56.9522ZM6.84881 78.9646C6.88285 75.6634 6.92419 72.2605 1.64037 64.7194C-0.90955 61.0662 -0.447551 56.7262 2.75889 54.2047C5.59492 51.9673 9.01859 52.0335 11.93 54.3888C14.3754 56.4897 16.4171 59.0161 17.9538 61.8459C20.1666 65.4579 20.8571 66.37 23.7175 65.1972C28.6236 63.2132 41.0611 51.1126 51.0654 40.4801C52.4604 38.9941 54.3967 38.128 56.4392 38.078C58.4818 38.0263 60.4578 38.7956 61.9257 40.2113C63.3936 41.627 64.2276 43.5698 64.2422 45.6038C64.2576 47.6386 63.4503 49.5927 62.0035 51.0294L52.8737 60.1542C54.5953 60.4964 56.1442 61.4222 57.2546 62.775C58.3659 64.1277 58.9705 65.8219 58.9665 67.5702C58.9608 68.3701 58.8189 69.1627 58.545 69.9158C60.5373 70.1361 62.3326 71.2153 63.4584 72.8675C64.5834 74.5197 64.9254 76.5795 64.3929 78.5046C66.1866 78.8904 67.7817 79.9066 68.8832 81.3683C69.9848 82.83 70.5205 84.6364 70.3916 86.4598C70.262 88.2831 69.4766 89.9991 68.1797 91.2913L65.445 94.2987L65.3526 94.4077L59.8418 100.458C53.6008 107.299 44.719 111.151 35.4393 111.04L35.4401 111.041C34.7074 111.041 33.9755 111.016 33.2185 110.974C23.2984 110.379 6.59673 102.962 6.84881 78.9646Z" fill="#E8EDEA"/>
</g>
</g>
<g id="Group_11">
<g id="Group_12">
<path id="Vector_7" d="M27.3707 38.5275L31.0902 37.9908L32.7477 34.6395L34.4052 37.9908L38.1247 38.5275L35.4321 41.1419L36.0717 44.8289L32.7469 43.0855L29.4237 44.8289L30.0632 41.1419L27.3707 38.5275Z" fill="#E8EDEA"/>
</g>
</g>
<g id="Group_13">
<g id="Group_14">
<path id="Vector_8" d="M37.6368 20.3862L36.502 17.8388L33.7414 17.3279L35.8285 15.4594L35.467 12.686L37.8978 14.0856L40.4307 12.887L39.8422 15.6184L41.7688 17.6459L38.9839 17.9308L37.6368 20.3862Z" fill="#E8EDEA"/>
</g>
</g>
<g id="Group_15">
<g id="Group_16">
<path id="Vector_9" d="M12.0825 14.7976L14.1113 16.7162L16.8541 16.1472L15.6423 18.6598L17.047 21.082L14.262 20.7132L12.3856 22.7916L11.8726 20.0424L9.31456 18.9035L11.7802 17.571L12.0825 14.7976Z" fill="#E8EDEA"/>
</g>
</g>
</g>
</g>
</g>
</g>
</g>
</g>
</g>
<defs>
<clipPath id="clip0_2059_768">
<rect width="77" height="113" fill="white" transform="translate(0 0.947021)"/>
</clipPath>
</defs>
</svg>
