<svg width="80" height="71" viewBox="0 0 80 71" fill="none" xmlns="http://www.w3.org/2000/svg">
<rect x="0.5" y="1.44702" width="79" height="69" rx="6.7" fill="white"/>
<rect x="0.5" y="1.44702" width="79" height="69" rx="6.7" stroke="#E3E3E3"/>
<path d="M40 41.7804C42.4162 41.7804 44.375 39.8216 44.375 37.4054C44.375 34.9891 42.4162 33.0304 40 33.0304C37.5838 33.0304 35.625 34.9891 35.625 37.4054C35.625 39.8216 37.5838 41.7804 40 41.7804Z" stroke="#138232" stroke-width="2" stroke-linecap="round" stroke-linejoin="round"/>
<path d="M26.875 33.8544C26.875 33.0168 26.875 32.598 26.983 32.2123C27.0786 31.8707 27.2357 31.5494 27.4467 31.2641C27.6849 30.9421 28.0154 30.685 28.6766 30.1708L38.5675 22.4779C39.0798 22.0794 39.336 21.8801 39.6189 21.8036C39.8685 21.736 40.1315 21.736 40.3811 21.8036C40.664 21.8801 40.9202 22.0794 41.4325 22.4779L51.3234 30.1708C51.9846 30.685 52.3151 30.9421 52.5533 31.2641C52.7643 31.5494 52.9214 31.8707 53.017 32.2123C53.125 32.598 53.125 33.0168 53.125 33.8544V44.4054C53.125 46.0388 53.125 46.8556 52.8071 47.4795C52.5275 48.0283 52.0813 48.4745 51.5325 48.7541C50.9086 49.072 50.0918 49.072 48.4583 49.072H31.5417C29.9082 49.072 29.0914 49.072 28.4675 48.7541C27.9187 48.4745 27.4725 48.0283 27.1929 47.4795C26.875 46.8556 26.875 46.0388 26.875 44.4054V33.8544Z" stroke="#138232" stroke-width="2" stroke-linecap="round" stroke-linejoin="round"/>
</svg>
