<svg width="104" height="24" viewBox="0 0 104 24" fill="none" xmlns="http://www.w3.org/2000/svg">
<path d="M6.86926 11.0308H1.25491C0.561874 11.0308 6.10352e-05 11.5926 6.10352e-05 12.2856V22.7446C6.10352e-05 23.4377 0.561874 23.9995 1.25491 23.9995H6.86926C7.56229 23.9995 8.12411 23.4377 8.12411 22.7446V12.2856C8.12411 11.5926 7.56229 11.0308 6.86926 11.0308Z" fill="#B6EC2E"/>
<path d="M19.1549 9.37844V22.7452C19.1549 23.4382 18.593 24 17.9 24H12.2852C11.5922 24 11.0304 23.4382 11.0304 22.7452V9.37844C11.0304 8.68544 10.4685 8.12359 9.77554 8.12359H1.25485C0.561844 8.12405 0 7.5622 0 6.8692V1.25485C0 0.561844 0.561844 0 1.25485 0H11.7143C12.4073 0 12.9692 0.561844 12.9692 1.25485V6.86966C12.9692 7.56266 13.531 8.1245 14.224 8.1245H17.9009C18.5939 8.1245 19.1558 8.68634 19.1558 9.37935L19.1549 9.37844Z" fill="#154B2C"/>
<path d="M98.304 19.7545C94.6061 19.7545 91.9958 17.2748 91.9958 13.6421V13.5986C91.9958 10.1834 94.4538 7.44263 97.9342 7.44263C101.98 7.44263 103.851 10.4227 103.851 13.8814C103.851 14.1424 103.851 14.4469 103.829 14.7297H95.9548C96.281 16.0349 97.1946 16.6657 98.4998 16.6657C99.5222 16.6657 100.262 16.3177 101.11 15.4693L103.394 17.3618C102.263 18.8192 100.653 19.7545 98.304 19.7545ZM95.8895 12.6197H100.001C99.8485 11.3146 99.0654 10.488 97.9342 10.488C96.8249 10.488 96.1288 11.3146 95.8895 12.6197Z" fill="#154B2C"/>
<path d="M86.3908 19.7328C84.3895 19.7328 82.4753 19.1672 80.8439 17.9708L82.3883 15.491C83.7587 16.3829 85.1944 16.8397 86.4125 16.8397C87.1303 16.8397 87.4784 16.6222 87.4784 16.2089V16.1654C87.4784 15.6651 86.8041 15.491 85.5642 15.143C83.2367 14.5557 81.3877 13.7508 81.3877 11.4016V11.3581C81.3877 8.85652 83.4107 7.46436 86.108 7.46436C87.8482 7.46436 89.5884 7.96466 90.9588 8.83476L89.5449 11.4451C88.3267 10.749 86.9998 10.3357 86.0645 10.3357C85.4337 10.3357 85.1074 10.575 85.1074 10.923V10.9665C85.1074 11.4233 85.8034 11.6408 87.0216 12.0106C89.3491 12.6415 91.1981 13.4681 91.1981 15.7521V15.7956C91.1981 18.3841 89.2621 19.7328 86.3908 19.7328Z" fill="#154B2C"/>
<path d="M68.3625 19.4718V7.70366H72.4955V9.35685C73.2568 8.37798 74.3444 7.44263 76.0194 7.44263C78.5427 7.44263 80.0218 9.07407 80.0218 11.7714V19.4718H75.9106V13.0983C75.9106 11.7931 75.258 11.0971 74.2357 11.0971C73.2133 11.0971 72.4955 11.7931 72.4955 13.0983V19.4718H68.3625Z" fill="#154B2C"/>
<path d="M61.4573 19.7545C57.7593 19.7545 55.149 17.2748 55.149 13.6421V13.5986C55.149 10.1834 57.6071 7.44263 61.0875 7.44263C65.1335 7.44263 67.0042 10.4227 67.0042 13.8814C67.0042 14.1424 67.0042 14.4469 66.9824 14.7297H59.108C59.4343 16.0349 60.3479 16.6657 61.6531 16.6657C62.6754 16.6657 63.415 16.3177 64.2634 15.4693L66.5474 17.3618C65.4162 18.8192 63.8066 19.7545 61.4573 19.7545ZM59.0427 12.6197H63.154C63.0017 11.3146 62.2186 10.488 61.0875 10.488C59.9781 10.488 59.282 11.3146 59.0427 12.6197Z" fill="#154B2C"/>
<path d="M51.6683 19.7111C49.1668 19.7111 47.7311 18.6235 47.7311 15.8174V11.0101H46.3389V7.70373H47.7311V4.72363H51.8423V7.70373H54.5831V11.0101H51.8423V15.0126C51.8423 15.8609 52.2121 16.1872 52.9734 16.1872C53.5173 16.1872 54.0393 16.0349 54.5396 15.7957V19.015C53.7783 19.4283 52.8212 19.7111 51.6683 19.7111Z" fill="#154B2C"/>
<path d="M33.64 19.4718V7.70366H37.773V9.35685C38.5343 8.37798 39.622 7.44263 41.2969 7.44263C43.8202 7.44263 45.2994 9.07407 45.2994 11.7714V19.4718H41.1881V13.0983C41.1881 11.7931 40.5356 11.0971 39.5132 11.0971C38.4908 11.0971 37.773 11.7931 37.773 13.0983V19.4718H33.64Z" fill="#154B2C"/>
<path d="M27.3068 19.4719V4.24512H31.5268V19.4719H27.3068Z" fill="#154B2C"/>
</svg>
