<svg width="104" height="24" viewBox="0 0 104 24" fill="none" xmlns="http://www.w3.org/2000/svg">
<path d="M6.94385 11.0308H1.32949C0.636459 11.0308 0.074646 11.5926 0.074646 12.2856V22.7446C0.074646 23.4377 0.636459 23.9995 1.32949 23.9995H6.94385C7.63688 23.9995 8.19869 23.4377 8.19869 22.7446V12.2856C8.19869 11.5926 7.63688 11.0308 6.94385 11.0308Z" fill="#0A4020"/>
<path d="M19.2295 9.37844V22.7452C19.2295 23.4382 18.6676 24 17.9746 24H12.3598C11.6668 24 11.105 23.4382 11.105 22.7452V9.37844C11.105 8.68544 10.5431 8.12359 9.85012 8.12359H1.32943C0.636429 8.12405 0.074585 7.5622 0.074585 6.8692V1.25485C0.074585 0.561844 0.636429 0 1.32943 0H11.7889C12.4819 0 13.0437 0.561844 13.0437 1.25485V6.86966C13.0437 7.56266 13.6056 8.1245 14.2986 8.1245H17.9755C18.6685 8.1245 19.2304 8.68634 19.2304 9.37935L19.2295 9.37844Z" fill="#0A4020"/>
<path d="M98.3786 19.7545C94.6807 19.7545 92.0704 17.2748 92.0704 13.6421V13.5986C92.0704 10.1834 94.5284 7.44263 98.0088 7.44263C102.055 7.44263 103.925 10.4227 103.925 13.8814C103.925 14.1424 103.926 14.4469 103.904 14.7297H96.0293C96.3556 16.0349 97.2692 16.6657 98.5744 16.6657C99.5967 16.6657 100.336 16.3177 101.185 15.4693L103.469 17.3618C102.338 18.8192 100.728 19.7545 98.3786 19.7545ZM95.9641 12.6197H100.075C99.923 11.3146 99.1399 10.488 98.0088 10.488C96.8994 10.488 96.2034 11.3146 95.9641 12.6197Z" fill="#0A4020"/>
<path d="M86.4654 19.7328C84.4641 19.7328 82.5499 19.1672 80.9185 17.9708L82.4629 15.491C83.8333 16.3829 85.269 16.8397 86.4871 16.8397C87.2049 16.8397 87.553 16.6222 87.553 16.2089V16.1654C87.553 15.6651 86.8787 15.491 85.6388 15.143C83.3112 14.5557 81.4623 13.7508 81.4623 11.4016V11.3581C81.4623 8.85652 83.4853 7.46436 86.1826 7.46436C87.9228 7.46436 89.663 7.96466 91.0334 8.83476L89.6195 11.4451C88.4013 10.749 87.0744 10.3357 86.1391 10.3357C85.5082 10.3357 85.182 10.575 85.182 10.923V10.9665C85.182 11.4233 85.878 11.6408 87.0962 12.0106C89.4237 12.6415 91.2727 13.4681 91.2727 15.7521V15.7956C91.2727 18.3841 89.3367 19.7328 86.4654 19.7328Z" fill="#0A4020"/>
<path d="M68.4371 19.4718V7.70366H72.5701V9.35685C73.3314 8.37798 74.419 7.44263 76.094 7.44263C78.6173 7.44263 80.0964 9.07407 80.0964 11.7714V19.4718H75.9852V13.0983C75.9852 11.7931 75.3326 11.0971 74.3103 11.0971C73.2879 11.0971 72.5701 11.7931 72.5701 13.0983V19.4718H68.4371Z" fill="#0A4020"/>
<path d="M61.5319 19.7545C57.8339 19.7545 55.2236 17.2748 55.2236 13.6421V13.5986C55.2236 10.1834 57.6817 7.44263 61.1621 7.44263C65.208 7.44263 67.0788 10.4227 67.0788 13.8814C67.0788 14.1424 67.0788 14.4469 67.057 14.7297H59.1826C59.5089 16.0349 60.4225 16.6657 61.7276 16.6657C62.75 16.6657 63.4896 16.3177 64.3379 15.4693L66.622 17.3618C65.4908 18.8192 63.8811 19.7545 61.5319 19.7545ZM59.1173 12.6197H63.2286C63.0763 11.3146 62.2932 10.488 61.1621 10.488C60.0527 10.488 59.3566 11.3146 59.1173 12.6197Z" fill="#0A4020"/>
<path d="M51.7429 19.7111C49.2413 19.7111 47.8057 18.6235 47.8057 15.8174V11.0101H46.4135V7.70373H47.8057V4.72363H51.9169V7.70373H54.6577V11.0101H51.9169V15.0126C51.9169 15.8609 52.2867 16.1872 53.048 16.1872C53.5918 16.1872 54.1139 16.0349 54.6142 15.7957V19.015C53.8529 19.4283 52.8958 19.7111 51.7429 19.7111Z" fill="#0A4020"/>
<path d="M33.7146 19.4718V7.70366H37.8476V9.35685C38.6089 8.37798 39.6965 7.44263 41.3715 7.44263C43.8948 7.44263 45.3739 9.07407 45.3739 11.7714V19.4718H41.2627V13.0983C41.2627 11.7931 40.6101 11.0971 39.5878 11.0971C38.5654 11.0971 37.8476 11.7931 37.8476 13.0983V19.4718H33.7146Z" fill="#0A4020"/>
<path d="M27.3814 19.4719V4.24512H31.6014V19.4719H27.3814Z" fill="#0A4020"/>
</svg>
